<?xml version="1.0" standalone="no"?>
<!DOCTYPE svg PUBLIC "-//W3C//DTD SVG 1.1//EN" "http://www.w3.org/Graphics/SVG/1.1/DTD/svg11.dtd" >
<svg xmlns="http://www.w3.org/2000/svg" xmlns:xlink="http://www.w3.org/1999/xlink" version="1.1">
<metadata>
Created by FontForge 20170731 at Mon Sep 17 17:04:44 2018
 By Aleksey,,,
Copyright (c) 2018 by Studio Kmzero &#38; Zetafonts. All rights reserved.
</metadata>
<defs>
<font id="BodyTextSlimTrial-Bold" horiz-adv-x="1727" >
  <font-face 
    font-family="Body Text SlimTrial"
    font-weight="700"
    font-stretch="normal"
    units-per-em="2048"
    panose-1="2 0 5 3 4 0 0 2 0 4"
    ascent="1638"
    descent="-410"
    x-height="1026"
    cap-height="1432"
    bbox="-287 -642 2182 2004"
    underline-thickness="96"
    underline-position="-288"
    unicode-range="U+000D-F7FF"
  />
<missing-glyph horiz-adv-x="1274" 
d="M71 1654h1128v-1842h-1128v1842zM714 411v46q0 55 11.5 95.5t32 75.5t49 70.5t62.5 80.5q31 40 55 78t41 77t26 82t9 93q0 175 -95 268t-272 93q-112 0 -195.5 -38.5t-129 -107t-50 -163.5t40.5 -208l183 42q-24 84 -18.5 138.5t29 86.5t58 44.5t67.5 12.5q45 0 74 -16
t45.5 -42t23 -59t6.5 -67q0 -45 -9.5 -83t-27 -72.5t-43 -68.5t-58.5 -72q-31 -42 -56.5 -78.5t-44 -74.5t-28.5 -80.5t-10 -94.5v-58h224zM726 -1v290h-244v-290h244z" />
    <glyph glyph-name="g_g" unicode="gg" horiz-adv-x="1731" 
d="M463 354q-75 0 -136 23q-22 -15 -35.5 -34t-13.5 -39q0 -28 26 -47.5t87 -31.5l110 -20q79 -15 142 -39.5t106.5 -61.5t66.5 -86.5t23 -113.5q0 -53 -21.5 -109t-69.5 -101.5t-125.5 -74.5t-189.5 -29q-94 0 -166 20t-120.5 54t-73.5 79t-25 94q0 46 17.5 84t45.5 68
t63 50.5t69 30.5q-47 16 -78 38t-49 46t-25 48t-7 45q0 33 12 62.5t31.5 54t44.5 43.5t50 31l7 -3q-56 48 -86 117.5t-30 152.5q0 76 24.5 140t70 110.5t110.5 72.5t145 26q107 0 187 -46q7 32 21.5 58t34 44t43 28t48.5 10q23 0 43.5 -1t40.5 -4v-143h-56q-38 0 -59 -13
t-34 -45q40 -45 61.5 -105t21.5 -132q0 -78 -25 -142.5t-70.5 -111t-110.5 -72t-146 -25.5zM1305 354q-73 0 -131 21q-40 -31 -40 -71q0 -28 27.5 -49t70.5 -30l111 -20q80 -15 142.5 -39.5t106 -61.5t66.5 -86.5t23 -113.5q0 -53 -21.5 -109t-69.5 -101.5t-125.5 -74.5
t-189.5 -29q-94 0 -163.5 20t-115.5 54t-69 79t-23 94q0 46 17.5 84t45.5 68t63 50.5t69 30.5q-48 16 -78.5 38t-48.5 46t-25 48t-7 45q0 28 10 56.5t27 54.5t39.5 47t47.5 33l6 -3q-55 48 -84.5 117.5t-29.5 152.5q0 76 24.5 140t70 110.5t110 72.5t144.5 26q107 0 187 -46
q7 32 21.5 58t34.5 44t43.5 28t48.5 10q22 0 43 -1t40 -4v-143h-55q-39 0 -59.5 -13.5t-33.5 -45.5q40 -45 61 -104.5t21 -131.5q0 -78 -24.5 -142.5t-70.5 -111t-111 -72t-146 -25.5zM463 508q66 0 101 54t35 143q0 88 -36.5 141t-99.5 53t-98 -52t-35 -142t33.5 -143.5
t99.5 -53.5zM1305 508q67 0 101 54t34 143q0 88 -36 141t-99 53t-97.5 -52t-34.5 -142t32.5 -143.5t99.5 -53.5zM384 41q-20 -6 -44.5 -19.5t-45.5 -33t-35.5 -45t-14.5 -55.5q0 -64 45 -102.5t133 -38.5t137.5 39.5t49.5 106.5q0 54 -39 88.5t-124 49.5zM1237 40
q-20 -7 -44 -20t-44.5 -32.5t-34.5 -44.5t-14 -55q0 -64 44 -102.5t120 -38.5q88 0 137.5 39.5t49.5 106.5q0 54 -38.5 88.5t-124.5 49.5z" />
    <glyph glyph-name=".notdef" horiz-adv-x="1274" 
d="M71 1654h1128v-1842h-1128v1842zM714 411v46q0 55 11.5 95.5t32 75.5t49 70.5t62.5 80.5q31 40 55 78t41 77t26 82t9 93q0 175 -95 268t-272 93q-112 0 -195.5 -38.5t-129 -107t-50 -163.5t40.5 -208l183 42q-24 84 -18.5 138.5t29 86.5t58 44.5t67.5 12.5q45 0 74 -16
t45.5 -42t23 -59t6.5 -67q0 -45 -9.5 -83t-27 -72.5t-43 -68.5t-58.5 -72q-31 -42 -56.5 -78.5t-44 -74.5t-28.5 -80.5t-10 -94.5v-58h224zM726 -1v290h-244v-290h244z" />
    <glyph glyph-name=".null" horiz-adv-x="0" 
 />
    <glyph glyph-name="nonmarkingreturn" unicode="&#xd;" horiz-adv-x="340" 
 />
    <glyph glyph-name="NULL" horiz-adv-x="0" 
 />
    <glyph glyph-name="NULL" horiz-adv-x="0" 
 />
    <glyph glyph-name="space" unicode=" " horiz-adv-x="340" 
 />
    <glyph glyph-name="exclam" unicode="!" horiz-adv-x="483" 
d="M182 431l-64 457v544h248v-545l-64 -456h-120zM120 -1v290h243v-290h-243z" />
    <glyph glyph-name="quotedbl" unicode="&#x22;" horiz-adv-x="668" 
d="M94 930l-27 502h213l-27 -502h-159zM406 930l-27 502h213l-27 -502h-159z" />
    <glyph glyph-name="numbersign" unicode="#" horiz-adv-x="1015" 
d="M506 0l53 369h-197l-54 -369h-179l55 369h-160v166h184l46 323h-161v167h185l54 364h178l-53 -364h199l53 364h177l-53 -364h158v-167h-182l-47 -323h166v-166h-189l-56 -369h-177zM630 858h-197l-47 -323h199z" />
    <glyph glyph-name="dollar" unicode="$" horiz-adv-x="940" 
d="M535 -203q-24 0 -47.5 0.5t-46.5 0.5v168q-70 3 -130.5 16.5t-110.5 33.5t-90.5 44t-71.5 47l95 187q44 -28 82.5 -49t75.5 -35t73.5 -22t76.5 -10v443l-59 32q-77 40 -136 79t-99 85.5t-60.5 103.5t-20.5 132q0 90 28 164t78.5 128t119 85t149.5 35v146h94v-149
q83 -8 166.5 -41.5t175.5 -105.5l-96 -168q-72 50 -131.5 73.5t-114.5 29.5v-412l34 -18q87 -44 150 -87t104 -94t61 -113.5t20 -145.5q0 -81 -25.5 -151.5t-73.5 -124.5t-116.5 -89.5t-153.5 -45.5v-172zM653 378q0 37 -8 65t-23 50.5t-37 41t-50 35.5v-381
q31 11 53.5 31.5t37 46t21 54.5t6.5 57zM316 1073q0 -35 10.5 -63t27.5 -50t40 -39.5t47 -32.5v359q-33 -8 -57 -27t-39 -43.5t-22 -51.5t-7 -52z" />
    <glyph glyph-name="percent" unicode="%" horiz-adv-x="1409" 
d="M300 675q-133 0 -191 96t-58 289q0 194 58.5 290.5t192.5 96.5q133 0 191.5 -96.5t58.5 -291.5q0 -192 -59 -288t-193 -96zM301 813q24 0 40.5 13.5t27.5 42.5t16 76t5 115t-5 115t-16 76.5t-28 43t-40 13.5t-40 -13.5t-27.5 -43t-15.5 -77t-5 -115.5q0 -67 5 -114
t15.5 -76t27 -42.5t40.5 -13.5zM300 26l650 1442l149 -56l-649 -1441zM1106 -19q-67 0 -114 24t-77 72.5t-44 120.5t-14 168q0 195 58.5 291.5t192.5 96.5q133 0 191.5 -96.5t58.5 -292.5q0 -191 -59 -287.5t-193 -96.5zM1107 119q24 0 40.5 13.5t27 43t15.5 76.5t5 114
q0 68 -5 115t-15.5 76.5t-27 43t-40.5 13.5q-23 0 -39.5 -13.5t-27.5 -43t-16 -77t-5 -115.5q0 -67 5 -113.5t15.5 -76t27 -43t40.5 -13.5z" />
    <glyph glyph-name="ampersand" unicode="&#x26;" 
d="M477 261l936 945q186 -239 186 -476q0 -135 -42.5 -256t-124.5 -213h-955zM337 238q-88 111 -133 233t-45 259q0 58 10 119.5t31 120.5t52.5 112t73.5 95h948zM400 180h960q-117 -93 -236.5 -137t-246.5 -44q-139 0 -258 48t-219 133zM1360 1263h-969q116 87 236.5 134.5
t249.5 47.5q74 0 137 -15t121 -40.5t113 -58.5t112 -68z" />
    <glyph glyph-name="quotesingle" unicode="'" horiz-adv-x="351" 
d="M94 930l-27 502h213l-27 -502h-159z" />
    <glyph glyph-name="parenleft" unicode="(" horiz-adv-x="531" 
d="M331 -261q-123 203 -183.5 432.5t-60.5 465.5q0 235 60.5 460.5t183.5 420.5l199 -32q-109 -199 -161 -410t-52 -441q0 -228 51.5 -439t164.5 -421z" />
    <glyph glyph-name="parenright" unicode=")" horiz-adv-x="531" 
d="M-4 -226q113 211 165 422t52 439q0 230 -52 441t-161 410l199 32q122 -195 183.5 -420.5t61.5 -460.5q0 -236 -61 -465.5t-183 -432.5z" />
    <glyph glyph-name="asterisk" unicode="*" horiz-adv-x="675" 
d="M450 799l-113 249l-113 -249l-154 112l199 186l-254 35l65 182l213 -135l-53 256h194l-54 -257l213 136l65 -182l-252 -35l198 -186z" />
    <glyph glyph-name="plus" unicode="+" horiz-adv-x="928" 
d="M363 124v320h-285v196h285v311h202v-311h284v-196h-284v-320h-202z" />
    <glyph glyph-name="comma" unicode="," horiz-adv-x="414" 
d="M72 -173q30 13 50.5 28.5t33 36t17.5 47t5 61.5h-89v266h244v-253q0 -47 -12 -92t-40 -84t-73.5 -69t-111.5 -47z" />
    <glyph glyph-name="hyphen" unicode="-" horiz-adv-x="619" 
d="M61 403v224h497v-224h-497z" />
    <glyph glyph-name="period" unicode="." horiz-adv-x="401" 
d="M87 0v311h229v-311h-229z" />
    <glyph glyph-name="slash" unicode="/" horiz-adv-x="694" 
d="M49 -118l390 1699h218l-390 -1699h-218z" />
    <glyph glyph-name="zero" unicode="0" 
d="M477 261l936 945q186 -239 186 -476q0 -135 -42.5 -256t-124.5 -213h-955zM337 238q-88 111 -133 233t-45 259q0 58 10 119.5t31 120.5t52.5 112t73.5 95h948zM400 180h960q-117 -93 -236.5 -137t-246.5 -44q-139 0 -258 48t-219 133zM1360 1263h-969q116 87 236.5 134.5
t249.5 47.5q74 0 137 -15t121 -40.5t113 -58.5t112 -68z" />
    <glyph glyph-name="one" unicode="1" 
d="M477 261l936 945q186 -239 186 -476q0 -135 -42.5 -256t-124.5 -213h-955zM337 238q-88 111 -133 233t-45 259q0 58 10 119.5t31 120.5t52.5 112t73.5 95h948zM400 180h960q-117 -93 -236.5 -137t-246.5 -44q-139 0 -258 48t-219 133zM1360 1263h-969q116 87 236.5 134.5
t249.5 47.5q74 0 137 -15t121 -40.5t113 -58.5t112 -68z" />
    <glyph glyph-name="two" unicode="2" 
d="M477 261l936 945q186 -239 186 -476q0 -135 -42.5 -256t-124.5 -213h-955zM337 238q-88 111 -133 233t-45 259q0 58 10 119.5t31 120.5t52.5 112t73.5 95h948zM400 180h960q-117 -93 -236.5 -137t-246.5 -44q-139 0 -258 48t-219 133zM1360 1263h-969q116 87 236.5 134.5
t249.5 47.5q74 0 137 -15t121 -40.5t113 -58.5t112 -68z" />
    <glyph glyph-name="three" unicode="3" 
d="M477 261l936 945q186 -239 186 -476q0 -135 -42.5 -256t-124.5 -213h-955zM337 238q-88 111 -133 233t-45 259q0 58 10 119.5t31 120.5t52.5 112t73.5 95h948zM400 180h960q-117 -93 -236.5 -137t-246.5 -44q-139 0 -258 48t-219 133zM1360 1263h-969q116 87 236.5 134.5
t249.5 47.5q74 0 137 -15t121 -40.5t113 -58.5t112 -68z" />
    <glyph glyph-name="four" unicode="4" 
d="M477 261l936 945q186 -239 186 -476q0 -135 -42.5 -256t-124.5 -213h-955zM337 238q-88 111 -133 233t-45 259q0 58 10 119.5t31 120.5t52.5 112t73.5 95h948zM400 180h960q-117 -93 -236.5 -137t-246.5 -44q-139 0 -258 48t-219 133zM1360 1263h-969q116 87 236.5 134.5
t249.5 47.5q74 0 137 -15t121 -40.5t113 -58.5t112 -68z" />
    <glyph glyph-name="five" unicode="5" 
d="M477 261l936 945q186 -239 186 -476q0 -135 -42.5 -256t-124.5 -213h-955zM337 238q-88 111 -133 233t-45 259q0 58 10 119.5t31 120.5t52.5 112t73.5 95h948zM400 180h960q-117 -93 -236.5 -137t-246.5 -44q-139 0 -258 48t-219 133zM1360 1263h-969q116 87 236.5 134.5
t249.5 47.5q74 0 137 -15t121 -40.5t113 -58.5t112 -68z" />
    <glyph glyph-name="six" unicode="6" 
d="M477 261l936 945q186 -239 186 -476q0 -135 -42.5 -256t-124.5 -213h-955zM337 238q-88 111 -133 233t-45 259q0 58 10 119.5t31 120.5t52.5 112t73.5 95h948zM400 180h960q-117 -93 -236.5 -137t-246.5 -44q-139 0 -258 48t-219 133zM1360 1263h-969q116 87 236.5 134.5
t249.5 47.5q74 0 137 -15t121 -40.5t113 -58.5t112 -68z" />
    <glyph glyph-name="seven" unicode="7" 
d="M477 261l936 945q186 -239 186 -476q0 -135 -42.5 -256t-124.5 -213h-955zM337 238q-88 111 -133 233t-45 259q0 58 10 119.5t31 120.5t52.5 112t73.5 95h948zM400 180h960q-117 -93 -236.5 -137t-246.5 -44q-139 0 -258 48t-219 133zM1360 1263h-969q116 87 236.5 134.5
t249.5 47.5q74 0 137 -15t121 -40.5t113 -58.5t112 -68z" />
    <glyph glyph-name="eight" unicode="8" 
d="M477 261l936 945q186 -239 186 -476q0 -135 -42.5 -256t-124.5 -213h-955zM337 238q-88 111 -133 233t-45 259q0 58 10 119.5t31 120.5t52.5 112t73.5 95h948zM400 180h960q-117 -93 -236.5 -137t-246.5 -44q-139 0 -258 48t-219 133zM1360 1263h-969q116 87 236.5 134.5
t249.5 47.5q74 0 137 -15t121 -40.5t113 -58.5t112 -68z" />
    <glyph glyph-name="nine" unicode="9" 
d="M477 261l936 945q186 -239 186 -476q0 -135 -42.5 -256t-124.5 -213h-955zM337 238q-88 111 -133 233t-45 259q0 58 10 119.5t31 120.5t52.5 112t73.5 95h948zM400 180h960q-117 -93 -236.5 -137t-246.5 -44q-139 0 -258 48t-219 133zM1360 1263h-969q116 87 236.5 134.5
t249.5 47.5q74 0 137 -15t121 -40.5t113 -58.5t112 -68z" />
    <glyph glyph-name="colon" unicode=":" horiz-adv-x="401" 
d="M87 0v311h229v-311h-229zM87 715v311h229v-311h-229z" />
    <glyph glyph-name="semicolon" unicode=";" horiz-adv-x="401" 
d="M87 715v311h229v-311h-229zM72 -173q30 13 50.5 28.5t33 36t17.5 47t5 61.5h-89v266h244v-253q0 -47 -12 -92t-40 -84t-73.5 -69t-111.5 -47z" />
    <glyph glyph-name="less" unicode="&#x3c;" horiz-adv-x="969" 
d="M112 418v204l708 368v-221l-503 -246l503 -244v-229z" />
    <glyph glyph-name="equal" unicode="=" horiz-adv-x="928" 
d="M98 233v193h732v-193h-732zM98 628v193h732v-193h-732z" />
    <glyph glyph-name="greater" unicode="&#x3e;" horiz-adv-x="969" 
d="M146 50v229l504 244l-504 246v221l708 -368v-204z" />
    <glyph glyph-name="question" unicode="?" horiz-adv-x="805" 
d="M258 411v58q0 52 10 94.5t28 80.5t43.5 74.5t56.5 78.5q33 38 58.5 72t43.5 68.5t27 72.5t9 83q0 34 -5.5 64.5t-21 53.5t-43.5 36.5t-73 13.5q-30 0 -57 -9t-47.5 -35t-31.5 -73t-10 -123q-51 2 -102 3.5t-102 3.5q-8 106 9 187.5t61 137t116 84.5t174 29
q177 0 271.5 -91t94.5 -266q0 -50 -9 -93t-26 -82t-41 -77t-55 -78q-34 -45 -62 -80.5t-48.5 -70.5t-32 -75.5t-11.5 -95.5v-46h-224zM249 -1v290h245v-290h-245z" />
    <glyph glyph-name="at" unicode="@" 
d="M477 261l936 945q186 -239 186 -476q0 -135 -42.5 -256t-124.5 -213h-955zM337 238q-88 111 -133 233t-45 259q0 58 10 119.5t31 120.5t52.5 112t73.5 95h948zM400 180h960q-117 -93 -236.5 -137t-246.5 -44q-139 0 -258 48t-219 133zM1360 1263h-969q116 87 236.5 134.5
t249.5 47.5q74 0 137 -15t121 -40.5t113 -58.5t112 -68z" />
    <glyph glyph-name="A" unicode="A" horiz-adv-x="1028" 
d="M679 364h-344l-73 -364h-239l335 1432h312l336 -1432h-253zM373 552h268l-134 668z" />
    <glyph glyph-name="B" unicode="B" horiz-adv-x="991" 
d="M665 753q62 -6 113 -34.5t87 -73.5t56 -103t20 -124q0 -200 -102 -309t-319 -109h-402v1432h407q95 0 167.5 -24.5t121.5 -70.5t74 -111.5t25 -146.5q0 -59 -17 -114t-49 -98.5t-78 -72t-104 -35.5v-6zM460 183q57 0 98.5 12t69.5 39.5t41.5 72.5t13.5 111
q0 57 -11 101.5t-36 75t-65.5 46.5t-99.5 16h-117v-474h106zM463 825q54 0 90.5 16t59.5 45t33 71t10 95q0 96 -45 146.5t-148 50.5h-109v-424h109z" />
    <glyph glyph-name="C" unicode="C" horiz-adv-x="1040" 
d="M983 493q-6 -125 -34 -223.5t-81.5 -166t-135 -103t-195.5 -35.5q-233 0 -348.5 191t-115.5 561q0 369 115.5 559t354.5 190q111 0 191 -35.5t133 -103t81.5 -166t34.5 -223.5l-232 -19q-7 74 -20 135.5t-36 106t-58.5 69t-87.5 24.5q-69 0 -111.5 -44t-66 -120.5
t-32 -180t-8.5 -222.5q0 -120 11 -214.5t37 -160.5t68 -100.5t104 -34.5q51 0 86 24.5t58.5 69t36.5 106t19 135.5z" />
    <glyph glyph-name="D" unicode="D" horiz-adv-x="1083" 
d="M118 0v1432h372q146 0 245.5 -46.5t160 -137t87 -223t26.5 -304.5q0 -174 -27 -308t-89 -226t-162 -139.5t-245 -47.5h-368zM490 210q86 0 138 42t79.5 117t36 178t8.5 225q0 113 -13.5 197.5t-44 140.5t-80 84t-122.5 28h-130v-1012h128z" />
    <glyph glyph-name="E" unicode="E" horiz-adv-x="894" 
d="M118 0v1432h705v-210h-458v-376h393v-200h-393v-436h465v-210h-712z" />
    <glyph glyph-name="F" unicode="F" horiz-adv-x="839" 
d="M118 0v1432h685v-210h-438v-424h373v-200h-373v-598h-247z" />
    <glyph glyph-name="G" unicode="G" horiz-adv-x="1082" 
d="M798 257q-11 -142 -85 -217t-195 -75q-127 0 -212.5 58.5t-137 159.5t-73.5 236t-22 288q0 80 6.5 168t24.5 172t51 160t87 133.5t131 91.5t184 34q100 0 176 -34.5t128.5 -98.5t82 -154t37.5 -202l-232 -21q-8 63 -21.5 117t-36 94.5t-57 63.5t-84.5 23
q-65 0 -107.5 -38.5t-67 -109t-34.5 -169.5t-10 -220q0 -134 11 -235t36.5 -168.5t67.5 -102t104 -34.5q36 0 73 16.5t66.5 58.5t47 115t16.5 186l5 -28l-5 38h-213v195h440q0 -104 -1 -207t0.5 -200.5t8 -186.5t20.5 -164h-183q-21 117 -24 242z" />
    <glyph glyph-name="H" unicode="H" horiz-adv-x="1108" 
d="M743 0v631h-378v-631h-247v1432h247v-592h378v592h246v-1432h-246z" />
    <glyph glyph-name="I" unicode="I" horiz-adv-x="483" 
d="M118 0v1432h247v-1432h-247z" />
    <glyph glyph-name="J" unicode="J" horiz-adv-x="727" 
d="M195 188q101 0 142.5 60.5t41.5 183.5v1000h246v-977q0 -60 -5.5 -119.5t-20 -114t-40.5 -101.5t-66.5 -81.5t-98.5 -54t-136 -19.5q-34 0 -68.5 1.5t-65.5 3.5t-57 4.5t-44 5.5v208h172z" />
    <glyph glyph-name="K" unicode="K" horiz-adv-x="1045" 
d="M765 0l-274 676l-133 -202l7 -474h-247v1432h247l-7 -643l387 643h256l-347 -544l374 -888h-263z" />
    <glyph glyph-name="L" unicode="L" horiz-adv-x="831" 
d="M118 0v1432h247v-1222h442v-210h-689z" />
    <glyph glyph-name="M" unicode="M" horiz-adv-x="1339" 
d="M1000 0v935l4 154l-37 -152l-220 -937h-168l-221 937l-37 152l5 -153v-936h-208v1432h312l207 -884l32 -171l33 171l205 884h313v-1432h-220z" />
    <glyph glyph-name="N" unicode="N" horiz-adv-x="1112" 
d="M740 0l-368 890l-61 162l22 -173v-879h-215v1432h255l367 -890l62 -164l-23 173v881h215v-1432h-254z" />
    <glyph glyph-name="O" unicode="O" horiz-adv-x="1105" 
d="M552 -35q-246 0 -362.5 191t-116.5 558q0 370 117 561t364 191q244 0 361 -191.5t117 -562.5q0 -183 -28.5 -322.5t-87.5 -234t-149.5 -142.5t-214.5 -48zM553 178q63 0 105.5 33.5t68.5 100t37 167t11 235.5t-11.5 236.5t-37.5 168.5t-68.5 100.5t-104.5 33.5
t-104.5 -33.5t-68.5 -101t-37.5 -168.5t-11.5 -237q0 -134 11 -234.5t37 -167.5t68.5 -100t105.5 -33z" />
    <glyph glyph-name="P" unicode="P" horiz-adv-x="961" 
d="M118 0v1432h384q108 0 188 -31t133 -88t79 -138.5t26 -182.5q0 -111 -28 -199t-82 -149.5t-134 -94t-183 -32.5h-143v-517h-240zM475 719q57 0 96 20t63 56t34.5 86.5t10.5 110.5q0 64 -15 109t-42 73.5t-65.5 41.5t-85.5 13h-113v-510h117z" />
    <glyph glyph-name="Q" unicode="Q" horiz-adv-x="1105" 
d="M552 -35q-246 0 -362.5 191t-116.5 558q0 370 117 561t364 191q244 0 361 -191.5t117 -562.5q0 -266 -60 -438.5t-188 -249.5q30 -32 66 -60t79.5 -52t96 -45t115.5 -40l-133 -175q-65 15 -127 46.5t-116.5 74t-101 92.5t-80.5 101q-8 0 -15.5 -0.5t-15.5 -0.5zM553 178
q63 0 105.5 33.5t68.5 100t37 167t11 235.5t-11.5 236.5t-37.5 168.5t-68.5 100.5t-104.5 33.5t-104.5 -33.5t-68.5 -101t-37.5 -168.5t-11.5 -237q0 -134 11 -234.5t37 -167.5t68.5 -100t105.5 -33z" />
    <glyph glyph-name="R" unicode="R" horiz-adv-x="995" 
d="M678 0q-6 27 -13 64.5t-12 104.5l-10 184q-6 106 -49.5 161t-114.5 55h-121v-569h-240v1432h393q111 0 190 -28t129.5 -80.5t74 -127.5t23.5 -168q0 -74 -11 -135.5t-36.5 -110t-66 -82.5t-98.5 -52q70 -14 114 -80.5t53 -202.5l10 -205q4 -62 14 -100t16 -60h-245z
M482 763q106 0 151.5 58.5t45.5 181.5q0 63 -11 106.5t-36.5 70t-67.5 38t-103 11.5h-103v-466h124z" />
    <glyph glyph-name="S" unicode="S" horiz-adv-x="940" 
d="M653 378q0 49 -13.5 83t-39 60t-62.5 47.5t-85 46.5l-71 38q-77 40 -136 79t-99 85.5t-60.5 103.5t-20.5 132q0 93 30 169t83 130t125.5 84t157.5 30q51 0 101 -7t101.5 -24.5t104 -46.5t108.5 -73l-96 -168q-86 61 -157.5 83.5t-135.5 22.5q-46 0 -78.5 -17.5t-53.5 -44
t-30.5 -58t-9.5 -60.5q0 -43 15 -75t39 -56t54 -42.5t59 -34.5l86 -45q87 -44 150 -87t104 -94t61 -113.5t20 -145.5q0 -89 -30.5 -164.5t-87.5 -131.5t-137.5 -87.5t-179.5 -31.5q-75 0 -140 13t-119 34t-97 46t-75 49l95 187q47 -30 88.5 -51.5t81 -36t79.5 -21.5t84 -7
q51 0 86.5 18.5t58 47t32.5 64t10 70.5z" />
    <glyph glyph-name="T" unicode="T" horiz-adv-x="877" 
d="M315 0v1216h-304v216h855v-216h-304v-1216h-247z" />
    <glyph glyph-name="U" unicode="U" horiz-adv-x="1063" 
d="M727 1432h239v-927q0 -126 -24 -226t-76.5 -169.5t-135 -107t-199.5 -37.5t-199.5 37t-135 107t-76.5 170t-24 226v927h253v-970q0 -146 44.5 -215t144.5 -69q98 0 143.5 69t45.5 215v970z" />
    <glyph glyph-name="V" unicode="V" horiz-adv-x="977" 
d="M332 0l-321 1432h268l218 -1198l215 1198h253l-320 -1432h-313z" />
    <glyph glyph-name="W" unicode="W" horiz-adv-x="1383" 
d="M852 0l-142 906l-17 141l-20 -139l-143 -908h-283l-221 1432h246l121 -960l12 -159l173 1119h235l178 -1119l12 158l115 961h239l-222 -1432h-283z" />
    <glyph glyph-name="X" unicode="X" horiz-adv-x="985" 
d="M700 0l-212 594l-224 -594h-252l324 752l-299 680h272l188 -523l200 523h251l-295 -687l320 -745h-273z" />
    <glyph glyph-name="Y" unicode="Y" horiz-adv-x="918" 
d="M337 0v519l-337 913h268l197 -684l198 684h256l-336 -913v-519h-246z" />
    <glyph glyph-name="Z" unicode="Z" horiz-adv-x="860" 
d="M40 0v185l507 1037h-489v210h755v-185l-506 -1037h514v-210h-781z" />
    <glyph glyph-name="bracketleft" unicode="[" horiz-adv-x="549" 
d="M110 -239v1737h414v-183h-193v-1372h193v-182h-414z" />
    <glyph glyph-name="backslash" unicode="\" horiz-adv-x="694" 
d="M439 -118l-390 1699h218l390 -1699h-218z" />
    <glyph glyph-name="bracketright" unicode="]" horiz-adv-x="549" 
d="M436 -239h-415v182h193v1372h-193v183h415v-1737z" />
    <glyph glyph-name="asciicircum" unicode="^" horiz-adv-x="915" 
d="M643 749l-187 473l-188 -473h-215l294 682h222l292 -682h-218z" />
    <glyph glyph-name="underscore" unicode="_" horiz-adv-x="746" 
d="M0 -213v107h746v-107h-746z" />
    <glyph glyph-name="grave" unicode="`" horiz-adv-x="1092" 
d="M466 1575l-225 310h251l129 -310h-155z" />
    <glyph glyph-name="a" unicode="a" horiz-adv-x="862" 
d="M586 0q-4 16 -8 37t-7 42.5t-4 42t0 37.5q-15 -54 -40.5 -89.5t-59 -56.5t-73.5 -30t-83 -9q-58 0 -105.5 19.5t-81 57.5t-52 93.5t-18.5 128.5q0 88 30 151t91 104.5t153 64.5t216 31v84q0 91 -32.5 127.5t-95.5 36.5q-23 0 -55 -4t-68 -13t-73 -24t-70 -36l-61 152
q40 25 85.5 45t92.5 34t94 21t92 7q163 0 243.5 -89t80.5 -273v-397q0 -87 3 -157.5t11 -137.5h-205zM545 471q-64 -7 -113 -17t-82.5 -29t-51 -50t-17.5 -79q0 -32 7 -60t21.5 -49t36 -33.5t51.5 -12.5q38 0 66 19.5t46 54.5t27 82.5t9 104.5v69z" />
    <glyph glyph-name="b" unicode="b" horiz-adv-x="916" 
d="M107 0v1446h234v-539q13 32 36 59t54 46.5t69 30.5t81 11q146 0 211.5 -134.5t65.5 -407.5q0 -126 -15.5 -226.5t-50.5 -170t-91.5 -106.5t-137.5 -37q-38 0 -74.5 10t-68 30t-56 49.5t-39.5 67.5l-11 -129h-207zM341 514q0 -99 9 -169.5t26.5 -115.5t44 -66.5
t62.5 -21.5q76 0 106 92t30 280q0 109 -8.5 181t-25.5 114.5t-41.5 60t-55.5 17.5q-30 0 -56.5 -16t-46.5 -57.5t-32 -113.5t-12 -185z" />
    <glyph glyph-name="c" unicode="c" horiz-adv-x="825" 
d="M792 358q-6 -186 -94.5 -286t-263.5 -100q-101 0 -172.5 36t-116.5 105t-66 170t-21 231q0 271 91 405.5t288 134.5q93 0 158 -28t106.5 -77.5t62.5 -118t26 -149.5l-218 -16q-6 59 -15 101t-24 68.5t-38 39t-57 12.5q-43 0 -70.5 -24t-43 -70.5t-21.5 -116.5t-6 -161
q0 -114 9 -186.5t27 -114t44 -57t60 -15.5q32 0 55 11t39.5 38t26 71.5t14.5 111.5z" />
    <glyph glyph-name="d" unicode="d" horiz-adv-x="916" 
d="M602 0l-10 129q-31 -77 -93.5 -117t-145.5 -40q-81 0 -137.5 37t-91.5 106.5t-50.5 170t-15.5 226.5q0 273 65.5 407.5t211.5 134.5q43 0 81 -11t69 -30.5t54 -46.5t36 -59v539h234v-1446h-207zM575 514q0 113 -12 185t-32 113.5t-46.5 57.5t-55.5 16q-32 0 -56.5 -17.5
t-41.5 -60t-25.5 -114.5t-8.5 -181q0 -188 30 -280t107 -92q35 0 61.5 21.5t44 66.5t26.5 115.5t9 169.5z" />
    <glyph glyph-name="e" unicode="e" horiz-adv-x="843" 
d="M781 272q-11 -62 -34.5 -117t-64.5 -95.5t-101.5 -64t-144.5 -23.5q-111 0 -184 42.5t-116 116.5t-60.5 174.5t-17.5 217.5q0 121 19.5 219t64 167.5t117 107t178.5 37.5q186 0 271.5 -117t85.5 -357v-122h-504q0 -166 35 -241.5t113 -75.5q58 0 88 39t43 120zM567 618
q0 73 -6.5 125t-22.5 85.5t-42 49t-66 15.5q-39 0 -65 -20.5t-42 -57t-23.5 -87t-9.5 -110.5h277z" />
    <glyph glyph-name="f" unicode="f" horiz-adv-x="529" 
d="M117 0v859h-126v167h126v80q0 86 17 152t53 111t92.5 68t136.5 23q44 0 82 -2t63 -4v-173h-93q-64 0 -90.5 -40.5t-26.5 -121.5v-93h207v-167h-207v-859h-234z" />
    <glyph glyph-name="g" unicode="g" horiz-adv-x="896" 
d="M450 354q-68 0 -128 20q-20 -15 -32 -33t-12 -37q0 -28 26 -45t87 -28l110 -21q79 -15 142 -39.5t106.5 -61t66.5 -86t23 -113.5q0 -54 -21.5 -109.5t-69.5 -101t-125.5 -74.5t-189.5 -29q-94 0 -166 20t-120.5 54t-73.5 79t-25 94q0 45 18 83.5t46 68t63 50t69 30.5
q-48 15 -79 36t-49 44.5t-25 47t-7 44.5q0 32 11.5 60.5t30 52.5t42.5 43t48 32q-56 48 -86 117.5t-30 152.5q0 76 24.5 140t70 110.5t110.5 72.5t145 26q87 0 156 -30q17 64 62 102.5t104 38.5q24 0 46.5 -1t43.5 -3v-153h-59q-38 0 -59.5 -12t-35.5 -41q46 -47 70.5 -110
t24.5 -140q0 -78 -25 -142.5t-70.5 -111t-111 -72t-146.5 -25.5zM450 508q66 0 101 54t35 143q0 88 -36.5 141t-99.5 53t-97.5 -52t-34.5 -142t33 -143.5t99 -53.5zM383 47q-20 -7 -44 -20.5t-45 -33t-35.5 -44.5t-14.5 -56q0 -64 45 -102.5t133 -38.5t137.5 40t49.5 106
q0 55 -39 89.5t-124 48.5z" />
    <glyph glyph-name="h" unicode="h" horiz-adv-x="929" 
d="M604 0v707q0 30 -3.5 60t-15.5 54.5t-33.5 39.5t-57.5 15q-70 0 -111.5 -73t-41.5 -218v-585h-234v1446h234v-574q23 88 88.5 135t163.5 47q57 0 97.5 -17.5t67.5 -45.5t43 -63t24 -71.5t10.5 -70.5t2.5 -59v-727h-234z" />
    <glyph glyph-name="i" unicode="i" horiz-adv-x="438" 
d="M102 0v1026h234v-1026h-234zM100 1217v215h239v-215h-239z" />
    <glyph glyph-name="j" unicode="j" horiz-adv-x="438" 
d="M102 1026h234v-991q0 -79 -5.5 -150.5t-30 -126t-74 -86.5t-137.5 -32q-29 0 -59.5 1t-58 2.5t-50.5 4t-37 4.5v174h132q86 -2 86 120v1080zM100 1217v215h239v-215h-239z" />
    <glyph glyph-name="k" unicode="k" horiz-adv-x="887" 
d="M626 0l-185 485l-100 -158v-327h-234v1446h234v-870l276 450h236l-250 -373l267 -653h-244z" />
    <glyph glyph-name="l" unicode="l" horiz-adv-x="447" 
d="M107 0v1446h234v-1446h-234z" />
    <glyph glyph-name="m" unicode="m" horiz-adv-x="1345" 
d="M1019 0v726q0 44 -7 73t-18.5 46t-27 24t-33.5 7q-28 0 -53 -15.5t-44 -45.5t-30.5 -73.5t-11.5 -100.5v-641h-234v712q0 45 -7 76t-18.5 50.5t-27 28.5t-32.5 9q-28 0 -53 -16.5t-44 -49.5t-30.5 -82.5t-11.5 -116.5v-611h-234v1026h218v-163q7 27 25 60.5t48.5 62.5
t75 48.5t104.5 19.5q76 0 129 -48t72 -141q36 90 98 139.5t150 49.5q112 0 171.5 -84t59.5 -233v-737h-234z" />
    <glyph glyph-name="n" unicode="n" horiz-adv-x="924" 
d="M598 0v700q0 33 -3.5 64.5t-15 56t-33 40t-57.5 15.5q-70 0 -111.5 -73t-41.5 -218v-585h-234v1026h218v-168q27 95 98 145.5t165 50.5q57 0 97.5 -17.5t68.5 -45.5t44.5 -64t25.5 -73t11.5 -72.5t2.5 -62.5v-719h-235z" />
    <glyph glyph-name="o" unicode="o" horiz-adv-x="877" 
d="M439 -28q-111 0 -184 41t-117 113.5t-62 171.5t-18 215t18 215t62 171.5t117.5 113.5t183.5 41q109 0 182.5 -41t117.5 -113t62.5 -171t18.5 -215t-18.5 -215.5t-62.5 -172t-117 -113.5t-183 -41zM439 141q39 0 65.5 20t43.5 64t24.5 115t7.5 173t-7.5 173t-24 115.5
t-43.5 64.5t-66 20t-66.5 -20t-44 -64.5t-24 -115.5t-7.5 -173t7.5 -173t24.5 -115t44 -64t66 -20z" />
    <glyph glyph-name="p" unicode="p" horiz-adv-x="911" 
d="M320 1026v-141q13 39 37.5 70.5t56 53t69 33.5t77.5 12q80 0 135.5 -37t90.5 -106.5t51 -170t16 -226.5q0 -273 -66 -407.5t-211 -134.5q-43 0 -81 11t-69.5 30.5t-54.5 46.5t-35 59v-466h-234v1373h218zM336 513q0 -113 12 -185.5t32 -114t46.5 -57t55.5 -15.5
q32 0 57 17t41.5 59.5t25 114t8.5 181.5q0 187 -28.5 280t-98.5 93q-39 0 -67.5 -21.5t-47 -67t-27.5 -116t-9 -168.5z" />
    <glyph glyph-name="q" unicode="q" horiz-adv-x="911" 
d="M809 1026v-1373h-234v466q-13 -32 -36 -59t-54 -46.5t-69 -30.5t-81 -11q-146 0 -211.5 134.5t-65.5 407.5q0 126 15.5 226.5t50.5 170t91 106.5t138 37q40 0 77 -12t68.5 -33.5t55 -53t37.5 -70.5v141h218zM575 513q0 98 -9 168.5t-27.5 116t-47.5 67t-68 21.5
q-67 0 -96.5 -92t-29.5 -281q0 -110 9 -181.5t26 -114t41.5 -59.5t55.5 -17q29 0 55.5 15.5t46.5 57t32 114t12 185.5z" />
    <glyph glyph-name="r" unicode="r" horiz-adv-x="654" 
d="M102 0v1026h220v-181q27 86 87.5 135.5t148.5 49.5h87v-169h-64q-56 0 -96 -19t-67 -49.5t-43 -69t-24.5 -78.5t-11 -77t-2.5 -64l-1 -504h-234z" />
    <glyph glyph-name="s" unicode="s" horiz-adv-x="787" 
d="M278 468q-47 21 -85 47t-65 60.5t-42 79.5t-15 103q0 67 24 121.5t66.5 93.5t100 60t125.5 21q52 0 97.5 -8.5t85.5 -25.5t76 -42.5t70 -59.5l-104 -137q-51 49 -100.5 73.5t-104.5 24.5q-24 0 -44.5 -6.5t-36 -20.5t-24.5 -35.5t-9 -51.5q0 -50 25 -80.5t80 -54.5
l104 -47q66 -29 110.5 -60.5t72 -68t39.5 -78t12 -89.5q0 -72 -22.5 -130.5t-67 -99.5t-109.5 -63t-149 -22q-59 0 -111 13t-97.5 34.5t-83 49t-67.5 57.5l103 144q18 -20 45.5 -41.5t59.5 -39.5t67.5 -30t69.5 -12q62 0 100.5 31.5t38.5 93.5q0 25 -6 45t-21 37.5t-41.5 34
t-66.5 33.5z" />
    <glyph glyph-name="t" unicode="t" horiz-adv-x="603" 
d="M577 -20q-13 -1 -36.5 -2.5t-49 -2.5t-50 -2t-40.5 -1q-77 0 -130.5 23t-88 67t-50 108.5t-15.5 147.5v541h-126v167h126v276l234 37v-313h207v-167h-207v-562q0 -134 108 -134h118v-183z" />
    <glyph glyph-name="u" unicode="u" horiz-adv-x="932" 
d="M332 1026v-700q0 -33 3.5 -64.5t15.5 -56t33.5 -40t57.5 -15.5q69 0 111 73t42 219v584h233v-1026h-218v168q-13 -47 -38.5 -83.5t-60 -61.5t-77.5 -38t-91 -13q-57 0 -97 17.5t-67.5 45.5t-43.5 64t-24 73.5t-10.5 72.5t-2.5 62v719h234z" />
    <glyph glyph-name="v" unicode="v" horiz-adv-x="780" 
d="M241 0l-244 1026h236l135 -677l28 -170l29 170l135 677h222l-244 -1026h-297z" />
    <glyph glyph-name="w" unicode="w" horiz-adv-x="1163" 
d="M701 0l-105 615l-15 106l-13 -106l-105 -615h-272l-176 1026h229l86 -745l9 -63l11 63l114 745h236l114 -745l12 -63l7 64l86 744h229l-175 -1026h-272z" />
    <glyph glyph-name="x" unicode="x" horiz-adv-x="810" 
d="M553 0l-154 375l-154 -375h-238l259 528l-241 498h248l137 -343l136 343h237l-240 -486l261 -540h-251z" />
    <glyph glyph-name="y" unicode="y" horiz-adv-x="788" 
d="M310 2l-309 1024h249l158 -803l146 803h235l-263 -1029q-29 -113 -60 -183.5t-69 -109.5t-85.5 -52.5t-110.5 -13.5q-53 0 -90.5 2.5t-60.5 4.5v167h110q27 0 47 7.5t36 23.5t28.5 41.5t24.5 60.5z" />
    <glyph glyph-name="z" unicode="z" horiz-adv-x="746" 
d="M41 0v152l396 693h-375v181h623v-149l-397 -694h398v-183h-645z" />
    <glyph glyph-name="braceleft" unicode="{" horiz-adv-x="615" 
d="M487 -242q-98 0 -158 21t-93 69t-44 126t-11 193v205q0 50 -5.5 82t-20.5 51.5t-40.5 29t-64.5 13.5v178q41 0 66.5 10.5t40 32t19.5 54t5 76.5v225q0 104 10.5 177t41.5 119.5t87 67.5t146 21h101v-183h-54q-39 0 -62 -9t-35 -31t-15.5 -59t-3.5 -93v-220
q0 -47 -3.5 -90.5t-17.5 -79.5t-42 -63.5t-78 -42.5q51 -18 79.5 -46t42 -65.5t16.5 -84t3 -103.5v-244q0 -47 6 -76.5t19.5 -46.5t36 -23.5t55.5 -6.5h55v-184h-82z" />
    <glyph glyph-name="bar" unicode="|" horiz-adv-x="446" 
d="M118 -382v1829h211v-1829h-211z" />
    <glyph glyph-name="braceright" unicode="}" horiz-adv-x="611" 
d="M43 -242v184h56q33 0 55 6.5t35.5 23.5t19 46.5t5.5 76.5v244q0 57 3 103.5t17 84t42.5 65.5t79.5 46q-50 15 -78.5 42.5t-42.5 63.5t-17.5 79.5t-3.5 90.5v220q0 56 -3 93t-15 59t-34.5 31t-61.5 9h-54v183h100q91 0 146.5 -21t86 -67.5t41 -119.5t10.5 -177v-225
q0 -44 5.5 -76.5t20 -54t40 -32t65.5 -10.5v-178q-39 -4 -64.5 -13.5t-40.5 -29t-20.5 -51.5t-5.5 -82v-205q0 -115 -11 -193t-44 -126t-93 -69t-157 -21h-82z" />
    <glyph glyph-name="asciitilde" unicode="~" horiz-adv-x="969" 
d="M899 802q-5 -90 -24 -155t-49.5 -106.5t-73 -61t-93.5 -19.5q-53 0 -98.5 26t-95.5 64q-38 29 -68 47.5t-59 18.5q-46 0 -73.5 -34.5t-32.5 -109.5l-164 23q10 173 73 254.5t162 81.5q23 0 47 -8t48.5 -21t49 -28.5t47.5 -31.5q39 -27 74.5 -48t62.5 -21q45 0 74 40
t31 114z" />
    <glyph glyph-name="exclamdown" unicode="&#xa1;" horiz-adv-x="448" 
d="M278 594l63 -456v-529h-248v528l64 457h121zM338 1026v-290h-243v290h243z" />
    <glyph glyph-name="cent" unicode="&#xa2;" horiz-adv-x="825" 
d="M368 -206v183q-83 11 -142 52t-96.5 109t-54.5 162.5t-17 213.5q0 246 74.5 379t235.5 156v162h151v-164q70 -12 119.5 -43.5t81.5 -79.5t48.5 -110t21.5 -133l-218 -16q-6 59 -15 101t-24 68.5t-38 39t-57 12.5q-43 0 -70.5 -24t-43 -70.5t-21.5 -116.5t-6 -161
q0 -114 9 -186.5t27 -114t44 -57t60 -15.5q32 0 55 11t39.5 38t26 71.5t14.5 111.5l220 -15q-5 -163 -72.5 -259.5t-200.5 -119.5v-185h-151z" />
    <glyph glyph-name="sterling" unicode="&#xa3;" horiz-adv-x="1184" 
d="M840 -28q-78 0 -153 33t-153 90q-42 -57 -105 -90t-149 -33q-54 0 -98 15.5t-75 43t-48 66t-17 85.5q0 45 14.5 85.5t42.5 70.5t69.5 47.5t96.5 17.5q40 0 80 -9.5t82 -26.5q2 64 -8 131.5t-31 128.5h-162v159h117q-14 53 -26 108t-12 126q0 77 21 150.5t66.5 130.5
t118 92t176.5 35q83 0 153.5 -19.5t122 -65t80.5 -121.5t29 -189l-187 -36q-3 63 -18 107.5t-39 72.5t-54 41t-63 13q-48 0 -81.5 -15t-54.5 -42.5t-30 -67t-9 -87.5q0 -54 10.5 -112t27.5 -121h294v-159h-264q23 -89 25.5 -185.5t-20.5 -184.5q29 -21 55.5 -39.5t53 -32
t53 -21.5t56.5 -8q38 0 64.5 9t44.5 26t30 40.5t23 52.5l160 -40q-7 -72 -37.5 -123.5t-74 -84.5t-95 -48.5t-102.5 -15.5zM287 123q37 0 64 22.5t44 60.5q-35 25 -60.5 35t-49.5 10q-35 0 -50.5 -19t-15.5 -45q0 -31 19 -47.5t49 -16.5z" />
    <glyph glyph-name="currency" unicode="&#xa4;" horiz-adv-x="941" 
d="M757 159l-95 105q-80 -51 -188 -51q-112 0 -192 52l-96 -108l-126 112l98 113q-17 26 -27.5 59t-17 70t-9 76.5t-2.5 78.5q0 76 12 142t44 119l-98 111l126 114l95 -109q82 51 193 51q107 0 187 -48l96 106l125 -114l-95 -106q35 -57 47 -128t12 -159q0 -79 -13.5 -149
t-44.5 -119l94 -106zM474 374q51 0 85 18.5t54.5 55.5t29 93.5t8.5 131.5q0 136 -44 198t-133 62q-50 0 -84 -17.5t-55 -54t-30 -92.5t-9 -134q0 -134 44 -197.5t134 -63.5z" />
    <glyph glyph-name="yen" unicode="&#xa5;" horiz-adv-x="932" 
d="M114 619h200l-308 813h269l197 -657l197 657h256l-309 -813h212v-118h-240v-105h240v-118h-240v-278h-246v278h-228v118h228v105h-228v118z" />
    <glyph glyph-name="brokenbar" unicode="&#xa6;" horiz-adv-x="446" 
d="M118 635v812h211v-812h-211zM118 -383v812h211v-812h-211z" />
    <glyph glyph-name="section" unicode="&#xa7;" horiz-adv-x="809" 
d="M529 81q0 62 -27.5 100.5t-70 65.5t-94 47.5t-99.5 46.5q-100 50 -144 118.5t-44 161.5q0 95 43 161.5t125 101.5q-82 48 -117.5 116.5t-35.5 152.5q0 69 23 124.5t66.5 94.5t107 60t145.5 21q83 0 142 -19.5t98 -58.5t61.5 -97t33.5 -134l-195 -32q-5 39 -12.5 73
t-22.5 59.5t-40 40.5t-65 15q-60 0 -91.5 -38.5t-31.5 -98.5q0 -45 17.5 -77t46.5 -56.5t68 -44t81 -38.5q73 -31 123.5 -63.5t82 -70t45.5 -82t14 -101.5q0 -94 -40 -163.5t-118 -105.5q40 -26 68.5 -53.5t46.5 -58.5t26 -67t8 -79q0 -152 -89 -237.5t-259 -85.5
q-93 0 -158.5 23t-107.5 66.5t-63.5 107.5t-27.5 145l189 23q6 -60 21 -100t36.5 -64t48.5 -34t59 -10q62 0 93.5 37.5t33.5 106.5zM256 643q0 -42 15.5 -73.5t42 -55t62 -41t76.5 -33.5q45 9 74.5 51.5t29.5 105.5q0 74 -46.5 123.5t-144.5 82.5q-62 -17 -85.5 -58
t-23.5 -102z" />
    <glyph glyph-name="dieresis" unicode="&#xa8;" horiz-adv-x="1092" 
d="M204 1576v193h202v-193h-202zM533 1576v193h201v-193h-201z" />
    <glyph glyph-name="copyright" unicode="&#xa9;" horiz-adv-x="1340" 
d="M960 620q-3 -181 -74.5 -266t-216.5 -85q-82 0 -140 29.5t-95 86.5t-54 139.5t-17 189.5q0 224 74 333t235 109q78 0 132 -24t88.5 -67.5t50 -104t16.5 -134.5l-180 -18q1 112 -24 162t-84 50q-38 0 -60.5 -19.5t-35 -58.5t-16.5 -96t-4 -132q0 -93 7 -153t21.5 -94.5
t36.5 -48t52 -13.5q62 0 84 58.5t24 174.5zM665 -16q-143 0 -253 49t-185 144t-113.5 233t-38.5 317q0 148 31 279t100.5 229.5t182 155.5t275.5 57t275.5 -54.5t182 -150.5t100.5 -228t31 -288q0 -161 -30.5 -297t-100 -235t-182 -155t-275.5 -56zM666 95q117 0 204.5 42
t145.5 122.5t86.5 198t28.5 269.5q0 125 -26.5 236t-83 194t-144 131t-210.5 48t-211.5 -46.5t-145.5 -128.5t-84 -193.5t-27 -240.5q0 -136 22 -251.5t76 -200t144 -132.5t225 -48z" />
    <glyph glyph-name="ordfeminine" unicode="&#xaa;" horiz-adv-x="571" 
d="M363 777q-1 22 -3 50t-1 48q-10 -33 -26 -55t-37 -35t-46.5 -18.5t-52.5 -5.5q-75 0 -119 48.5t-44 141.5q0 110 75 164.5t233 65.5v33q0 61 -19.5 84t-48.5 23q-35 0 -50 -25t-17 -71h-154q3 62 24 104t54 67.5t74.5 36.5t83.5 11q108 0 166 -66.5t58 -185.5v-239
q0 -55 2.5 -96.5t7.5 -79.5h-160zM343 1071q-34 -5 -60.5 -11.5t-45 -18t-28 -29t-9.5 -43.5q0 -35 14.5 -61.5t47.5 -26.5q22 0 37 10.5t25 29.5t14.5 44.5t4.5 54.5v51z" />
    <glyph glyph-name="guillemotleft" unicode="&#xab;" horiz-adv-x="909" 
d="M627 97l-214 437l216 436h224l-219 -437l217 -436h-224zM250 97l-214 437l216 436h224l-218 -437l216 -436h-224z" />
    <glyph glyph-name="logicalnot" unicode="&#xac;" horiz-adv-x="969" 
d="M640 291v332h-523v198h724v-530h-201z" />
    <glyph glyph-name="registered" unicode="&#xae;" horiz-adv-x="905" 
d="M505 783l-55 175h-43v-175h-95v460h128q80 0 115 -38t35 -107q0 -42 -11.5 -69.5t-43.5 -44.5l72 -201h-102zM437 1034q30 0 42.5 15.5t12.5 49.5q0 38 -12.5 51t-47.5 13h-25v-129h30zM447 556q-87 0 -154.5 30t-113 87.5t-69.5 141.5t-24 193q0 90 19 170t61.5 140
t111 94.5t167.5 34.5q100 0 168.5 -33t111.5 -92t62 -139.5t19 -174.5q0 -98 -18.5 -181t-61 -143t-111 -94t-168.5 -34zM447 663q127 0 189 90t62 254q0 68 -14.5 128.5t-45 105.5t-78 71.5t-113.5 26.5t-114 -25.5t-78.5 -70.5t-45.5 -105.5t-15 -130.5q0 -73 12 -135.5
t41 -109t77.5 -73t122.5 -26.5z" />
    <glyph glyph-name="macron" unicode="&#xaf;" horiz-adv-x="1092" 
d="M184 1577v174h508v-174h-508z" />
    <glyph glyph-name="degree" unicode="&#xb0;" horiz-adv-x="605" 
d="M560 1146q0 -59 -19 -108t-53 -84t-81.5 -54.5t-104.5 -19.5q-61 0 -109 20.5t-81.5 58t-51 90.5t-17.5 117q0 60 18.5 110t52 85.5t81.5 55.5t107 20q62 0 110 -21t81 -59.5t50 -92t17 -118.5zM302 1018q57 0 80.5 38.5t23.5 106.5q0 65 -25 100.5t-79 35.5
q-56 0 -81.5 -38t-25.5 -104q0 -64 26 -101.5t81 -37.5z" />
    <glyph glyph-name="plusminus" unicode="&#xb1;" horiz-adv-x="928" 
d="M78 0v197h285v267h-285v197h285v311h202v-311h284v-197h-284v-267h284v-197h-771z" />
    <glyph glyph-name="twosuperior" unicode="&#xb2;" 
d="M477 261l936 945q186 -239 186 -476q0 -135 -42.5 -256t-124.5 -213h-955zM337 238q-88 111 -133 233t-45 259q0 58 10 119.5t31 120.5t52.5 112t73.5 95h948zM400 180h960q-117 -93 -236.5 -137t-246.5 -44q-139 0 -258 48t-219 133zM1360 1263h-969q116 87 236.5 134.5
t249.5 47.5q74 0 137 -15t121 -40.5t113 -58.5t112 -68z" />
    <glyph glyph-name="threesuperior" unicode="&#xb3;" 
d="M477 261l936 945q186 -239 186 -476q0 -135 -42.5 -256t-124.5 -213h-955zM337 238q-88 111 -133 233t-45 259q0 58 10 119.5t31 120.5t52.5 112t73.5 95h948zM400 180h960q-117 -93 -236.5 -137t-246.5 -44q-139 0 -258 48t-219 133zM1360 1263h-969q116 87 236.5 134.5
t249.5 47.5q74 0 137 -15t121 -40.5t113 -58.5t112 -68z" />
    <glyph glyph-name="acute" unicode="&#xb4;" horiz-adv-x="1092" 
d="M234 1575l129 310h252l-226 -310h-155z" />
    <glyph glyph-name="paragraph" unicode="&#xb6;" horiz-adv-x="1119" 
d="M783 -383v1649h-149v-1649h-174v966q-85 4 -157.5 31t-125 78.5t-82 128t-29.5 180.5q0 105 36.5 185.5t102 135t155 82.5t195.5 28h401l2 -1815h-175z" />
    <glyph glyph-name="periodcentered" unicode="&#xb7;" horiz-adv-x="401" 
d="M87 379v310h229v-310h-229z" />
    <glyph glyph-name="cedilla" unicode="&#xb8;" horiz-adv-x="1092" 
d="M233 -264q10 -6 25 -13t32.5 -12t36 -8.5t35.5 -3.5q33 0 54 17t21 46t-17.5 47t-41.5 18q-23 0 -34 -8.5t-19 -16.5l-86 13l41 194l140 -5l-41 -117q11 10 24.5 15t44.5 5q68 0 108 -43t40 -111q0 -40 -16 -72t-44.5 -54t-67.5 -33.5t-86 -11.5q-59 0 -105 16t-69 35z
" />
    <glyph glyph-name="onesuperior" unicode="&#xb9;" 
d="M477 261l936 945q186 -239 186 -476q0 -135 -42.5 -256t-124.5 -213h-955zM337 238q-88 111 -133 233t-45 259q0 58 10 119.5t31 120.5t52.5 112t73.5 95h948zM400 180h960q-117 -93 -236.5 -137t-246.5 -44q-139 0 -258 48t-219 133zM1360 1263h-969q116 87 236.5 134.5
t249.5 47.5q74 0 137 -15t121 -40.5t113 -58.5t112 -68z" />
    <glyph glyph-name="ordmasculine" unicode="&#xba;" horiz-adv-x="544" 
d="M272 814q-69 0 -114.5 24t-73 67.5t-39 103t-11.5 130.5q0 72 11.5 131.5t39 103t73.5 67.5t114 24t113.5 -24t73 -67t39 -102.5t11.5 -131.5q0 -71 -11.5 -131t-39 -103.5t-73 -67.5t-113.5 -24zM272 927q21 0 35.5 10.5t23 35t12 65t3.5 101.5t-3.5 102t-12 66
t-22.5 35t-36 10t-36.5 -10t-23 -35t-12 -66t-3.5 -102q0 -60 3.5 -101t12 -65.5t23 -35t36.5 -10.5z" />
    <glyph glyph-name="guillemotright" unicode="&#xbb;" horiz-adv-x="909" 
d="M38 97l216 436l-218 437h224l216 -436l-214 -437h-224zM415 97l216 436l-218 437h223l217 -436l-215 -437h-223z" />
    <glyph glyph-name="questiondown" unicode="&#xbf;" horiz-adv-x="805" 
d="M547 614v-57q0 -53 -10 -95t-28 -80t-43.5 -74.5t-56.5 -78.5q-33 -38 -58.5 -72.5t-43 -69t-27 -72.5t-9.5 -83q0 -34 5.5 -64.5t20.5 -53t43 -36t73 -13.5q31 0 58 9t47.5 35t31.5 73t10 123l204 -7q8 -106 -9 -187.5t-61 -137t-116 -84.5t-174 -29q-177 0 -272 90.5
t-95 266.5q0 50 9 92.5t26 81.5t41 77t55 78q34 46 62.5 81t49 70.5t32 75.5t11.5 96v45h224zM555 1026v-290h-243v290h243z" />
    <glyph glyph-name="Agrave" unicode="&#xc0;" horiz-adv-x="1028" 
d="M679 364h-344l-73 -364h-239l335 1432h312l336 -1432h-253zM373 552h268l-134 668zM432 1577l-225 310h251l129 -310h-155z" />
    <glyph glyph-name="Aacute" unicode="&#xc1;" horiz-adv-x="1028" 
d="M679 364h-344l-73 -364h-239l335 1432h312l336 -1432h-253zM373 552h268l-134 668zM430 1578l129 310h252l-226 -310h-155z" />
    <glyph glyph-name="Acircumflex" unicode="&#xc2;" horiz-adv-x="1028" 
d="M679 364h-344l-73 -364h-239l335 1432h312l336 -1432h-253zM373 552h268l-134 668zM622 1861l180 -282h-186l-105 173l-106 -173h-188l183 282h222z" />
    <glyph glyph-name="Atilde" unicode="&#xc3;" horiz-adv-x="1028" 
d="M679 364h-344l-73 -364h-239l335 1432h312l336 -1432h-253zM373 552h268l-134 668zM201 1601q2 121 49.5 182.5t128.5 61.5q25 0 45 -6t37 -15.5t32.5 -21.5t32.5 -23q27 -20 45 -30t36 -10q16 0 28 8.5t19.5 22.5t11.5 32t4 37l142 -18q-5 -117 -50 -180t-129 -63
q-26 0 -46.5 6.5t-38.5 17t-34 23t-33 24.5q-14 9 -33.5 22t-42.5 13q-17 0 -28.5 -9t-19 -23t-11.5 -32t-5 -36z" />
    <glyph glyph-name="Adieresis" unicode="&#xc4;" horiz-adv-x="1028" 
d="M679 364h-344l-73 -364h-239l335 1432h312l336 -1432h-253zM373 552h268l-134 668zM247 1579v193h202v-193h-202zM576 1579v193h201v-193h-201z" />
    <glyph glyph-name="Aring" unicode="&#xc5;" horiz-adv-x="1028" 
d="M679 364h-344l-73 -364h-239l335 1432h312l336 -1432h-253zM373 552h268l-134 668zM515 1337q-45 0 -83 15.5t-65 44t-42.5 67.5t-15.5 87t15.5 87t42.5 67t65 43t83 15q46 0 84 -15t65.5 -43t42.5 -67t15 -87t-15 -87t-42.5 -67.5t-65.5 -44t-84 -15.5zM515 1458
q35 0 55 25t20 68q0 41 -20 66t-55 25t-55 -25t-20 -66q0 -43 20 -68t55 -25z" />
    <glyph glyph-name="AE" unicode="&#xc6;" horiz-adv-x="1503" 
d="M760 0v344h-367l-148 -344h-261l653 1432h800v-210h-429v-389h365v-200h-365v-423h437v-210h-685zM760 532v667l-287 -667h287z" />
    <glyph glyph-name="Ccedilla" unicode="&#xc7;" horiz-adv-x="1040" 
d="M983 493q-6 -125 -34 -223.5t-81.5 -166t-135 -103t-195.5 -35.5q-233 0 -348.5 191t-115.5 561q0 369 115.5 559t354.5 190q111 0 191 -35.5t133 -103t81.5 -166t34.5 -223.5l-232 -19q-7 74 -20 135.5t-36 106t-58.5 69t-87.5 24.5q-69 0 -111.5 -44t-66 -120.5
t-32 -180t-8.5 -222.5q0 -120 11 -214.5t37 -160.5t68 -100.5t104 -34.5q51 0 86 24.5t58.5 69t36.5 106t19 135.5zM416 -299q10 -6 25 -13t32.5 -12t36 -8.5t35.5 -3.5q33 0 54 17t21 46t-17.5 47t-41.5 18q-23 0 -34 -8.5t-19 -16.5l-86 13l41 194l140 -5l-41 -117
q11 10 24.5 15t44.5 5q68 0 108 -43t40 -111q0 -40 -16 -72t-44.5 -54t-67.5 -33.5t-86 -11.5q-59 0 -105 16t-69 35z" />
    <glyph glyph-name="Egrave" unicode="&#xc8;" horiz-adv-x="894" 
d="M118 0v1432h705v-210h-458v-376h393v-200h-393v-436h465v-210h-712zM400 1574l-225 310h251l129 -310h-155z" />
    <glyph glyph-name="Eacute" unicode="&#xc9;" horiz-adv-x="894" 
d="M118 0v1432h705v-210h-458v-376h393v-200h-393v-436h465v-210h-712zM398 1575l129 310h252l-226 -310h-155z" />
    <glyph glyph-name="Ecircumflex" unicode="&#xca;" horiz-adv-x="894" 
d="M118 0v1432h705v-210h-458v-376h393v-200h-393v-436h465v-210h-712zM589 1858l180 -282h-186l-105 173l-106 -173h-188l183 282h222z" />
    <glyph glyph-name="Edieresis" unicode="&#xcb;" horiz-adv-x="894" 
d="M118 0v1432h705v-210h-458v-376h393v-200h-393v-436h465v-210h-712zM215 1576v193h202v-193h-202zM544 1576v193h201v-193h-201z" />
    <glyph glyph-name="Igrave" unicode="&#xcc;" horiz-adv-x="483" 
d="M118 0v1432h247v-1432h-247zM163 1576l-225 310h251l129 -310h-155z" />
    <glyph glyph-name="Iacute" unicode="&#xcd;" horiz-adv-x="483" 
d="M118 0v1432h247v-1432h-247zM160 1577l129 310h252l-226 -310h-155z" />
    <glyph glyph-name="Icircumflex" unicode="&#xce;" horiz-adv-x="483" 
d="M118 0v1432h247v-1432h-247zM351 1860l180 -282h-186l-105 173l-106 -173h-188l183 282h222z" />
    <glyph glyph-name="Idieresis" unicode="&#xcf;" horiz-adv-x="483" 
d="M118 0v1432h247v-1432h-247zM-23 1578v193h202v-193h-202zM306 1578v193h201v-193h-201z" />
    <glyph glyph-name="Eth" unicode="&#xd0;" horiz-adv-x="1083" 
d="M118 0v601h-116v224h116v607h372q146 0 245.5 -46.5t160 -137t87 -223t26.5 -304.5q0 -174 -27 -308t-89 -226t-162 -139.5t-245 -47.5h-368zM490 210q86 0 138 42t79.5 117t36 178t8.5 225q0 113 -13.5 197.5t-44 140.5t-80 84t-122.5 28h-130v-397h137v-224h-137v-391
h128z" />
    <glyph glyph-name="Ntilde" unicode="&#xd1;" horiz-adv-x="1112" 
d="M740 0l-368 890l-61 162l22 -173v-879h-215v1432h255l367 -890l62 -164l-23 173v881h215v-1432h-254zM267 1600q2 121 49.5 182.5t128.5 61.5q25 0 45 -6t37 -15.5t32.5 -21.5t32.5 -23q27 -20 45 -30t36 -10q16 0 28 8.5t19.5 22.5t11.5 32t4 37l142 -18
q-5 -117 -50 -180t-129 -63q-26 0 -46.5 6.5t-38.5 17t-34 23t-33 24.5q-14 9 -33.5 22t-42.5 13q-17 0 -28.5 -9t-19 -23t-11.5 -32t-5 -36z" />
    <glyph glyph-name="Ograve" unicode="&#xd2;" horiz-adv-x="1105" 
d="M552 -35q-246 0 -362.5 191t-116.5 558q0 370 117 561t364 191q244 0 361 -191.5t117 -562.5q0 -183 -28.5 -322.5t-87.5 -234t-149.5 -142.5t-214.5 -48zM553 178q63 0 105.5 33.5t68.5 100t37 167t11 235.5t-11.5 236.5t-37.5 168.5t-68.5 100.5t-104.5 33.5
t-104.5 -33.5t-68.5 -101t-37.5 -168.5t-11.5 -237q0 -134 11 -234.5t37 -167.5t68.5 -100t105.5 -33zM477 1574l-225 310h251l129 -310h-155z" />
    <glyph glyph-name="Oacute" unicode="&#xd3;" horiz-adv-x="1105" 
d="M552 -35q-246 0 -362.5 191t-116.5 558q0 370 117 561t364 191q244 0 361 -191.5t117 -562.5q0 -183 -28.5 -322.5t-87.5 -234t-149.5 -142.5t-214.5 -48zM553 178q63 0 105.5 33.5t68.5 100t37 167t11 235.5t-11.5 236.5t-37.5 168.5t-68.5 100.5t-104.5 33.5
t-104.5 -33.5t-68.5 -101t-37.5 -168.5t-11.5 -237q0 -134 11 -234.5t37 -167.5t68.5 -100t105.5 -33zM476 1575l129 310h252l-226 -310h-155z" />
    <glyph glyph-name="Ocircumflex" unicode="&#xd4;" horiz-adv-x="1105" 
d="M552 -35q-246 0 -362.5 191t-116.5 558q0 370 117 561t364 191q244 0 361 -191.5t117 -562.5q0 -183 -28.5 -322.5t-87.5 -234t-149.5 -142.5t-214.5 -48zM553 178q63 0 105.5 33.5t68.5 100t37 167t11 235.5t-11.5 236.5t-37.5 168.5t-68.5 100.5t-104.5 33.5
t-104.5 -33.5t-68.5 -101t-37.5 -168.5t-11.5 -237q0 -134 11 -234.5t37 -167.5t68.5 -100t105.5 -33zM667 1858l180 -282h-186l-105 173l-106 -173h-188l183 282h222z" />
    <glyph glyph-name="Otilde" unicode="&#xd5;" horiz-adv-x="1105" 
d="M552 -35q-246 0 -362.5 191t-116.5 558q0 370 117 561t364 191q244 0 361 -191.5t117 -562.5q0 -183 -28.5 -322.5t-87.5 -234t-149.5 -142.5t-214.5 -48zM553 178q63 0 105.5 33.5t68.5 100t37 167t11 235.5t-11.5 236.5t-37.5 168.5t-68.5 100.5t-104.5 33.5
t-104.5 -33.5t-68.5 -101t-37.5 -168.5t-11.5 -237q0 -134 11 -234.5t37 -167.5t68.5 -100t105.5 -33zM247 1598q2 121 49.5 182.5t128.5 61.5q25 0 45 -6t37 -15.5t32.5 -21.5t32.5 -23q27 -20 45 -30t36 -10q16 0 28 8.5t19.5 22.5t11.5 32t4 37l142 -18q-5 -117 -50 -180
t-129 -63q-26 0 -46.5 6.5t-38.5 17t-34 23t-33 24.5q-14 9 -33.5 22t-42.5 13q-17 0 -28.5 -9t-19 -23t-11.5 -32t-5 -36z" />
    <glyph glyph-name="Odieresis" unicode="&#xd6;" horiz-adv-x="1105" 
d="M552 -35q-246 0 -362.5 191t-116.5 558q0 370 117 561t364 191q244 0 361 -191.5t117 -562.5q0 -183 -28.5 -322.5t-87.5 -234t-149.5 -142.5t-214.5 -48zM553 178q63 0 105.5 33.5t68.5 100t37 167t11 235.5t-11.5 236.5t-37.5 168.5t-68.5 100.5t-104.5 33.5
t-104.5 -33.5t-68.5 -101t-37.5 -168.5t-11.5 -237q0 -134 11 -234.5t37 -167.5t68.5 -100t105.5 -33zM292 1576v193h202v-193h-202zM621 1576v193h201v-193h-201z" />
    <glyph glyph-name="multiply" unicode="&#xd7;" horiz-adv-x="928" 
d="M674 184l-216 216l-210 -209l-139 139l210 209l-209 209l142 142l210 -208l210 209l138 -139l-210 -209l217 -216z" />
    <glyph glyph-name="Oslash" unicode="&#xd8;" horiz-adv-x="1105" 
d="M288 -112l31 136q-126 78 -186 250.5t-60 439.5q0 370 117 561t364 191q48 0 94 -8l30 130l137 -37l-33 -143q128 -76 189 -250t61 -446q0 -183 -28.5 -322.5t-87.5 -234t-149.5 -142.5t-214.5 -48q-53 0 -98 9l-28 -123zM553 178q63 0 105.5 33.5t68.5 100t37 167
t11 235.5q0 144 -13 249t-43 172l-217 -951q22 -6 51 -6zM331 713q0 -140 11.5 -242t40.5 -169l217 945q-23 6 -47 6q-62 0 -104.5 -33.5t-68.5 -101t-37.5 -168.5t-11.5 -237z" />
    <glyph glyph-name="Ugrave" unicode="&#xd9;" horiz-adv-x="1063" 
d="M727 1432h239v-927q0 -126 -24 -226t-76.5 -169.5t-135 -107t-199.5 -37.5t-199.5 37t-135 107t-76.5 170t-24 226v927h253v-970q0 -146 44.5 -215t144.5 -69q98 0 143.5 69t45.5 215v970zM459 1574l-225 310h251l129 -310h-155z" />
    <glyph glyph-name="Uacute" unicode="&#xda;" horiz-adv-x="1063" 
d="M727 1432h239v-927q0 -126 -24 -226t-76.5 -169.5t-135 -107t-199.5 -37.5t-199.5 37t-135 107t-76.5 170t-24 226v927h253v-970q0 -146 44.5 -215t144.5 -69q98 0 143.5 69t45.5 215v970zM456 1575l129 310h252l-226 -310h-155z" />
    <glyph glyph-name="Ucircumflex" unicode="&#xdb;" horiz-adv-x="1063" 
d="M727 1432h239v-927q0 -126 -24 -226t-76.5 -169.5t-135 -107t-199.5 -37.5t-199.5 37t-135 107t-76.5 170t-24 226v927h253v-970q0 -146 44.5 -215t144.5 -69q98 0 143.5 69t45.5 215v970zM647 1858l180 -282h-186l-105 173l-106 -173h-188l183 282h222z" />
    <glyph glyph-name="Udieresis" unicode="&#xdc;" horiz-adv-x="1063" 
d="M727 1432h239v-927q0 -126 -24 -226t-76.5 -169.5t-135 -107t-199.5 -37.5t-199.5 37t-135 107t-76.5 170t-24 226v927h253v-970q0 -146 44.5 -215t144.5 -69q98 0 143.5 69t45.5 215v970zM273 1576v193h202v-193h-202zM602 1576v193h201v-193h-201z" />
    <glyph glyph-name="Yacute" unicode="&#xdd;" horiz-adv-x="918" 
d="M337 0v519l-337 913h268l197 -684l198 684h256l-336 -913v-519h-246zM386 1575l129 310h252l-226 -310h-155z" />
    <glyph glyph-name="Thorn" unicode="&#xde;" horiz-adv-x="964" 
d="M121 0v1432h246v-256h132q220 0 326 -119t106 -340q0 -102 -28 -183t-82 -137.5t-134 -86.5t-183 -30h-144v-280h-239zM478 482q57 0 96 16t63 48.5t34.5 81.5t10.5 115q0 63 -13 106.5t-39 70.5t-65 39.5t-92 12.5h-113v-490h118z" />
    <glyph glyph-name="germandbls" unicode="&#xdf;" horiz-adv-x="908" 
d="M409 173q40 -9 66 -9q48 0 81.5 17t54.5 44.5t30.5 63.5t9.5 74q0 36 -9 65.5t-23 53.5t-31 43.5t-33 35.5q-53 51 -81 100t-28 108q0 57 20 107.5t58 104.5q14 20 25 37.5t18.5 35.5t11.5 37.5t4 43.5q0 28 -7 54.5t-22 47.5t-39 33.5t-58 12.5q-41 0 -67 -16.5t-41 -50
t-20.5 -83.5t-5.5 -117v-1016h-231v1025q0 49 5 100.5t19 100.5t39.5 93t66.5 76.5t100 51.5t140 19q83 0 150 -25.5t114 -68t72 -98t25 -115.5q0 -39 -8 -71t-21 -60t-30 -52.5t-35 -48.5q-33 -40 -46 -72.5t-13 -55.5q0 -19 9 -38t23.5 -38.5t32.5 -40.5t37 -43
q25 -27 46 -55.5t36 -61t23 -70t8 -83.5q0 -78 -20 -148.5t-64 -124t-113 -85t-166 -31.5q-32 0 -64 3.5t-64 13.5z" />
    <glyph glyph-name="agrave" unicode="&#xe0;" horiz-adv-x="862" 
d="M586 0q-4 16 -8 37t-7 42.5t-4 42t0 37.5q-15 -54 -40.5 -89.5t-59 -56.5t-73.5 -30t-83 -9q-58 0 -105.5 19.5t-81 57.5t-52 93.5t-18.5 128.5q0 88 30 151t91 104.5t153 64.5t216 31v84q0 91 -32.5 127.5t-95.5 36.5q-23 0 -55 -4t-68 -13t-73 -24t-70 -36l-61 152
q40 25 85.5 45t92.5 34t94 21t92 7q163 0 243.5 -89t80.5 -273v-397q0 -87 3 -157.5t11 -137.5h-205zM545 471q-64 -7 -113 -17t-82.5 -29t-51 -50t-17.5 -79q0 -32 7 -60t21.5 -49t36 -33.5t51.5 -12.5q38 0 66 19.5t46 54.5t27 82.5t9 104.5v69zM384 1162l-225 310h251
l129 -310h-155z" />
    <glyph glyph-name="aacute" unicode="&#xe1;" horiz-adv-x="862" 
d="M586 0q-4 16 -8 37t-7 42.5t-4 42t0 37.5q-15 -54 -40.5 -89.5t-59 -56.5t-73.5 -30t-83 -9q-58 0 -105.5 19.5t-81 57.5t-52 93.5t-18.5 128.5q0 88 30 151t91 104.5t153 64.5t216 31v84q0 91 -32.5 127.5t-95.5 36.5q-23 0 -55 -4t-68 -13t-73 -24t-70 -36l-61 152
q40 25 85.5 45t92.5 34t94 21t92 7q163 0 243.5 -89t80.5 -273v-397q0 -87 3 -157.5t11 -137.5h-205zM545 471q-64 -7 -113 -17t-82.5 -29t-51 -50t-17.5 -79q0 -32 7 -60t21.5 -49t36 -33.5t51.5 -12.5q38 0 66 19.5t46 54.5t27 82.5t9 104.5v69zM365 1163l129 310h252
l-226 -310h-155z" />
    <glyph glyph-name="acircumflex" unicode="&#xe2;" horiz-adv-x="862" 
d="M586 0q-4 16 -8 37t-7 42.5t-4 42t0 37.5q-15 -54 -40.5 -89.5t-59 -56.5t-73.5 -30t-83 -9q-58 0 -105.5 19.5t-81 57.5t-52 93.5t-18.5 128.5q0 88 30 151t91 104.5t153 64.5t216 31v84q0 91 -32.5 127.5t-95.5 36.5q-23 0 -55 -4t-68 -13t-73 -24t-70 -36l-61 152
q40 25 85.5 45t92.5 34t94 21t92 7q163 0 243.5 -89t80.5 -273v-397q0 -87 3 -157.5t11 -137.5h-205zM545 471q-64 -7 -113 -17t-82.5 -29t-51 -50t-17.5 -79q0 -32 7 -60t21.5 -49t36 -33.5t51.5 -12.5q38 0 66 19.5t46 54.5t27 82.5t9 104.5v69zM551 1445l180 -282h-186
l-105 173l-106 -173h-188l183 282h222z" />
    <glyph glyph-name="atilde" unicode="&#xe3;" horiz-adv-x="862" 
d="M586 0q-4 16 -8 37t-7 42.5t-4 42t0 37.5q-15 -54 -40.5 -89.5t-59 -56.5t-73.5 -30t-83 -9q-58 0 -105.5 19.5t-81 57.5t-52 93.5t-18.5 128.5q0 88 30 151t91 104.5t153 64.5t216 31v84q0 91 -32.5 127.5t-95.5 36.5q-23 0 -55 -4t-68 -13t-73 -24t-70 -36l-61 152
q40 25 85.5 45t92.5 34t94 21t92 7q163 0 243.5 -89t80.5 -273v-397q0 -87 3 -157.5t11 -137.5h-205zM545 471q-64 -7 -113 -17t-82.5 -29t-51 -50t-17.5 -79q0 -32 7 -60t21.5 -49t36 -33.5t51.5 -12.5q38 0 66 19.5t46 54.5t27 82.5t9 104.5v69zM147 1186
q2 121 49.5 182.5t128.5 61.5q25 0 45 -6t37 -15.5t32.5 -21.5t32.5 -23q27 -20 45 -30t36 -10q16 0 28 8.5t19.5 22.5t11.5 32t4 37l142 -18q-5 -117 -50 -180t-129 -63q-26 0 -46.5 6.5t-38.5 17t-34 23t-33 24.5q-14 9 -33.5 22t-42.5 13q-17 0 -28.5 -9t-19 -23
t-11.5 -32t-5 -36z" />
    <glyph glyph-name="adieresis" unicode="&#xe4;" horiz-adv-x="862" 
d="M586 0q-4 16 -8 37t-7 42.5t-4 42t0 37.5q-15 -54 -40.5 -89.5t-59 -56.5t-73.5 -30t-83 -9q-58 0 -105.5 19.5t-81 57.5t-52 93.5t-18.5 128.5q0 88 30 151t91 104.5t153 64.5t216 31v84q0 91 -32.5 127.5t-95.5 36.5q-23 0 -55 -4t-68 -13t-73 -24t-70 -36l-61 152
q40 25 85.5 45t92.5 34t94 21t92 7q163 0 243.5 -89t80.5 -273v-397q0 -87 3 -157.5t11 -137.5h-205zM545 471q-64 -7 -113 -17t-82.5 -29t-51 -50t-17.5 -79q0 -32 7 -60t21.5 -49t36 -33.5t51.5 -12.5q38 0 66 19.5t46 54.5t27 82.5t9 104.5v69zM181 1164v193h202v-193
h-202zM510 1164v193h201v-193h-201z" />
    <glyph glyph-name="aring" unicode="&#xe5;" horiz-adv-x="862" 
d="M586 0q-4 16 -8 37t-7 42.5t-4 42t0 37.5q-15 -54 -40.5 -89.5t-59 -56.5t-73.5 -30t-83 -9q-58 0 -105.5 19.5t-81 57.5t-52 93.5t-18.5 128.5q0 88 30 151t91 104.5t153 64.5t216 31v84q0 91 -32.5 127.5t-95.5 36.5q-23 0 -55 -4t-68 -13t-73 -24t-70 -36l-61 152
q40 25 85.5 45t92.5 34t94 21t92 7q163 0 243.5 -89t80.5 -273v-397q0 -87 3 -157.5t11 -137.5h-205zM545 471q-64 -7 -113 -17t-82.5 -29t-51 -50t-17.5 -79q0 -32 7 -60t21.5 -49t36 -33.5t51.5 -12.5q38 0 66 19.5t46 54.5t27 82.5t9 104.5v69zM449 1166q-45 0 -83 15.5
t-65 44t-42.5 67.5t-15.5 87t15.5 87t42.5 67t65 43t83 15q46 0 84 -15t65.5 -43t42.5 -67t15 -87t-15 -87t-42.5 -67.5t-65.5 -44t-84 -15.5zM449 1287q35 0 55 25t20 68q0 41 -20 66t-55 25t-55 -25t-20 -66q0 -43 20 -68t55 -25z" />
    <glyph glyph-name="ae" unicode="&#xe6;" horiz-adv-x="1325" 
d="M1264 272q-11 -62 -35 -117t-65 -95.5t-101 -64t-144 -23.5q-126 0 -203.5 53.5t-117.5 145.5q-28 -59 -62.5 -97.5t-72.5 -61t-78.5 -31t-79.5 -8.5q-59 0 -106 19.5t-81 57.5t-52 94t-18 129q0 88 30 151t91 104.5t153 64.5t215 31v91q0 90 -33 127t-94 37
q-24 0 -56.5 -6t-67.5 -16.5t-70.5 -25t-65.5 -32.5l-62 159q60 31 107 49.5t88.5 29t80.5 14t83 3.5q154 0 233 -79q44 38 102.5 58.5t136.5 20.5q187 0 272.5 -117t85.5 -357v-122h-503q0 -166 35 -241.5t112 -75.5q57 0 88 39t43 120zM538 471q-64 -7 -113 -17t-82.5 -29
t-50.5 -50t-17 -79q0 -32 7 -60t21 -49t36 -33.5t51 -12.5q38 0 66 19.5t46 54.5t27 82.5t9 104.5v69zM1050 618q0 73 -6.5 125t-22.5 85.5t-42.5 49t-66.5 15.5q-39 0 -64.5 -20.5t-41.5 -57t-23.5 -87t-8.5 -110.5h276z" />
    <glyph glyph-name="ccedilla" unicode="&#xe7;" horiz-adv-x="825" 
d="M792 358q-6 -186 -94.5 -286t-263.5 -100q-101 0 -172.5 36t-116.5 105t-66 170t-21 231q0 271 91 405.5t288 134.5q93 0 158 -28t106.5 -77.5t62.5 -118t26 -149.5l-218 -16q-6 59 -15 101t-24 68.5t-38 39t-57 12.5q-43 0 -70.5 -24t-43 -70.5t-21.5 -116.5t-6 -161
q0 -114 9 -186.5t27 -114t44 -57t60 -15.5q32 0 55 11t39.5 38t26 71.5t14.5 111.5zM310 -259q10 -6 25 -13t32.5 -12t36 -8.5t35.5 -3.5q33 0 54 17t21 46t-17.5 47t-41.5 18q-23 0 -34 -8.5t-19 -16.5l-86 13l41 194l140 -5l-41 -117q11 10 24.5 15t44.5 5q68 0 108 -43
t40 -111q0 -40 -16 -72t-44.5 -54t-67.5 -33.5t-86 -11.5q-59 0 -105 16t-69 35z" />
    <glyph glyph-name="egrave" unicode="&#xe8;" horiz-adv-x="843" 
d="M781 272q-11 -62 -34.5 -117t-64.5 -95.5t-101.5 -64t-144.5 -23.5q-111 0 -184 42.5t-116 116.5t-60.5 174.5t-17.5 217.5q0 121 19.5 219t64 167.5t117 107t178.5 37.5q186 0 271.5 -117t85.5 -357v-122h-504q0 -166 35 -241.5t113 -75.5q58 0 88 39t43 120zM567 618
q0 73 -6.5 125t-22.5 85.5t-42 49t-66 15.5q-39 0 -65 -20.5t-42 -57t-23.5 -87t-9.5 -110.5h277zM362 1162l-225 310h251l129 -310h-155z" />
    <glyph glyph-name="eacute" unicode="&#xe9;" horiz-adv-x="843" 
d="M781 272q-11 -62 -34.5 -117t-64.5 -95.5t-101.5 -64t-144.5 -23.5q-111 0 -184 42.5t-116 116.5t-60.5 174.5t-17.5 217.5q0 121 19.5 219t64 167.5t117 107t178.5 37.5q186 0 271.5 -117t85.5 -357v-122h-504q0 -166 35 -241.5t113 -75.5q58 0 88 39t43 120zM567 618
q0 73 -6.5 125t-22.5 85.5t-42 49t-66 15.5q-39 0 -65 -20.5t-42 -57t-23.5 -87t-9.5 -110.5h277zM363 1163l129 310h252l-226 -310h-155z" />
    <glyph glyph-name="ecircumflex" unicode="&#xea;" horiz-adv-x="843" 
d="M781 272q-11 -62 -34.5 -117t-64.5 -95.5t-101.5 -64t-144.5 -23.5q-111 0 -184 42.5t-116 116.5t-60.5 174.5t-17.5 217.5q0 121 19.5 219t64 167.5t117 107t178.5 37.5q186 0 271.5 -117t85.5 -357v-122h-504q0 -166 35 -241.5t113 -75.5q58 0 88 39t43 120zM567 618
q0 73 -6.5 125t-22.5 85.5t-42 49t-66 15.5q-39 0 -65 -20.5t-42 -57t-23.5 -87t-9.5 -110.5h277zM551 1445l180 -282h-186l-105 173l-106 -173h-188l183 282h222z" />
    <glyph glyph-name="edieresis" unicode="&#xeb;" horiz-adv-x="843" 
d="M781 272q-11 -62 -34.5 -117t-64.5 -95.5t-101.5 -64t-144.5 -23.5q-111 0 -184 42.5t-116 116.5t-60.5 174.5t-17.5 217.5q0 121 19.5 219t64 167.5t117 107t178.5 37.5q186 0 271.5 -117t85.5 -357v-122h-504q0 -166 35 -241.5t113 -75.5q58 0 88 39t43 120zM567 618
q0 73 -6.5 125t-22.5 85.5t-42 49t-66 15.5q-39 0 -65 -20.5t-42 -57t-23.5 -87t-9.5 -110.5h277zM177 1164v193h202v-193h-202zM506 1164v193h201v-193h-201z" />
    <glyph glyph-name="igrave" unicode="&#xec;" horiz-adv-x="438" 
d="M141 1162l-225 310h251l129 -310h-155zM102 0v1026h234v-1026h-234z" />
    <glyph glyph-name="iacute" unicode="&#xed;" horiz-adv-x="438" 
d="M139 1162l129 310h252l-226 -310h-155zM102 0v1026h234v-1026h-234z" />
    <glyph glyph-name="icircumflex" unicode="&#xee;" horiz-adv-x="438" 
d="M102 0v1026h234v-1026h-234zM329 1445l180 -282h-186l-105 173l-106 -173h-188l183 282h222z" />
    <glyph glyph-name="idieresis" unicode="&#xef;" horiz-adv-x="438" 
d="M-45 1163v193h202v-193h-202zM284 1163v193h201v-193h-201zM102 0v1026h234v-1026h-234z" />
    <glyph glyph-name="eth" unicode="&#xf0;" horiz-adv-x="871" 
d="M681 1287q42 -71 67.5 -145.5t39.5 -160.5t18.5 -187.5t4.5 -226.5q0 -148 -20.5 -259.5t-66.5 -186t-118.5 -112t-177.5 -37.5t-178 36t-118 106.5t-65.5 174t-20.5 237.5q0 265 78 399.5t236 134.5q86 0 145 -45t86 -126q0 19 -8.5 59t-23.5 89t-35 99.5t-43 89.5
l-235 -75l-37 100l204 63q-41 45 -89 76t-99 49l161 108q67 -27 125.5 -67t105.5 -100l140 46l36 -104zM427 139q45 0 72.5 25.5t42.5 74.5t20 121t5 164q0 106 -9 175.5t-26.5 111t-44.5 58.5t-63 17q-33 0 -59 -17.5t-44 -59t-27.5 -111.5t-9.5 -175q0 -102 6.5 -175
t22.5 -119.5t44 -68t70 -21.5z" />
    <glyph glyph-name="ntilde" unicode="&#xf1;" horiz-adv-x="924" 
d="M598 0v700q0 33 -3.5 64.5t-15 56t-33 40t-57.5 15.5q-70 0 -111.5 -73t-41.5 -218v-585h-234v1026h218v-168q27 95 98 145.5t165 50.5q57 0 97.5 -17.5t68.5 -45.5t44.5 -64t25.5 -73t11.5 -72.5t2.5 -62.5v-719h-235zM173 1182q2 121 49.5 182.5t128.5 61.5q25 0 45 -6
t37 -15.5t32.5 -21.5t32.5 -23q27 -20 45 -30t36 -10q16 0 28 8.5t19.5 22.5t11.5 32t4 37l142 -18q-5 -117 -50 -180t-129 -63q-26 0 -46.5 6.5t-38.5 17t-34 23t-33 24.5q-14 9 -33.5 22t-42.5 13q-17 0 -28.5 -9t-19 -23t-11.5 -32t-5 -36z" />
    <glyph glyph-name="ograve" unicode="&#xf2;" horiz-adv-x="877" 
d="M439 -28q-111 0 -184 41t-117 113.5t-62 171.5t-18 215t18 215t62 171.5t117.5 113.5t183.5 41q109 0 182.5 -41t117.5 -113t62.5 -171t18.5 -215t-18.5 -215.5t-62.5 -172t-117 -113.5t-183 -41zM439 141q39 0 65.5 20t43.5 64t24.5 115t7.5 173t-7.5 173t-24 115.5
t-43.5 64.5t-66 20t-66.5 -20t-44 -64.5t-24 -115.5t-7.5 -173t7.5 -173t24.5 -115t44 -64t66 -20zM359 1161l-225 310h251l129 -310h-155z" />
    <glyph glyph-name="oacute" unicode="&#xf3;" horiz-adv-x="877" 
d="M439 -28q-111 0 -184 41t-117 113.5t-62 171.5t-18 215t18 215t62 171.5t117.5 113.5t183.5 41q109 0 182.5 -41t117.5 -113t62.5 -171t18.5 -215t-18.5 -215.5t-62.5 -172t-117 -113.5t-183 -41zM439 141q39 0 65.5 20t43.5 64t24.5 115t7.5 173t-7.5 173t-24 115.5
t-43.5 64.5t-66 20t-66.5 -20t-44 -64.5t-24 -115.5t-7.5 -173t7.5 -173t24.5 -115t44 -64t66 -20zM357 1161l129 310h252l-226 -310h-155z" />
    <glyph glyph-name="ocircumflex" unicode="&#xf4;" horiz-adv-x="877" 
d="M439 -28q-111 0 -184 41t-117 113.5t-62 171.5t-18 215t18 215t62 171.5t117.5 113.5t183.5 41q109 0 182.5 -41t117.5 -113t62.5 -171t18.5 -215t-18.5 -215.5t-62.5 -172t-117 -113.5t-183 -41zM439 141q39 0 65.5 20t43.5 64t24.5 115t7.5 173t-7.5 173t-24 115.5
t-43.5 64.5t-66 20t-66.5 -20t-44 -64.5t-24 -115.5t-7.5 -173t7.5 -173t24.5 -115t44 -64t66 -20zM548 1444l180 -282h-186l-105 173l-106 -173h-188l183 282h222z" />
    <glyph glyph-name="otilde" unicode="&#xf5;" horiz-adv-x="877" 
d="M439 -28q-111 0 -184 41t-117 113.5t-62 171.5t-18 215t18 215t62 171.5t117.5 113.5t183.5 41q109 0 182.5 -41t117.5 -113t62.5 -171t18.5 -215t-18.5 -215.5t-62.5 -172t-117 -113.5t-183 -41zM439 141q39 0 65.5 20t43.5 64t24.5 115t7.5 173t-7.5 173t-24 115.5
t-43.5 64.5t-66 20t-66.5 -20t-44 -64.5t-24 -115.5t-7.5 -173t7.5 -173t24.5 -115t44 -64t66 -20zM129 1184q2 121 49.5 182.5t128.5 61.5q25 0 45 -6t37 -15.5t32.5 -21.5t32.5 -23q27 -20 45 -30t36 -10q16 0 28 8.5t19.5 22.5t11.5 32t4 37l142 -18q-5 -117 -50 -180
t-129 -63q-26 0 -46.5 6.5t-38.5 17t-34 23t-33 24.5q-14 9 -33.5 22t-42.5 13q-17 0 -28.5 -9t-19 -23t-11.5 -32t-5 -36z" />
    <glyph glyph-name="odieresis" unicode="&#xf6;" horiz-adv-x="877" 
d="M439 -28q-111 0 -184 41t-117 113.5t-62 171.5t-18 215t18 215t62 171.5t117.5 113.5t183.5 41q109 0 182.5 -41t117.5 -113t62.5 -171t18.5 -215t-18.5 -215.5t-62.5 -172t-117 -113.5t-183 -41zM439 141q39 0 65.5 20t43.5 64t24.5 115t7.5 173t-7.5 173t-24 115.5
t-43.5 64.5t-66 20t-66.5 -20t-44 -64.5t-24 -115.5t-7.5 -173t7.5 -173t24.5 -115t44 -64t66 -20zM175 1162v193h202v-193h-202zM504 1162v193h201v-193h-201z" />
    <glyph glyph-name="divide" unicode="&#xf7;" horiz-adv-x="910" 
d="M452 732q-52 0 -85.5 32.5t-33.5 88.5q0 55 33.5 88t85.5 33q53 0 87 -32.5t34 -88.5q0 -55 -34 -88t-87 -33zM70 616h769v-175h-769v175zM452 84q-52 0 -85.5 32.5t-33.5 88.5q0 54 33.5 87t85.5 33q53 0 87 -32.5t34 -87.5t-34 -88t-87 -33z" />
    <glyph glyph-name="oslash" unicode="&#xf8;" horiz-adv-x="877" 
d="M253 -101l23 103q-62 27 -103.5 76.5t-67 115.5t-36.5 147t-11 172q0 116 18 215t62 171.5t117.5 113.5t183.5 41q40 0 76 -6l26 113l84 -20l-27 -117q62 -27 104.5 -76t68.5 -115t37.5 -147t11.5 -172q0 -116 -18.5 -215.5t-62.5 -172t-117 -113.5t-183 -41
q-22 0 -41.5 2t-38.5 5l-22 -99zM439 141q39 0 65.5 20t43.5 64t24.5 115t7.5 173q0 104 -7.5 175t-24.5 116l-150 -657q18 -6 41 -6zM297 513q0 -101 7 -170.5t24 -114.5l149 652q-18 6 -38 6q-39 0 -66.5 -20t-44 -64.5t-24 -115.5t-7.5 -173z" />
    <glyph glyph-name="ugrave" unicode="&#xf9;" horiz-adv-x="932" 
d="M332 1026v-700q0 -33 3.5 -64.5t15.5 -56t33.5 -40t57.5 -15.5q69 0 111 73t42 219v584h233v-1026h-218v168q-13 -47 -38.5 -83.5t-60 -61.5t-77.5 -38t-91 -13q-57 0 -97 17.5t-67.5 45.5t-43.5 64t-24 73.5t-10.5 72.5t-2.5 62v719h234zM387 1161l-225 310h251
l129 -310h-155z" />
    <glyph glyph-name="uacute" unicode="&#xfa;" horiz-adv-x="932" 
d="M332 1026v-700q0 -33 3.5 -64.5t15.5 -56t33.5 -40t57.5 -15.5q69 0 111 73t42 219v584h233v-1026h-218v168q-13 -47 -38.5 -83.5t-60 -61.5t-77.5 -38t-91 -13q-57 0 -97 17.5t-67.5 45.5t-43.5 64t-24 73.5t-10.5 72.5t-2.5 62v719h234zM385 1161l129 310h252
l-226 -310h-155z" />
    <glyph glyph-name="ucircumflex" unicode="&#xfb;" horiz-adv-x="932" 
d="M332 1026v-700q0 -33 3.5 -64.5t15.5 -56t33.5 -40t57.5 -15.5q69 0 111 73t42 219v584h233v-1026h-218v168q-13 -47 -38.5 -83.5t-60 -61.5t-77.5 -38t-91 -13q-57 0 -97 17.5t-67.5 45.5t-43.5 64t-24 73.5t-10.5 72.5t-2.5 62v719h234zM585 1444l180 -282h-186
l-105 173l-106 -173h-188l183 282h222z" />
    <glyph glyph-name="udieresis" unicode="&#xfc;" horiz-adv-x="932" 
d="M332 1026v-700q0 -33 3.5 -64.5t15.5 -56t33.5 -40t57.5 -15.5q69 0 111 73t42 219v584h233v-1026h-218v168q-13 -47 -38.5 -83.5t-60 -61.5t-77.5 -38t-91 -13q-57 0 -97 17.5t-67.5 45.5t-43.5 64t-24 73.5t-10.5 72.5t-2.5 62v719h234zM202 1162v193h202v-193h-202z
M531 1162v193h201v-193h-201z" />
    <glyph glyph-name="yacute" unicode="&#xfd;" horiz-adv-x="788" 
d="M310 2l-309 1024h249l158 -803l146 803h235l-263 -1029q-29 -113 -60 -183.5t-69 -109.5t-85.5 -52.5t-110.5 -13.5q-53 0 -90.5 2.5t-60.5 4.5v167h110q27 0 47 7.5t36 23.5t28.5 41.5t24.5 60.5zM328 1159l129 310h252l-226 -310h-155z" />
    <glyph glyph-name="thorn" unicode="&#xfe;" horiz-adv-x="923" 
d="M335 1446v-576q28 85 86.5 134.5t135.5 49.5q81 0 137.5 -37t92 -106.5t51 -170t15.5 -226.5q0 -273 -66 -407.5t-211 -134.5q-88 0 -150 47.5t-91 146.5v-555h-233v1835h233zM335 513q0 -113 10 -185.5t28.5 -114.5t44 -58t57.5 -16q37 0 63.5 17.5t43 60t24 114.5
t7.5 182q0 94 -5.5 164t-20.5 116.5t-42 69.5t-69 23q-41 0 -68 -21.5t-43 -67t-23 -116t-7 -168.5z" />
    <glyph glyph-name="ydieresis" unicode="&#xff;" horiz-adv-x="788" 
d="M310 2l-309 1024h249l158 -803l146 803h235l-263 -1029q-29 -113 -60 -183.5t-69 -109.5t-85.5 -52.5t-110.5 -13.5q-53 0 -90.5 2.5t-60.5 4.5v167h110q27 0 47 7.5t36 23.5t28.5 41.5t24.5 60.5zM140 1160v193h202v-193h-202zM469 1160v193h201v-193h-201z" />
    <glyph glyph-name="Amacron" unicode="&#x100;" horiz-adv-x="1028" 
d="M679 364h-344l-73 -364h-239l335 1432h312l336 -1432h-253zM373 552h268l-134 668zM259 1580v174h508v-174h-508z" />
    <glyph glyph-name="amacron" unicode="&#x101;" horiz-adv-x="862" 
d="M586 0q-4 16 -8 37t-7 42.5t-4 42t0 37.5q-15 -54 -40.5 -89.5t-59 -56.5t-73.5 -30t-83 -9q-58 0 -105.5 19.5t-81 57.5t-52 93.5t-18.5 128.5q0 88 30 151t91 104.5t153 64.5t216 31v84q0 91 -32.5 127.5t-95.5 36.5q-23 0 -55 -4t-68 -13t-73 -24t-70 -36l-61 152
q40 25 85.5 45t92.5 34t94 21t92 7q163 0 243.5 -89t80.5 -273v-397q0 -87 3 -157.5t11 -137.5h-205zM545 471q-64 -7 -113 -17t-82.5 -29t-51 -50t-17.5 -79q0 -32 7 -60t21.5 -49t36 -33.5t51.5 -12.5q38 0 66 19.5t46 54.5t27 82.5t9 104.5v69zM187 1165v174h508v-174
h-508z" />
    <glyph glyph-name="Abreve" unicode="&#x102;" horiz-adv-x="1028" 
d="M679 364h-344l-73 -364h-239l335 1432h312l336 -1432h-253zM373 552h268l-134 668zM779 1835q-12 -125 -76 -190.5t-193 -65.5q-131 0 -198 65.5t-75 190.5l166 35q2 -148 107 -148q51 0 77 38t27 110z" />
    <glyph glyph-name="abreve" unicode="&#x103;" horiz-adv-x="862" 
d="M586 0q-4 16 -8 37t-7 42.5t-4 42t0 37.5q-15 -54 -40.5 -89.5t-59 -56.5t-73.5 -30t-83 -9q-58 0 -105.5 19.5t-81 57.5t-52 93.5t-18.5 128.5q0 88 30 151t91 104.5t153 64.5t216 31v84q0 91 -32.5 127.5t-95.5 36.5q-23 0 -55 -4t-68 -13t-73 -24t-70 -36l-61 152
q40 25 85.5 45t92.5 34t94 21t92 7q163 0 243.5 -89t80.5 -273v-397q0 -87 3 -157.5t11 -137.5h-205zM545 471q-64 -7 -113 -17t-82.5 -29t-51 -50t-17.5 -79q0 -32 7 -60t21.5 -49t36 -33.5t51.5 -12.5q38 0 66 19.5t46 54.5t27 82.5t9 104.5v69zM725 1419
q-12 -125 -76 -190.5t-193 -65.5q-131 0 -198 65.5t-75 190.5l166 35q2 -148 107 -148q51 0 77 38t27 110z" />
    <glyph glyph-name="Aogonek" unicode="&#x104;" horiz-adv-x="1028" 
d="M679 364h-344l-73 -364h-239l335 1432h312l336 -1432h-253zM373 552h268l-134 668zM1021 -322q-26 -27 -61 -44t-93 -17q-41 0 -75.5 10.5t-59.5 31.5t-39 52.5t-14 72.5q0 60 35.5 117t107.5 105l177 -6q-32 -18 -59 -37t-46.5 -40.5t-30.5 -46t-11 -52.5
q0 -29 14 -50.5t47 -21.5q16 0 31.5 5t32.5 20z" />
    <glyph glyph-name="aogonek" unicode="&#x105;" horiz-adv-x="862" 
d="M586 0q-4 16 -8 37t-7 42.5t-4 42t0 37.5q-15 -54 -40.5 -89.5t-59 -56.5t-73.5 -30t-83 -9q-58 0 -105.5 19.5t-81 57.5t-52 93.5t-18.5 128.5q0 88 30 151t91 104.5t153 64.5t216 31v84q0 91 -32.5 127.5t-95.5 36.5q-23 0 -55 -4t-68 -13t-73 -24t-70 -36l-61 152
q40 25 85.5 45t92.5 34t94 21t92 7q163 0 243.5 -89t80.5 -273v-397q0 -87 3 -157.5t11 -137.5h-205zM545 471q-64 -7 -113 -17t-82.5 -29t-51 -50t-17.5 -79q0 -32 7 -60t21.5 -49t36 -33.5t51.5 -12.5q38 0 66 19.5t46 54.5t27 82.5t9 104.5v69zM807 -322q-26 -27 -61 -44
t-93 -17q-41 0 -75.5 10.5t-59.5 31.5t-39 52.5t-14 72.5q0 60 35.5 117t107.5 105l177 -6q-32 -18 -59 -37t-46.5 -40.5t-30.5 -46t-11 -52.5q0 -29 14 -50.5t47 -21.5q16 0 31.5 5t32.5 20z" />
    <glyph glyph-name="Cacute" unicode="&#x106;" horiz-adv-x="1040" 
d="M983 493q-6 -125 -34 -223.5t-81.5 -166t-135 -103t-195.5 -35.5q-233 0 -348.5 191t-115.5 561q0 369 115.5 559t354.5 190q111 0 191 -35.5t133 -103t81.5 -166t34.5 -223.5l-232 -19q-7 74 -20 135.5t-36 106t-58.5 69t-87.5 24.5q-69 0 -111.5 -44t-66 -120.5
t-32 -180t-8.5 -222.5q0 -120 11 -214.5t37 -160.5t68 -100.5t104 -34.5q51 0 86 24.5t58.5 69t36.5 106t19 135.5zM463 1577l129 310h252l-226 -310h-155z" />
    <glyph glyph-name="cacute" unicode="&#x107;" horiz-adv-x="825" 
d="M792 358q-6 -186 -94.5 -286t-263.5 -100q-101 0 -172.5 36t-116.5 105t-66 170t-21 231q0 271 91 405.5t288 134.5q93 0 158 -28t106.5 -77.5t62.5 -118t26 -149.5l-218 -16q-6 59 -15 101t-24 68.5t-38 39t-57 12.5q-43 0 -70.5 -24t-43 -70.5t-21.5 -116.5t-6 -161
q0 -114 9 -186.5t27 -114t44 -57t60 -15.5q32 0 55 11t39.5 38t26 71.5t14.5 111.5zM377 1163l129 310h252l-226 -310h-155z" />
    <glyph glyph-name="Ccircumflex" unicode="&#x108;" horiz-adv-x="1040" 
d="M983 493q-6 -125 -34 -223.5t-81.5 -166t-135 -103t-195.5 -35.5q-233 0 -348.5 191t-115.5 561q0 369 115.5 559t354.5 190q111 0 191 -35.5t133 -103t81.5 -166t34.5 -223.5l-232 -19q-7 74 -20 135.5t-36 106t-58.5 69t-87.5 24.5q-69 0 -111.5 -44t-66 -120.5
t-32 -180t-8.5 -222.5q0 -120 11 -214.5t37 -160.5t68 -100.5t104 -34.5q51 0 86 24.5t58.5 69t36.5 106t19 135.5zM654 1860l180 -282h-186l-105 173l-106 -173h-188l183 282h222z" />
    <glyph glyph-name="ccircumflex" unicode="&#x109;" horiz-adv-x="825" 
d="M792 358q-6 -186 -94.5 -286t-263.5 -100q-101 0 -172.5 36t-116.5 105t-66 170t-21 231q0 271 91 405.5t288 134.5q93 0 158 -28t106.5 -77.5t62.5 -118t26 -149.5l-218 -16q-6 59 -15 101t-24 68.5t-38 39t-57 12.5q-43 0 -70.5 -24t-43 -70.5t-21.5 -116.5t-6 -161
q0 -114 9 -186.5t27 -114t44 -57t60 -15.5q32 0 55 11t39.5 38t26 71.5t14.5 111.5zM563 1446l180 -282h-186l-105 173l-106 -173h-188l183 282h222z" />
    <glyph glyph-name="Cdotaccent" unicode="&#x10a;" horiz-adv-x="1040" 
d="M983 493q-6 -125 -34 -223.5t-81.5 -166t-135 -103t-195.5 -35.5q-233 0 -348.5 191t-115.5 561q0 369 115.5 559t354.5 190q111 0 191 -35.5t133 -103t81.5 -166t34.5 -223.5l-232 -19q-7 74 -20 135.5t-36 106t-58.5 69t-87.5 24.5q-69 0 -111.5 -44t-66 -120.5
t-32 -180t-8.5 -222.5q0 -120 11 -214.5t37 -160.5t68 -100.5t104 -34.5q51 0 86 24.5t58.5 69t36.5 106t19 135.5zM442 1577v209h208v-209h-208z" />
    <glyph glyph-name="cdotaccent" unicode="&#x10b;" horiz-adv-x="825" 
d="M792 358q-6 -186 -94.5 -286t-263.5 -100q-101 0 -172.5 36t-116.5 105t-66 170t-21 231q0 271 91 405.5t288 134.5q93 0 158 -28t106.5 -77.5t62.5 -118t26 -149.5l-218 -16q-6 59 -15 101t-24 68.5t-38 39t-57 12.5q-43 0 -70.5 -24t-43 -70.5t-21.5 -116.5t-6 -161
q0 -114 9 -186.5t27 -114t44 -57t60 -15.5q32 0 55 11t39.5 38t26 71.5t14.5 111.5zM348 1162v209h208v-209h-208z" />
    <glyph glyph-name="Ccaron" unicode="&#x10c;" horiz-adv-x="1040" 
d="M983 493q-6 -125 -34 -223.5t-81.5 -166t-135 -103t-195.5 -35.5q-233 0 -348.5 191t-115.5 561q0 369 115.5 559t354.5 190q111 0 191 -35.5t133 -103t81.5 -166t34.5 -223.5l-232 -19q-7 74 -20 135.5t-36 106t-58.5 69t-87.5 24.5q-69 0 -111.5 -44t-66 -120.5
t-32 -180t-8.5 -222.5q0 -120 11 -214.5t37 -160.5t68 -100.5t104 -34.5q51 0 86 24.5t58.5 69t36.5 106t19 135.5zM432 1575l-183 282h188l106 -172l105 172h186l-180 -282h-222z" />
    <glyph glyph-name="ccaron" unicode="&#x10d;" horiz-adv-x="825" 
d="M792 358q-6 -186 -94.5 -286t-263.5 -100q-101 0 -172.5 36t-116.5 105t-66 170t-21 231q0 271 91 405.5t288 134.5q93 0 158 -28t106.5 -77.5t62.5 -118t26 -149.5l-218 -16q-6 59 -15 101t-24 68.5t-38 39t-57 12.5q-43 0 -70.5 -24t-43 -70.5t-21.5 -116.5t-6 -161
q0 -114 9 -186.5t27 -114t44 -57t60 -15.5q32 0 55 11t39.5 38t26 71.5t14.5 111.5zM338 1161l-183 282h188l106 -172l105 172h186l-180 -282h-222z" />
    <glyph glyph-name="Dcaron" unicode="&#x10e;" horiz-adv-x="1083" 
d="M118 0v1432h372q146 0 245.5 -46.5t160 -137t87 -223t26.5 -304.5q0 -174 -27 -308t-89 -226t-162 -139.5t-245 -47.5h-368zM490 210q86 0 138 42t79.5 117t36 178t8.5 225q0 113 -13.5 197.5t-44 140.5t-80 84t-122.5 28h-130v-1012h128zM346 1573l-183 282h188
l106 -172l105 172h186l-180 -282h-222z" />
    <glyph glyph-name="dcaron" unicode="&#x10f;" horiz-adv-x="1115" 
d="M602 0l-10 129q-31 -77 -93.5 -117t-145.5 -40q-81 0 -137.5 37t-91.5 106.5t-50.5 170t-15.5 226.5q0 273 65.5 407.5t211.5 134.5q43 0 81 -11t69 -30.5t54 -46.5t36 -59v539h234v-1446h-207zM575 514q0 113 -12 185t-32 113.5t-46.5 57.5t-55.5 16q-32 0 -56.5 -17.5
t-41.5 -60t-25.5 -114.5t-8.5 -181q0 -188 30 -280t107 -92q35 0 61.5 21.5t44 66.5t26.5 115.5t9 169.5zM919 1110q28 10 43.5 19.5t23 21t9.5 26t2 32.5h-61v222h183v-209q0 -46 -9 -80.5t-29.5 -60.5t-54 -44.5t-82.5 -33.5z" />
    <glyph glyph-name="Dcroat" unicode="&#x110;" horiz-adv-x="1083" 
d="M118 0v1432h372q146 0 245.5 -46.5t160 -137t87 -223t26.5 -304.5q0 -174 -27 -308t-89 -226t-162 -139.5t-245 -47.5h-368zM490 210q86 0 138 42t79.5 117t36 178t8.5 225q0 113 -13.5 197.5t-44 140.5t-80 84t-122.5 28h-130v-1012h128zM10 629v174h508v-174h-508z" />
    <glyph glyph-name="dcroat" unicode="&#x111;" horiz-adv-x="916" 
d="M615 0l-23 122q-15 -38 -40 -66t-56.5 -47t-68 -28t-74.5 -9q-81 0 -137.5 37t-91.5 106.5t-50.5 170t-15.5 226.5q0 273 65.5 407.5t211.5 134.5q43 0 81 -11t69 -30.5t54 -46.5t36 -59v257h-201v150h201v132h234v-132h62v-150h-62v-1164h-194zM575 514q0 113 -12 185
t-32 113.5t-46.5 57.5t-55.5 16q-32 0 -56.5 -17.5t-41.5 -60t-25.5 -114.5t-8.5 -181q0 -188 30 -280t107 -92q35 0 61.5 21.5t44 66.5t26.5 115.5t9 169.5z" />
    <glyph glyph-name="Emacron" unicode="&#x112;" horiz-adv-x="894" 
d="M118 0v1432h705v-210h-458v-376h393v-200h-393v-436h465v-210h-712zM227 1577v174h508v-174h-508z" />
    <glyph glyph-name="emacron" unicode="&#x113;" horiz-adv-x="843" 
d="M781 272q-11 -62 -34.5 -117t-64.5 -95.5t-101.5 -64t-144.5 -23.5q-111 0 -184 42.5t-116 116.5t-60.5 174.5t-17.5 217.5q0 121 19.5 219t64 167.5t117 107t178.5 37.5q186 0 271.5 -117t85.5 -357v-122h-504q0 -166 35 -241.5t113 -75.5q58 0 88 39t43 120zM567 618
q0 73 -6.5 125t-22.5 85.5t-42 49t-66 15.5q-39 0 -65 -20.5t-42 -57t-23.5 -87t-9.5 -110.5h277zM188 1165v174h508v-174h-508z" />
    <glyph glyph-name="Ebreve" unicode="&#x114;" horiz-adv-x="894" 
d="M118 0v1432h705v-210h-458v-376h393v-200h-393v-436h465v-210h-712zM747 1832q-12 -125 -76 -190.5t-193 -65.5q-131 0 -198 65.5t-75 190.5l166 35q2 -148 107 -148q51 0 77 38t27 110z" />
    <glyph glyph-name="ebreve" unicode="&#x115;" horiz-adv-x="843" 
d="M781 272q-11 -62 -34.5 -117t-64.5 -95.5t-101.5 -64t-144.5 -23.5q-111 0 -184 42.5t-116 116.5t-60.5 174.5t-17.5 217.5q0 121 19.5 219t64 167.5t117 107t178.5 37.5q186 0 271.5 -117t85.5 -357v-122h-504q0 -166 35 -241.5t113 -75.5q58 0 88 39t43 120zM567 618
q0 73 -6.5 125t-22.5 85.5t-42 49t-66 15.5q-39 0 -65 -20.5t-42 -57t-23.5 -87t-9.5 -110.5h277zM713 1419q-12 -125 -76 -190.5t-193 -65.5q-131 0 -198 65.5t-75 190.5l166 35q2 -148 107 -148q51 0 77 38t27 110z" />
    <glyph glyph-name="Edotaccent" unicode="&#x116;" horiz-adv-x="894" 
d="M118 0v1432h705v-210h-458v-376h393v-200h-393v-436h465v-210h-712zM375 1575v209h208v-209h-208z" />
    <glyph glyph-name="edotaccent" unicode="&#x117;" horiz-adv-x="843" 
d="M781 272q-11 -62 -34.5 -117t-64.5 -95.5t-101.5 -64t-144.5 -23.5q-111 0 -184 42.5t-116 116.5t-60.5 174.5t-17.5 217.5q0 121 19.5 219t64 167.5t117 107t178.5 37.5q186 0 271.5 -117t85.5 -357v-122h-504q0 -166 35 -241.5t113 -75.5q58 0 88 39t43 120zM567 618
q0 73 -6.5 125t-22.5 85.5t-42 49t-66 15.5q-39 0 -65 -20.5t-42 -57t-23.5 -87t-9.5 -110.5h277zM342 1162v209h208v-209h-208z" />
    <glyph glyph-name="Eogonek" unicode="&#x118;" horiz-adv-x="894" 
d="M118 0v1432h705v-210h-458v-376h393v-200h-393v-436h465v-210h-712zM830 -322q-26 -27 -61 -44t-93 -17q-41 0 -75.5 10.5t-59.5 31.5t-39 52.5t-14 72.5q0 60 35.5 117t107.5 105l177 -6q-32 -18 -59 -37t-46.5 -40.5t-30.5 -46t-11 -52.5q0 -29 14 -50.5t47 -21.5
q16 0 31.5 5t32.5 20z" />
    <glyph glyph-name="eogonek" unicode="&#x119;" horiz-adv-x="843" 
d="M781 272q-11 -62 -34.5 -117t-64.5 -95.5t-101.5 -64t-144.5 -23.5q-111 0 -184 42.5t-116 116.5t-60.5 174.5t-17.5 217.5q0 121 19.5 219t64 167.5t117 107t178.5 37.5q186 0 271.5 -117t85.5 -357v-122h-504q0 -166 35 -241.5t113 -75.5q58 0 88 39t43 120zM567 618
q0 73 -6.5 125t-22.5 85.5t-42 49t-66 15.5q-39 0 -65 -20.5t-42 -57t-23.5 -87t-9.5 -110.5h277zM655 -300q-26 -27 -61 -44t-93 -17q-41 0 -75.5 10.5t-59.5 31.5t-39 52.5t-14 72.5q0 60 35.5 117t107.5 105l177 -6q-32 -18 -59 -37t-46.5 -40.5t-30.5 -46t-11 -52.5
q0 -29 14 -50.5t47 -21.5q16 0 31.5 5t32.5 20z" />
    <glyph glyph-name="Ecaron" unicode="&#x11a;" horiz-adv-x="894" 
d="M118 0v1432h705v-210h-458v-376h393v-200h-393v-436h465v-210h-712zM366 1574l-183 282h188l106 -172l105 172h186l-180 -282h-222z" />
    <glyph glyph-name="ecaron" unicode="&#x11b;" horiz-adv-x="843" 
d="M781 272q-11 -62 -34.5 -117t-64.5 -95.5t-101.5 -64t-144.5 -23.5q-111 0 -184 42.5t-116 116.5t-60.5 174.5t-17.5 217.5q0 121 19.5 219t64 167.5t117 107t178.5 37.5q186 0 271.5 -117t85.5 -357v-122h-504q0 -166 35 -241.5t113 -75.5q58 0 88 39t43 120zM567 618
q0 73 -6.5 125t-22.5 85.5t-42 49t-66 15.5q-39 0 -65 -20.5t-42 -57t-23.5 -87t-9.5 -110.5h277zM328 1161l-183 282h188l106 -172l105 172h186l-180 -282h-222z" />
    <glyph glyph-name="Gcircumflex" unicode="&#x11c;" horiz-adv-x="1082" 
d="M798 257q-11 -142 -85 -217t-195 -75q-127 0 -212.5 58.5t-137 159.5t-73.5 236t-22 288q0 80 6.5 168t24.5 172t51 160t87 133.5t131 91.5t184 34q100 0 176 -34.5t128.5 -98.5t82 -154t37.5 -202l-232 -21q-8 63 -21.5 117t-36 94.5t-57 63.5t-84.5 23
q-65 0 -107.5 -38.5t-67 -109t-34.5 -169.5t-10 -220q0 -134 11 -235t36.5 -168.5t67.5 -102t104 -34.5q36 0 73 16.5t66.5 58.5t47 115t16.5 186l5 -28l-5 38h-213v195h440q0 -104 -1 -207t0.5 -200.5t8 -186.5t20.5 -164h-183q-21 117 -24 242zM671 1858l180 -282h-186
l-105 173l-106 -173h-188l183 282h222z" />
    <glyph glyph-name="gcircumflex" unicode="&#x11d;" horiz-adv-x="896" 
d="M450 354q-68 0 -128 20q-20 -15 -32 -33t-12 -37q0 -28 26 -45t87 -28l110 -21q79 -15 142 -39.5t106.5 -61t66.5 -86t23 -113.5q0 -54 -21.5 -109.5t-69.5 -101t-125.5 -74.5t-189.5 -29q-94 0 -166 20t-120.5 54t-73.5 79t-25 94q0 45 18 83.5t46 68t63 50t69 30.5
q-48 15 -79 36t-49 44.5t-25 47t-7 44.5q0 32 11.5 60.5t30 52.5t42.5 43t48 32q-56 48 -86 117.5t-30 152.5q0 76 24.5 140t70 110.5t110.5 72.5t145 26q87 0 156 -30q17 64 62 102.5t104 38.5q24 0 46.5 -1t43.5 -3v-153h-59q-38 0 -59.5 -12t-35.5 -41q46 -47 70.5 -110
t24.5 -140q0 -78 -25 -142.5t-70.5 -111t-111 -72t-146.5 -25.5zM450 508q66 0 101 54t35 143q0 88 -36.5 141t-99.5 53t-97.5 -52t-34.5 -142t33 -143.5t99 -53.5zM383 47q-20 -7 -44 -20.5t-45 -33t-35.5 -44.5t-14.5 -56q0 -64 45 -102.5t133 -38.5t137.5 40t49.5 106
q0 55 -39 89.5t-124 48.5zM562 1430l180 -282h-186l-105 173l-106 -173h-188l183 282h222z" />
    <glyph glyph-name="Gbreve" unicode="&#x11e;" horiz-adv-x="1082" 
d="M798 257q-11 -142 -85 -217t-195 -75q-127 0 -212.5 58.5t-137 159.5t-73.5 236t-22 288q0 80 6.5 168t24.5 172t51 160t87 133.5t131 91.5t184 34q100 0 176 -34.5t128.5 -98.5t82 -154t37.5 -202l-232 -21q-8 63 -21.5 117t-36 94.5t-57 63.5t-84.5 23
q-65 0 -107.5 -38.5t-67 -109t-34.5 -169.5t-10 -220q0 -134 11 -235t36.5 -168.5t67.5 -102t104 -34.5q36 0 73 16.5t66.5 58.5t47 115t16.5 186l5 -28l-5 38h-213v195h440q0 -104 -1 -207t0.5 -200.5t8 -186.5t20.5 -164h-183q-21 117 -24 242zM828 1832
q-12 -125 -76 -190.5t-193 -65.5q-131 0 -198 65.5t-75 190.5l166 35q2 -148 107 -148q51 0 77 38t27 110z" />
    <glyph glyph-name="gbreve" unicode="&#x11f;" horiz-adv-x="896" 
d="M450 354q-68 0 -128 20q-20 -15 -32 -33t-12 -37q0 -28 26 -45t87 -28l110 -21q79 -15 142 -39.5t106.5 -61t66.5 -86t23 -113.5q0 -54 -21.5 -109.5t-69.5 -101t-125.5 -74.5t-189.5 -29q-94 0 -166 20t-120.5 54t-73.5 79t-25 94q0 45 18 83.5t46 68t63 50t69 30.5
q-48 15 -79 36t-49 44.5t-25 47t-7 44.5q0 32 11.5 60.5t30 52.5t42.5 43t48 32q-56 48 -86 117.5t-30 152.5q0 76 24.5 140t70 110.5t110.5 72.5t145 26q87 0 156 -30q17 64 62 102.5t104 38.5q24 0 46.5 -1t43.5 -3v-153h-59q-38 0 -59.5 -12t-35.5 -41q46 -47 70.5 -110
t24.5 -140q0 -78 -25 -142.5t-70.5 -111t-111 -72t-146.5 -25.5zM450 508q66 0 101 54t35 143q0 88 -36.5 141t-99.5 53t-97.5 -52t-34.5 -142t33 -143.5t99 -53.5zM383 47q-20 -7 -44 -20.5t-45 -33t-35.5 -44.5t-14.5 -56q0 -64 45 -102.5t133 -38.5t137.5 40t49.5 106
q0 55 -39 89.5t-124 48.5zM735 1417q-12 -125 -76 -190.5t-193 -65.5q-131 0 -198 65.5t-75 190.5l166 35q2 -148 107 -148q51 0 77 38t27 110z" />
    <glyph glyph-name="Gdotaccent" unicode="&#x120;" horiz-adv-x="1082" 
d="M798 257q-11 -142 -85 -217t-195 -75q-127 0 -212.5 58.5t-137 159.5t-73.5 236t-22 288q0 80 6.5 168t24.5 172t51 160t87 133.5t131 91.5t184 34q100 0 176 -34.5t128.5 -98.5t82 -154t37.5 -202l-232 -21q-8 63 -21.5 117t-36 94.5t-57 63.5t-84.5 23
q-65 0 -107.5 -38.5t-67 -109t-34.5 -169.5t-10 -220q0 -134 11 -235t36.5 -168.5t67.5 -102t104 -34.5q36 0 73 16.5t66.5 58.5t47 115t16.5 186l5 -28l-5 38h-213v195h440q0 -104 -1 -207t0.5 -200.5t8 -186.5t20.5 -164h-183q-21 117 -24 242zM458 1576v209h208v-209
h-208z" />
    <glyph glyph-name="gdotaccent" unicode="&#x121;" horiz-adv-x="896" 
d="M450 354q-68 0 -128 20q-20 -15 -32 -33t-12 -37q0 -28 26 -45t87 -28l110 -21q79 -15 142 -39.5t106.5 -61t66.5 -86t23 -113.5q0 -54 -21.5 -109.5t-69.5 -101t-125.5 -74.5t-189.5 -29q-94 0 -166 20t-120.5 54t-73.5 79t-25 94q0 45 18 83.5t46 68t63 50t69 30.5
q-48 15 -79 36t-49 44.5t-25 47t-7 44.5q0 32 11.5 60.5t30 52.5t42.5 43t48 32q-56 48 -86 117.5t-30 152.5q0 76 24.5 140t70 110.5t110.5 72.5t145 26q87 0 156 -30q17 64 62 102.5t104 38.5q24 0 46.5 -1t43.5 -3v-153h-59q-38 0 -59.5 -12t-35.5 -41q46 -47 70.5 -110
t24.5 -140q0 -78 -25 -142.5t-70.5 -111t-111 -72t-146.5 -25.5zM450 508q66 0 101 54t35 143q0 88 -36.5 141t-99.5 53t-97.5 -52t-34.5 -142t33 -143.5t99 -53.5zM383 47q-20 -7 -44 -20.5t-45 -33t-35.5 -44.5t-14.5 -56q0 -64 45 -102.5t133 -38.5t137.5 40t49.5 106
q0 55 -39 89.5t-124 48.5zM366 1161v209h208v-209h-208z" />
    <glyph glyph-name="Gcommaaccent" unicode="&#x122;" horiz-adv-x="1082" 
d="M798 257q-11 -142 -85 -217t-195 -75q-127 0 -212.5 58.5t-137 159.5t-73.5 236t-22 288q0 80 6.5 168t24.5 172t51 160t87 133.5t131 91.5t184 34q100 0 176 -34.5t128.5 -98.5t82 -154t37.5 -202l-232 -21q-8 63 -21.5 117t-36 94.5t-57 63.5t-84.5 23
q-65 0 -107.5 -38.5t-67 -109t-34.5 -169.5t-10 -220q0 -134 11 -235t36.5 -168.5t67.5 -102t104 -34.5q36 0 73 16.5t66.5 58.5t47 115t16.5 186l5 -28l-5 38h-213v195h440q0 -104 -1 -207t0.5 -200.5t8 -186.5t20.5 -164h-183q-21 117 -24 242zM420 -462q28 10 43.5 19.5
t23 21t9.5 26t2 32.5h-61v222h183v-209q0 -46 -9 -80.5t-29.5 -60.5t-54 -44.5t-82.5 -33.5z" />
    <glyph glyph-name="gcommaaccent" unicode="&#x123;" horiz-adv-x="896" 
d="M450 354q-68 0 -128 20q-20 -15 -32 -33t-12 -37q0 -28 26 -45t87 -28l110 -21q79 -15 142 -39.5t106.5 -61t66.5 -86t23 -113.5q0 -54 -21.5 -109.5t-69.5 -101t-125.5 -74.5t-189.5 -29q-94 0 -166 20t-120.5 54t-73.5 79t-25 94q0 45 18 83.5t46 68t63 50t69 30.5
q-48 15 -79 36t-49 44.5t-25 47t-7 44.5q0 32 11.5 60.5t30 52.5t42.5 43t48 32q-56 48 -86 117.5t-30 152.5q0 76 24.5 140t70 110.5t110.5 72.5t145 26q87 0 156 -30q17 64 62 102.5t104 38.5q24 0 46.5 -1t43.5 -3v-153h-59q-38 0 -59.5 -12t-35.5 -41q46 -47 70.5 -110
t24.5 -140q0 -78 -25 -142.5t-70.5 -111t-111 -72t-146.5 -25.5zM450 508q66 0 101 54t35 143q0 88 -36.5 141t-99.5 53t-97.5 -52t-34.5 -142t33 -143.5t99 -53.5zM383 47q-20 -7 -44 -20.5t-45 -33t-35.5 -44.5t-14.5 -56q0 -64 45 -102.5t133 -38.5t137.5 40t49.5 106
q0 55 -39 89.5t-124 48.5zM564 1476q-28 -10 -43.5 -19.5t-23 -21t-9.5 -26t-2 -32.5h61v-223h-184v210q0 45 9 79.5t30 60.5t54.5 44.5t82.5 33.5z" />
    <glyph glyph-name="Hcircumflex" unicode="&#x124;" horiz-adv-x="1108" 
d="M743 0v631h-378v-631h-247v1432h247v-592h378v592h246v-1432h-246zM671 1858l180 -282h-186l-105 173l-106 -173h-188l183 282h222z" />
    <glyph glyph-name="hcircumflex" unicode="&#x125;" horiz-adv-x="929" 
d="M604 0v707q0 30 -3.5 60t-15.5 54.5t-33.5 39.5t-57.5 15q-70 0 -111.5 -73t-41.5 -218v-585h-234v1446h234v-574q23 88 88.5 135t163.5 47q57 0 97.5 -17.5t67.5 -45.5t43 -63t24 -71.5t10.5 -70.5t2.5 -59v-727h-234zM335 1860l180 -282h-186l-105 173l-106 -173h-188
l183 282h222z" />
    <glyph glyph-name="Hbar" unicode="&#x126;" horiz-adv-x="1108" 
d="M743 0v631h-378v-631h-247v1432h247v-179h378v179h246v-1432h-246zM743 840v240h-378v-240h378z" />
    <glyph glyph-name="hbar" unicode="&#x127;" horiz-adv-x="929" 
d="M604 0v707q0 30 -3.5 60t-15.5 54.5t-33.5 39.5t-57.5 15q-70 0 -111.5 -73t-41.5 -218v-585h-234v1173h-93v150h93v123h234v-123h170v-150h-170v-301q23 88 88.5 135t163.5 47q57 0 97.5 -17.5t67.5 -45.5t43 -63t24 -71.5t10.5 -70.5t2.5 -59v-727h-234z" />
    <glyph glyph-name="Itilde" unicode="&#x128;" horiz-adv-x="483" 
d="M118 0v1432h247v-1432h-247zM-69 1600q2 121 49.5 182.5t128.5 61.5q25 0 45 -6t37 -15.5t32.5 -21.5t32.5 -23q27 -20 45 -30t36 -10q16 0 28 8.5t19.5 22.5t11.5 32t4 37l142 -18q-5 -117 -50 -180t-129 -63q-26 0 -46.5 6.5t-38.5 17t-34 23t-33 24.5q-14 9 -33.5 22
t-42.5 13q-17 0 -28.5 -9t-19 -23t-11.5 -32t-5 -36z" />
    <glyph glyph-name="itilde" unicode="&#x129;" horiz-adv-x="438" 
d="M-90 1185q2 121 49.5 182.5t128.5 61.5q25 0 45 -6t37 -15.5t32.5 -21.5t32.5 -23q27 -20 45 -30t36 -10q16 0 28 8.5t19.5 22.5t11.5 32t4 37l142 -18q-5 -117 -50 -180t-129 -63q-26 0 -46.5 6.5t-38.5 17t-34 23t-33 24.5q-14 9 -33.5 22t-42.5 13q-17 0 -28.5 -9
t-19 -23t-11.5 -32t-5 -36zM102 0v1026h234v-1026h-234z" />
    <glyph glyph-name="Imacron" unicode="&#x12a;" horiz-adv-x="483" 
d="M118 0v1432h247v-1432h-247zM-12 1579v174h508v-174h-508z" />
    <glyph glyph-name="imacron" unicode="&#x12b;" horiz-adv-x="438" 
d="M-32 1164v174h508v-174h-508zM102 0v1026h234v-1026h-234z" />
    <glyph glyph-name="Ibreve" unicode="&#x12c;" horiz-adv-x="483" 
d="M118 0v1432h247v-1432h-247zM509 1834q-12 -125 -76 -190.5t-193 -65.5q-131 0 -198 65.5t-75 190.5l166 35q2 -148 107 -148q51 0 77 38t27 110z" />
    <glyph glyph-name="ibreve" unicode="&#x12d;" horiz-adv-x="438" 
d="M487 1419q-12 -125 -76 -190.5t-193 -65.5q-131 0 -198 65.5t-75 190.5l166 35q2 -148 107 -148q51 0 77 38t27 110zM102 0v1026h234v-1026h-234z" />
    <glyph glyph-name="Iogonek" unicode="&#x12e;" horiz-adv-x="483" 
d="M118 0v1432h247v-1432h-247zM364 -322q-26 -27 -61 -44t-93 -17q-41 0 -75.5 10.5t-59.5 31.5t-39 52.5t-14 72.5q0 60 35.5 117t107.5 105l177 -6q-32 -18 -59 -37t-46.5 -40.5t-30.5 -46t-11 -52.5q0 -29 14 -50.5t47 -21.5q16 0 31.5 5t32.5 20z" />
    <glyph glyph-name="iogonek" unicode="&#x12f;" horiz-adv-x="438" 
d="M102 0v1026h234v-1026h-234zM100 1217v215h239v-215h-239zM343 -322q-26 -27 -61 -44t-93 -17q-41 0 -75.5 10.5t-59.5 31.5t-39 52.5t-14 72.5q0 60 35.5 117t107.5 105l177 -6q-32 -18 -59 -37t-46.5 -40.5t-30.5 -46t-11 -52.5q0 -29 14 -50.5t47 -21.5q16 0 31.5 5
t32.5 20z" />
    <glyph glyph-name="Idotaccent" unicode="&#x130;" horiz-adv-x="483" 
d="M118 0v1432h247v-1432h-247zM137 1577v209h208v-209h-208z" />
    <glyph glyph-name="dotlessi" unicode="&#x131;" horiz-adv-x="438" 
d="M102 0v1026h234v-1026h-234z" />
    <glyph glyph-name="IJ" unicode="&#x132;" horiz-adv-x="1210" 
d="M118 0v1432h247v-1432h-247zM678 188q101 0 142.5 60.5t41.5 183.5v1000h246v-977q0 -60 -5.5 -119.5t-20 -114t-40.5 -101.5t-66.5 -81.5t-98.5 -54t-136 -19.5q-34 0 -68.5 1.5t-65.5 3.5t-57 4.5t-44 5.5v208h172z" />
    <glyph glyph-name="ij" unicode="&#x133;" horiz-adv-x="874" 
d="M102 0v1026h234v-1026h-234zM100 1217v215h239v-215h-239zM540 1026h234v-991q0 -79 -5.5 -150.5t-30 -126t-74 -86.5t-137.5 -32q-29 0 -59.5 1t-58 2.5t-50.5 4t-37 4.5v174h132q86 -2 86 120v1080zM538 1217v215h239v-215h-239z" />
    <glyph glyph-name="Jcircumflex" unicode="&#x134;" horiz-adv-x="727" 
d="M195 188q101 0 142.5 60.5t41.5 183.5v1000h246v-977q0 -60 -5.5 -119.5t-20 -114t-40.5 -101.5t-66.5 -81.5t-98.5 -54t-136 -19.5q-34 0 -68.5 1.5t-65.5 3.5t-57 4.5t-44 5.5v208h172zM624 1859l180 -282h-186l-105 173l-106 -173h-188l183 282h222z" />
    <glyph glyph-name="jcircumflex" unicode="&#x135;" horiz-adv-x="438" 
d="M102 1026h234v-991q0 -79 -5.5 -150.5t-30 -126t-74 -86.5t-137.5 -32q-29 0 -59.5 1t-58 2.5t-50.5 4t-37 4.5v174h132q86 -2 86 120v1080zM327 1447l180 -282h-186l-105 173l-106 -173h-188l183 282h222z" />
    <glyph glyph-name="Kcommaaccent" unicode="&#x136;" horiz-adv-x="1045" 
d="M765 0l-274 676l-133 -202l7 -474h-247v1432h247l-7 -643l387 643h256l-347 -544l374 -888h-263zM444 -395q28 10 43.5 19.5t23 21t9.5 26t2 32.5h-61v222h183v-209q0 -46 -9 -80.5t-29.5 -60.5t-54 -44.5t-82.5 -33.5z" />
    <glyph glyph-name="kcommaaccent" unicode="&#x137;" horiz-adv-x="887" 
d="M626 0l-185 485l-100 -158v-327h-234v1446h234v-870l276 450h236l-250 -373l267 -653h-244zM343 -410q28 10 43.5 19.5t23 21t9.5 26t2 32.5h-61v222h183v-209q0 -46 -9 -80.5t-29.5 -60.5t-54 -44.5t-82.5 -33.5z" />
    <glyph glyph-name="kgreenlandic" unicode="&#x138;" horiz-adv-x="887" 
d="M626 0l-185 485l-100 -158v-327h-234v1026h234v-450l276 450h236l-250 -373l267 -653h-244z" />
    <glyph glyph-name="Lacute" unicode="&#x139;" horiz-adv-x="831" 
d="M118 0v1432h247v-1222h442v-210h-689zM162 1574l129 310h252l-226 -310h-155z" />
    <glyph glyph-name="lacute" unicode="&#x13a;" horiz-adv-x="447" 
d="M107 0v1446h234v-1446h-234zM144 1576l129 310h252l-226 -310h-155z" />
    <glyph glyph-name="Lcommaaccent" unicode="&#x13b;" horiz-adv-x="831" 
d="M118 0v1432h247v-1222h442v-210h-689zM336 -410q28 10 43.5 19.5t23 21t9.5 26t2 32.5h-61v222h183v-209q0 -46 -9 -80.5t-29.5 -60.5t-54 -44.5t-82.5 -33.5z" />
    <glyph glyph-name="lcommaaccent" unicode="&#x13c;" horiz-adv-x="447" 
d="M107 0v1446h234v-1446h-234zM123 -410q28 10 43.5 19.5t23 21t9.5 26t2 32.5h-61v222h183v-209q0 -46 -9 -80.5t-29.5 -60.5t-54 -44.5t-82.5 -33.5z" />
    <glyph glyph-name="Lcaron" unicode="&#x13d;" horiz-adv-x="831" 
d="M118 0v1432h247v-1222h442v-210h-689zM635 1112q28 10 43.5 19.5t23 21t9.5 26t2 32.5h-61v222h183v-209q0 -46 -9 -80.5t-29.5 -60.5t-54 -44.5t-82.5 -33.5z" />
    <glyph glyph-name="lcaron" unicode="&#x13e;" horiz-adv-x="688" 
d="M107 0v1446h234v-1446h-234zM476 1110q28 10 43.5 19.5t23 21t9.5 26t2 32.5h-61v222h183v-209q0 -46 -9 -80.5t-29.5 -60.5t-54 -44.5t-82.5 -33.5z" />
    <glyph glyph-name="Ldot" unicode="&#x13f;" horiz-adv-x="831" 
d="M118 0v1432h247v-1222h442v-210h-689zM524 589v310h229v-310h-229z" />
    <glyph glyph-name="ldot" unicode="&#x140;" horiz-adv-x="709" 
d="M107 0v1446h234v-1446h-234zM478 529v310h229v-310h-229z" />
    <glyph glyph-name="Lslash" unicode="&#x141;" horiz-adv-x="898" 
d="M185 0v539l-117 -51l-77 192l194 83v669h247v-562l156 67l76 -190l-232 -101v-436h441v-210h-688z" />
    <glyph glyph-name="lslash" unicode="&#x142;" horiz-adv-x="664" 
d="M222 0v537l-143 -62l-77 192l220 94v685h233v-584l144 62l76 -191l-220 -95v-638h-233z" />
    <glyph glyph-name="Nacute" unicode="&#x143;" horiz-adv-x="1112" 
d="M740 0l-368 890l-61 162l22 -173v-879h-215v1432h255l367 -890l62 -164l-23 173v881h215v-1432h-254zM496 1577l129 310h252l-226 -310h-155z" />
    <glyph glyph-name="nacute" unicode="&#x144;" horiz-adv-x="924" 
d="M598 0v700q0 33 -3.5 64.5t-15 56t-33 40t-57.5 15.5q-70 0 -111.5 -73t-41.5 -218v-585h-234v1026h218v-168q27 95 98 145.5t165 50.5q57 0 97.5 -17.5t68.5 -45.5t44.5 -64t25.5 -73t11.5 -72.5t2.5 -62.5v-719h-235zM402 1159l129 310h252l-226 -310h-155z" />
    <glyph glyph-name="Ncommaaccent" unicode="&#x145;" horiz-adv-x="1112" 
d="M740 0l-368 890l-61 162l22 -173v-879h-215v1432h255l367 -890l62 -164l-23 173v881h215v-1432h-254zM423 -401q28 10 43.5 19.5t23 21t9.5 26t2 32.5h-61v222h183v-209q0 -46 -9 -80.5t-29.5 -60.5t-54 -44.5t-82.5 -33.5z" />
    <glyph glyph-name="ncommaaccent" unicode="&#x146;" horiz-adv-x="924" 
d="M598 0v700q0 33 -3.5 64.5t-15 56t-33 40t-57.5 15.5q-70 0 -111.5 -73t-41.5 -218v-585h-234v1026h218v-168q27 95 98 145.5t165 50.5q57 0 97.5 -17.5t68.5 -45.5t44.5 -64t25.5 -73t11.5 -72.5t2.5 -62.5v-719h-235zM362 -410q28 10 43.5 19.5t23 21t9.5 26t2 32.5
h-61v222h183v-209q0 -46 -9 -80.5t-29.5 -60.5t-54 -44.5t-82.5 -33.5z" />
    <glyph glyph-name="Ncaron" unicode="&#x147;" horiz-adv-x="1112" 
d="M740 0l-368 890l-61 162l22 -173v-879h-215v1432h255l367 -890l62 -164l-23 173v881h215v-1432h-254zM465 1576l-183 282h188l106 -172l105 172h186l-180 -282h-222z" />
    <glyph glyph-name="ncaron" unicode="&#x148;" horiz-adv-x="924" 
d="M598 0v700q0 33 -3.5 64.5t-15 56t-33 40t-57.5 15.5q-70 0 -111.5 -73t-41.5 -218v-585h-234v1026h218v-168q27 95 98 145.5t165 50.5q57 0 97.5 -17.5t68.5 -45.5t44.5 -64t25.5 -73t11.5 -72.5t2.5 -62.5v-719h-235zM370 1158l-183 282h188l106 -172l105 172h186
l-180 -282h-222z" />
    <glyph glyph-name="napostrophe" unicode="&#x149;" horiz-adv-x="1144" 
d="M818 0v700q0 33 -3.5 64.5t-15 56t-33 40t-57.5 15.5q-70 0 -111.5 -73t-41.5 -218v-585h-234v1026h218v-168q27 95 98 145.5t165 50.5q57 0 97.5 -17.5t68.5 -45.5t44.5 -64t25.5 -73t11.5 -72.5t2.5 -62.5v-719h-235zM30 1110q28 10 43.5 19.5t23 21t9.5 26t2 32.5h-61
v222h183v-209q0 -46 -9 -80.5t-29.5 -60.5t-54 -44.5t-82.5 -33.5z" />
    <glyph glyph-name="Eng" unicode="&#x14a;" horiz-adv-x="1118" 
d="M571 -164q20 -4 45 -4q37 0 61.5 13t39 36t21.5 54t10 67l-367 868l-61 162l22 -173v-859h-221v1432h247l369 -871l60 -163l-22 174v860h221v-1345q0 -61 -5 -120t-19.5 -112t-39.5 -98.5t-65.5 -78t-98 -51t-135.5 -18.5q-38 0 -64 4t-43 10z" />
    <glyph glyph-name="eng" unicode="&#x14b;" horiz-adv-x="933" 
d="M832 -12q0 -79 -5 -150.5t-30 -125.5t-77 -86t-146 -32q-46 0 -89.5 8.5t-78.5 19.5l35 167q20 -4 39 -6.5t36 -2.5q42 0 62 28t20 91v801q0 33 -3.5 64.5t-15 56t-33 40t-57.5 15.5q-70 0 -112 -73t-42 -218v-585h-233v1026h218v-168q13 47 38 83.5t59.5 61.5t77 38
t89.5 13q57 0 97.5 -17.5t68 -45.5t44 -64t25 -73t11 -72.5t2.5 -62.5v-731v0z" />
    <glyph glyph-name="Omacron" unicode="&#x14c;" horiz-adv-x="1105" 
d="M552 -35q-246 0 -362.5 191t-116.5 558q0 370 117 561t364 191q244 0 361 -191.5t117 -562.5q0 -183 -28.5 -322.5t-87.5 -234t-149.5 -142.5t-214.5 -48zM553 178q63 0 105.5 33.5t68.5 100t37 167t11 235.5t-11.5 236.5t-37.5 168.5t-68.5 100.5t-104.5 33.5
t-104.5 -33.5t-68.5 -101t-37.5 -168.5t-11.5 -237q0 -134 11 -234.5t37 -167.5t68.5 -100t105.5 -33zM305 1577v174h508v-174h-508z" />
    <glyph glyph-name="omacron" unicode="&#x14d;" horiz-adv-x="877" 
d="M439 -28q-111 0 -184 41t-117 113.5t-62 171.5t-18 215t18 215t62 171.5t117.5 113.5t183.5 41q109 0 182.5 -41t117.5 -113t62.5 -171t18.5 -215t-18.5 -215.5t-62.5 -172t-117 -113.5t-183 -41zM439 141q39 0 65.5 20t43.5 64t24.5 115t7.5 173t-7.5 173t-24 115.5
t-43.5 64.5t-66 20t-66.5 -20t-44 -64.5t-24 -115.5t-7.5 -173t7.5 -173t24.5 -115t44 -64t66 -20zM186 1163v174h508v-174h-508z" />
    <glyph glyph-name="Obreve" unicode="&#x14e;" horiz-adv-x="1105" 
d="M552 -35q-246 0 -362.5 191t-116.5 558q0 370 117 561t364 191q244 0 361 -191.5t117 -562.5q0 -183 -28.5 -322.5t-87.5 -234t-149.5 -142.5t-214.5 -48zM553 178q63 0 105.5 33.5t68.5 100t37 167t11 235.5t-11.5 236.5t-37.5 168.5t-68.5 100.5t-104.5 33.5
t-104.5 -33.5t-68.5 -101t-37.5 -168.5t-11.5 -237q0 -134 11 -234.5t37 -167.5t68.5 -100t105.5 -33zM825 1832q-12 -125 -76 -190.5t-193 -65.5q-131 0 -198 65.5t-75 190.5l166 35q2 -148 107 -148q51 0 77 38t27 110z" />
    <glyph glyph-name="obreve" unicode="&#x14f;" horiz-adv-x="877" 
d="M439 -28q-111 0 -184 41t-117 113.5t-62 171.5t-18 215t18 215t62 171.5t117.5 113.5t183.5 41q109 0 182.5 -41t117.5 -113t62.5 -171t18.5 -215t-18.5 -215.5t-62.5 -172t-117 -113.5t-183 -41zM439 141q39 0 65.5 20t43.5 64t24.5 115t7.5 173t-7.5 173t-24 115.5
t-43.5 64.5t-66 20t-66.5 -20t-44 -64.5t-24 -115.5t-7.5 -173t7.5 -173t24.5 -115t44 -64t66 -20zM706 1418q-12 -125 -76 -190.5t-193 -65.5q-131 0 -198 65.5t-75 190.5l166 35q2 -148 107 -148q51 0 77 38t27 110z" />
    <glyph glyph-name="Ohungarumlaut" unicode="&#x150;" horiz-adv-x="1105" 
d="M552 -35q-246 0 -362.5 191t-116.5 558q0 370 117 561t364 191q244 0 361 -191.5t117 -562.5q0 -183 -28.5 -322.5t-87.5 -234t-149.5 -142.5t-214.5 -48zM553 178q63 0 105.5 33.5t68.5 100t37 167t11 235.5t-11.5 236.5t-37.5 168.5t-68.5 100.5t-104.5 33.5
t-104.5 -33.5t-68.5 -101t-37.5 -168.5t-11.5 -237q0 -134 11 -234.5t37 -167.5t68.5 -100t105.5 -33zM640 1575l140 303h190l-193 -303h-137zM327 1577l132 301h184l-167 -303z" />
    <glyph glyph-name="ohungarumlaut" unicode="&#x151;" horiz-adv-x="877" 
d="M439 -28q-111 0 -184 41t-117 113.5t-62 171.5t-18 215t18 215t62 171.5t117.5 113.5t183.5 41q109 0 182.5 -41t117.5 -113t62.5 -171t18.5 -215t-18.5 -215.5t-62.5 -172t-117 -113.5t-183 -41zM439 141q39 0 65.5 20t43.5 64t24.5 115t7.5 173t-7.5 173t-24 115.5
t-43.5 64.5t-66 20t-66.5 -20t-44 -64.5t-24 -115.5t-7.5 -173t7.5 -173t24.5 -115t44 -64t66 -20zM522 1162l140 303h190l-193 -303h-137zM209 1164l132 301h184l-167 -303z" />
    <glyph glyph-name="OE" unicode="&#x152;" horiz-adv-x="1456" 
d="M736 0q-39 -17 -85.5 -26t-101.5 -9q-243 0 -359.5 191t-116.5 558q0 370 117 561t363 191q52 0 96.5 -8.5t82.5 -25.5h677v-210h-458v-389h427v-199h-427v-424h465v-210h-680zM551 178q58 0 95 32t59 98v782q-23 87 -59.5 125t-93.5 38q-62 0 -104 -33.5t-68 -101
t-37.5 -168.5t-11.5 -237q0 -134 11.5 -234.5t37 -167.5t67.5 -100t104 -33z" />
    <glyph glyph-name="oe" unicode="&#x153;" horiz-adv-x="1397" 
d="M1313 272q-11 -62 -34.5 -117t-64.5 -95.5t-101.5 -64t-144.5 -23.5q-111 0 -184 42.5t-116 116.5t-60.5 174.5t-17.5 217.5q0 121 19.5 219t64 167.5t117 107t178.5 37.5q186 0 271.5 -117t85.5 -357v-122h-504q0 -166 35 -241.5t113 -75.5q58 0 88 39t43 120zM1099 618
q0 73 -6.5 125t-22.5 85.5t-42 49t-66 15.5q-39 0 -65 -20.5t-42 -57t-23.5 -87t-9.5 -110.5h277zM444 -28q-111 0 -184 41t-117 113.5t-62 171.5t-18 215t18 215t62 171.5t117.5 113.5t183.5 41q109 0 182.5 -41t117.5 -113t62.5 -171t18.5 -215t-18.5 -215.5t-62.5 -172
t-117 -113.5t-183 -41zM444 141q39 0 65.5 20t43.5 64t24.5 115t7.5 173t-7.5 173t-24 115.5t-43.5 64.5t-66 20t-66.5 -20t-44 -64.5t-24 -115.5t-7.5 -173t7.5 -173t24.5 -115t44 -64t66 -20z" />
    <glyph glyph-name="Racute" unicode="&#x154;" horiz-adv-x="995" 
d="M678 0q-6 27 -13 64.5t-12 104.5l-10 184q-6 106 -49.5 161t-114.5 55h-121v-569h-240v1432h393q111 0 190 -28t129.5 -80.5t74 -127.5t23.5 -168q0 -74 -11 -135.5t-36.5 -110t-66 -82.5t-98.5 -52q70 -14 114 -80.5t53 -202.5l10 -205q4 -62 14 -100t16 -60h-245z
M482 763q106 0 151.5 58.5t45.5 181.5q0 63 -11 106.5t-36.5 70t-67.5 38t-103 11.5h-103v-466h124zM368 1577l129 310h252l-226 -310h-155z" />
    <glyph glyph-name="racute" unicode="&#x155;" horiz-adv-x="654" 
d="M102 0v1026h220v-181q27 86 87.5 135.5t148.5 49.5h87v-169h-64q-56 0 -96 -19t-67 -49.5t-43 -69t-24.5 -78.5t-11 -77t-2.5 -64l-1 -504h-234zM284 1160l129 310h252l-226 -310h-155z" />
    <glyph glyph-name="Rcommaaccent" unicode="&#x156;" horiz-adv-x="995" 
d="M678 0q-6 27 -13 64.5t-12 104.5l-10 184q-6 106 -49.5 161t-114.5 55h-121v-569h-240v1432h393q111 0 190 -28t129.5 -80.5t74 -127.5t23.5 -168q0 -74 -11 -135.5t-36.5 -110t-66 -82.5t-98.5 -52q70 -14 114 -80.5t53 -202.5l10 -205q4 -62 14 -100t16 -60h-245z
M482 763q106 0 151.5 58.5t45.5 181.5q0 63 -11 106.5t-36.5 70t-67.5 38t-103 11.5h-103v-466h124zM408 -410q28 10 43.5 19.5t23 21t9.5 26t2 32.5h-61v222h183v-209q0 -46 -9 -80.5t-29.5 -60.5t-54 -44.5t-82.5 -33.5z" />
    <glyph glyph-name="rcommaaccent" unicode="&#x157;" horiz-adv-x="654" 
d="M102 0v1026h220v-181q27 86 87.5 135.5t148.5 49.5h87v-169h-64q-56 0 -96 -19t-67 -49.5t-43 -69t-24.5 -78.5t-11 -77t-2.5 -64l-1 -504h-234zM118 -410q28 10 43.5 19.5t23 21t9.5 26t2 32.5h-61v222h183v-209q0 -46 -9 -80.5t-29.5 -60.5t-54 -44.5t-82.5 -33.5z" />
    <glyph glyph-name="Rcaron" unicode="&#x158;" horiz-adv-x="995" 
d="M678 0q-6 27 -13 64.5t-12 104.5l-10 184q-6 106 -49.5 161t-114.5 55h-121v-569h-240v1432h393q111 0 190 -28t129.5 -80.5t74 -127.5t23.5 -168q0 -74 -11 -135.5t-36.5 -110t-66 -82.5t-98.5 -52q70 -14 114 -80.5t53 -202.5l10 -205q4 -62 14 -100t16 -60h-245z
M482 763q106 0 151.5 58.5t45.5 181.5q0 63 -11 106.5t-36.5 70t-67.5 38t-103 11.5h-103v-466h124zM336 1576l-183 282h188l106 -172l105 172h186l-180 -282h-222z" />
    <glyph glyph-name="rcaron" unicode="&#x159;" horiz-adv-x="654" 
d="M102 0v1026h220v-181q27 86 87.5 135.5t148.5 49.5h87v-169h-64q-56 0 -96 -19t-67 -49.5t-43 -69t-24.5 -78.5t-11 -77t-2.5 -64l-1 -504h-234zM259 1159l-183 282h188l106 -172l105 172h186l-180 -282h-222z" />
    <glyph glyph-name="Sacute" unicode="&#x15a;" horiz-adv-x="940" 
d="M653 378q0 49 -13.5 83t-39 60t-62.5 47.5t-85 46.5l-71 38q-77 40 -136 79t-99 85.5t-60.5 103.5t-20.5 132q0 93 30 169t83 130t125.5 84t157.5 30q51 0 101 -7t101.5 -24.5t104 -46.5t108.5 -73l-96 -168q-86 61 -157.5 83.5t-135.5 22.5q-46 0 -78.5 -17.5t-53.5 -44
t-30.5 -58t-9.5 -60.5q0 -43 15 -75t39 -56t54 -42.5t59 -34.5l86 -45q87 -44 150 -87t104 -94t61 -113.5t20 -145.5q0 -89 -30.5 -164.5t-87.5 -131.5t-137.5 -87.5t-179.5 -31.5q-75 0 -140 13t-119 34t-97 46t-75 49l95 187q47 -30 88.5 -51.5t81 -36t79.5 -21.5t84 -7
q51 0 86.5 18.5t58 47t32.5 64t10 70.5zM405 1575l129 310h252l-226 -310h-155z" />
    <glyph glyph-name="sacute" unicode="&#x15b;" horiz-adv-x="787" 
d="M278 468q-47 21 -85 47t-65 60.5t-42 79.5t-15 103q0 67 24 121.5t66.5 93.5t100 60t125.5 21q52 0 97.5 -8.5t85.5 -25.5t76 -42.5t70 -59.5l-104 -137q-51 49 -100.5 73.5t-104.5 24.5q-24 0 -44.5 -6.5t-36 -20.5t-24.5 -35.5t-9 -51.5q0 -50 25 -80.5t80 -54.5
l104 -47q66 -29 110.5 -60.5t72 -68t39.5 -78t12 -89.5q0 -72 -22.5 -130.5t-67 -99.5t-109.5 -63t-149 -22q-59 0 -111 13t-97.5 34.5t-83 49t-67.5 57.5l103 144q18 -20 45.5 -41.5t59.5 -39.5t67.5 -30t69.5 -12q62 0 100.5 31.5t38.5 93.5q0 25 -6 45t-21 37.5t-41.5 34
t-66.5 33.5zM311 1159l129 310h252l-226 -310h-155z" />
    <glyph glyph-name="Scircumflex" unicode="&#x15c;" horiz-adv-x="940" 
d="M653 378q0 49 -13.5 83t-39 60t-62.5 47.5t-85 46.5l-71 38q-77 40 -136 79t-99 85.5t-60.5 103.5t-20.5 132q0 93 30 169t83 130t125.5 84t157.5 30q51 0 101 -7t101.5 -24.5t104 -46.5t108.5 -73l-96 -168q-86 61 -157.5 83.5t-135.5 22.5q-46 0 -78.5 -17.5t-53.5 -44
t-30.5 -58t-9.5 -60.5q0 -43 15 -75t39 -56t54 -42.5t59 -34.5l86 -45q87 -44 150 -87t104 -94t61 -113.5t20 -145.5q0 -89 -30.5 -164.5t-87.5 -131.5t-137.5 -87.5t-179.5 -31.5q-75 0 -140 13t-119 34t-97 46t-75 49l95 187q47 -30 88.5 -51.5t81 -36t79.5 -21.5t84 -7
q51 0 86.5 18.5t58 47t32.5 64t10 70.5zM578 1858l180 -282h-186l-105 173l-106 -173h-188l183 282h222z" />
    <glyph glyph-name="scircumflex" unicode="&#x15d;" horiz-adv-x="787" 
d="M278 468q-47 21 -85 47t-65 60.5t-42 79.5t-15 103q0 67 24 121.5t66.5 93.5t100 60t125.5 21q52 0 97.5 -8.5t85.5 -25.5t76 -42.5t70 -59.5l-104 -137q-51 49 -100.5 73.5t-104.5 24.5q-24 0 -44.5 -6.5t-36 -20.5t-24.5 -35.5t-9 -51.5q0 -50 25 -80.5t80 -54.5
l104 -47q66 -29 110.5 -60.5t72 -68t39.5 -78t12 -89.5q0 -72 -22.5 -130.5t-67 -99.5t-109.5 -63t-149 -22q-59 0 -111 13t-97.5 34.5t-83 49t-67.5 57.5l103 144q18 -20 45.5 -41.5t59.5 -39.5t67.5 -30t69.5 -12q62 0 100.5 31.5t38.5 93.5q0 25 -6 45t-21 37.5t-41.5 34
t-66.5 33.5zM512 1442l180 -282h-186l-105 173l-106 -173h-188l183 282h222z" />
    <glyph glyph-name="Scedilla" unicode="&#x15e;" horiz-adv-x="940" 
d="M653 378q0 49 -13.5 83t-39 60t-62.5 47.5t-85 46.5l-71 38q-77 40 -136 79t-99 85.5t-60.5 103.5t-20.5 132q0 93 30 169t83 130t125.5 84t157.5 30q51 0 101 -7t101.5 -24.5t104 -46.5t108.5 -73l-96 -168q-86 61 -157.5 83.5t-135.5 22.5q-46 0 -78.5 -17.5t-53.5 -44
t-30.5 -58t-9.5 -60.5q0 -43 15 -75t39 -56t54 -42.5t59 -34.5l86 -45q87 -44 150 -87t104 -94t61 -113.5t20 -145.5q0 -89 -30.5 -164.5t-87.5 -131.5t-137.5 -87.5t-179.5 -31.5q-75 0 -140 13t-119 34t-97 46t-75 49l95 187q47 -30 88.5 -51.5t81 -36t79.5 -21.5t84 -7
q51 0 86.5 18.5t58 47t32.5 64t10 70.5zM328 -273q10 -6 25 -13t32.5 -12t36 -8.5t35.5 -3.5q33 0 54 17t21 46t-17.5 47t-41.5 18q-23 0 -34 -8.5t-19 -16.5l-86 13l41 194l140 -5l-41 -117q11 10 24.5 15t44.5 5q68 0 108 -43t40 -111q0 -40 -16 -72t-44.5 -54
t-67.5 -33.5t-86 -11.5q-59 0 -105 16t-69 35z" />
    <glyph glyph-name="scedilla" unicode="&#x15f;" horiz-adv-x="787" 
d="M278 468q-47 21 -85 47t-65 60.5t-42 79.5t-15 103q0 67 24 121.5t66.5 93.5t100 60t125.5 21q52 0 97.5 -8.5t85.5 -25.5t76 -42.5t70 -59.5l-104 -137q-51 49 -100.5 73.5t-104.5 24.5q-24 0 -44.5 -6.5t-36 -20.5t-24.5 -35.5t-9 -51.5q0 -50 25 -80.5t80 -54.5
l104 -47q66 -29 110.5 -60.5t72 -68t39.5 -78t12 -89.5q0 -72 -22.5 -130.5t-67 -99.5t-109.5 -63t-149 -22q-59 0 -111 13t-97.5 34.5t-83 49t-67.5 57.5l103 144q18 -20 45.5 -41.5t59.5 -39.5t67.5 -30t69.5 -12q62 0 100.5 31.5t38.5 93.5q0 25 -6 45t-21 37.5t-41.5 34
t-66.5 33.5zM226 -264q10 -6 25 -13t32.5 -12t36 -8.5t35.5 -3.5q33 0 54 17t21 46t-17.5 47t-41.5 18q-23 0 -34 -8.5t-19 -16.5l-86 13l41 194l140 -5l-41 -117q11 10 24.5 15t44.5 5q68 0 108 -43t40 -111q0 -40 -16 -72t-44.5 -54t-67.5 -33.5t-86 -11.5q-59 0 -105 16
t-69 35z" />
    <glyph glyph-name="Scaron" unicode="&#x160;" horiz-adv-x="940" 
d="M653 378q0 49 -13.5 83t-39 60t-62.5 47.5t-85 46.5l-71 38q-77 40 -136 79t-99 85.5t-60.5 103.5t-20.5 132q0 93 30 169t83 130t125.5 84t157.5 30q51 0 101 -7t101.5 -24.5t104 -46.5t108.5 -73l-96 -168q-86 61 -157.5 83.5t-135.5 22.5q-46 0 -78.5 -17.5t-53.5 -44
t-30.5 -58t-9.5 -60.5q0 -43 15 -75t39 -56t54 -42.5t59 -34.5l86 -45q87 -44 150 -87t104 -94t61 -113.5t20 -145.5q0 -89 -30.5 -164.5t-87.5 -131.5t-137.5 -87.5t-179.5 -31.5q-75 0 -140 13t-119 34t-97 46t-75 49l95 187q47 -30 88.5 -51.5t81 -36t79.5 -21.5t84 -7
q51 0 86.5 18.5t58 47t32.5 64t10 70.5zM360 1574l-183 282h188l106 -172l105 172h186l-180 -282h-222z" />
    <glyph glyph-name="scaron" unicode="&#x161;" horiz-adv-x="787" 
d="M278 468q-47 21 -85 47t-65 60.5t-42 79.5t-15 103q0 67 24 121.5t66.5 93.5t100 60t125.5 21q52 0 97.5 -8.5t85.5 -25.5t76 -42.5t70 -59.5l-104 -137q-51 49 -100.5 73.5t-104.5 24.5q-24 0 -44.5 -6.5t-36 -20.5t-24.5 -35.5t-9 -51.5q0 -50 25 -80.5t80 -54.5
l104 -47q66 -29 110.5 -60.5t72 -68t39.5 -78t12 -89.5q0 -72 -22.5 -130.5t-67 -99.5t-109.5 -63t-149 -22q-59 0 -111 13t-97.5 34.5t-83 49t-67.5 57.5l103 144q18 -20 45.5 -41.5t59.5 -39.5t67.5 -30t69.5 -12q62 0 100.5 31.5t38.5 93.5q0 25 -6 45t-21 37.5t-41.5 34
t-66.5 33.5zM279 1157l-183 282h188l106 -172l105 172h186l-180 -282h-222z" />
    <glyph glyph-name="Tcommaaccent" unicode="&#x162;" horiz-adv-x="877" 
d="M315 0v1216h-304v216h855v-216h-304v-1216h-247zM342 -410q28 10 43.5 19.5t23 21t9.5 26t2 32.5h-61v222h183v-209q0 -46 -9 -80.5t-29.5 -60.5t-54 -44.5t-82.5 -33.5z" />
    <glyph glyph-name="tcommaaccent" unicode="&#x163;" horiz-adv-x="613" 
d="M586 -20q-13 -1 -36.5 -2.5t-49 -2.5t-50 -2t-40.5 -1q-77 0 -130.5 23t-88 67t-50 108.5t-15.5 147.5v541h-126v167h126v276l234 37v-313h207v-167h-207v-562q0 -134 108 -134h118v-183zM281 -410q28 10 43.5 19.5t23 21t9.5 26t2 32.5h-61v222h183v-209q0 -46 -9 -80.5
t-29.5 -60.5t-54 -44.5t-82.5 -33.5z" />
    <glyph glyph-name="Tcaron" unicode="&#x164;" horiz-adv-x="877" 
d="M315 0v1216h-304v216h855v-216h-304v-1216h-247zM335 1573l-183 282h188l106 -172l105 172h186l-180 -282h-222z" />
    <glyph glyph-name="tcaron" unicode="&#x165;" horiz-adv-x="818" 
d="M586 -20q-13 -1 -36.5 -2.5t-49 -2.5t-50 -2t-40.5 -1q-77 0 -130.5 23t-88 67t-50 108.5t-15.5 147.5v541h-126v167h126v276l234 37v-313h207v-167h-207v-562q0 -134 108 -134h118v-183zM648 1111q28 10 43.5 19.5t23 21t9.5 26t2 32.5h-61v222h183v-209q0 -46 -9 -80.5
t-29.5 -60.5t-54 -44.5t-82.5 -33.5z" />
    <glyph glyph-name="Tbar" unicode="&#x166;" horiz-adv-x="877" 
d="M315 0v1216h-304v216h855v-216h-304v-1216h-247zM196 609v174h508v-174h-508z" />
    <glyph glyph-name="tbar" unicode="&#x167;" horiz-adv-x="613" 
d="M586 -20q-14 -1 -37 -2.5t-48.5 -2.5t-50 -2t-40.5 -1q-77 0 -130.5 23t-88 67t-50 108.5t-15.5 147.5v245h-116v132h116v164h-126v167h126v276l234 37v-313h207v-167h-207v-164h158v-132h-158v-266q0 -134 107 -134h119v-183z" />
    <glyph glyph-name="Utilde" unicode="&#x168;" horiz-adv-x="1063" 
d="M727 1432h239v-927q0 -126 -24 -226t-76.5 -169.5t-135 -107t-199.5 -37.5t-199.5 37t-135 107t-76.5 170t-24 226v927h253v-970q0 -146 44.5 -215t144.5 -69q98 0 143.5 69t45.5 215v970zM228 1598q2 121 49.5 182.5t128.5 61.5q25 0 45 -6t37 -15.5t32.5 -21.5
t32.5 -23q27 -20 45 -30t36 -10q16 0 28 8.5t19.5 22.5t11.5 32t4 37l142 -18q-5 -117 -50 -180t-129 -63q-26 0 -46.5 6.5t-38.5 17t-34 23t-33 24.5q-14 9 -33.5 22t-42.5 13q-17 0 -28.5 -9t-19 -23t-11.5 -32t-5 -36z" />
    <glyph glyph-name="utilde" unicode="&#x169;" horiz-adv-x="932" 
d="M332 1026v-700q0 -33 3.5 -64.5t15.5 -56t33.5 -40t57.5 -15.5q69 0 111 73t42 219v584h233v-1026h-218v168q-13 -47 -38.5 -83.5t-60 -61.5t-77.5 -38t-91 -13q-57 0 -97 17.5t-67.5 45.5t-43.5 64t-24 73.5t-10.5 72.5t-2.5 62v719h234zM156 1184q2 121 49.5 182.5
t128.5 61.5q25 0 45 -6t37 -15.5t32.5 -21.5t32.5 -23q27 -20 45 -30t36 -10q16 0 28 8.5t19.5 22.5t11.5 32t4 37l142 -18q-5 -117 -50 -180t-129 -63q-26 0 -46.5 6.5t-38.5 17t-34 23t-33 24.5q-14 9 -33.5 22t-42.5 13q-17 0 -28.5 -9t-19 -23t-11.5 -32t-5 -36z" />
    <glyph glyph-name="Umacron" unicode="&#x16a;" horiz-adv-x="1063" 
d="M727 1432h239v-927q0 -126 -24 -226t-76.5 -169.5t-135 -107t-199.5 -37.5t-199.5 37t-135 107t-76.5 170t-24 226v927h253v-970q0 -146 44.5 -215t144.5 -69q98 0 143.5 69t45.5 215v970zM285 1577v174h508v-174h-508z" />
    <glyph glyph-name="umacron" unicode="&#x16b;" horiz-adv-x="932" 
d="M332 1026v-700q0 -33 3.5 -64.5t15.5 -56t33.5 -40t57.5 -15.5q69 0 111 73t42 219v584h233v-1026h-218v168q-13 -47 -38.5 -83.5t-60 -61.5t-77.5 -38t-91 -13q-57 0 -97 17.5t-67.5 45.5t-43.5 64t-24 73.5t-10.5 72.5t-2.5 62v719h234zM220 1163v174h508v-174h-508z
" />
    <glyph glyph-name="Ubreve" unicode="&#x16c;" horiz-adv-x="1063" 
d="M727 1432h239v-927q0 -126 -24 -226t-76.5 -169.5t-135 -107t-199.5 -37.5t-199.5 37t-135 107t-76.5 170t-24 226v927h253v-970q0 -146 44.5 -215t144.5 -69q98 0 143.5 69t45.5 215v970zM805 1832q-12 -125 -76 -190.5t-193 -65.5q-131 0 -198 65.5t-75 190.5l166 35
q2 -148 107 -148q51 0 77 38t27 110z" />
    <glyph glyph-name="ubreve" unicode="&#x16d;" horiz-adv-x="932" 
d="M332 1026v-700q0 -33 3.5 -64.5t15.5 -56t33.5 -40t57.5 -15.5q69 0 111 73t42 219v584h233v-1026h-218v168q-13 -47 -38.5 -83.5t-60 -61.5t-77.5 -38t-91 -13q-57 0 -97 17.5t-67.5 45.5t-43.5 64t-24 73.5t-10.5 72.5t-2.5 62v719h234zM746 1418q-12 -125 -76 -190.5
t-193 -65.5q-131 0 -198 65.5t-75 190.5l166 35q2 -148 107 -148q51 0 77 38t27 110z" />
    <glyph glyph-name="Uring" unicode="&#x16e;" horiz-adv-x="1063" 
d="M727 1432h239v-927q0 -126 -24 -226t-76.5 -169.5t-135 -107t-199.5 -37.5t-199.5 37t-135 107t-76.5 170t-24 226v927h253v-970q0 -146 44.5 -215t144.5 -69q98 0 143.5 69t45.5 215v970zM536 1578q-45 0 -83 15.5t-65 44t-42.5 67.5t-15.5 87t15.5 87t42.5 67t65 43
t83 15q46 0 84 -15t65.5 -43t42.5 -67t15 -87t-15 -87t-42.5 -67.5t-65.5 -44t-84 -15.5zM536 1699q35 0 55 25t20 68q0 41 -20 66t-55 25t-55 -25t-20 -66q0 -43 20 -68t55 -25z" />
    <glyph glyph-name="uring" unicode="&#x16f;" horiz-adv-x="932" 
d="M332 1026v-700q0 -33 3.5 -64.5t15.5 -56t33.5 -40t57.5 -15.5q69 0 111 73t42 219v584h233v-1026h-218v168q-13 -47 -38.5 -83.5t-60 -61.5t-77.5 -38t-91 -13q-57 0 -97 17.5t-67.5 45.5t-43.5 64t-24 73.5t-10.5 72.5t-2.5 62v719h234zM465 1165q-45 0 -83 15.5
t-65 44t-42.5 67.5t-15.5 87t15.5 87t42.5 67t65 43t83 15q46 0 84 -15t65.5 -43t42.5 -67t15 -87t-15 -87t-42.5 -67.5t-65.5 -44t-84 -15.5zM465 1286q35 0 55 25t20 68q0 41 -20 66t-55 25t-55 -25t-20 -66q0 -43 20 -68t55 -25z" />
    <glyph glyph-name="Uhungarumlaut" unicode="&#x170;" horiz-adv-x="1063" 
d="M727 1432h239v-927q0 -126 -24 -226t-76.5 -169.5t-135 -107t-199.5 -37.5t-199.5 37t-135 107t-76.5 170t-24 226v927h253v-970q0 -146 44.5 -215t144.5 -69q98 0 143.5 69t45.5 215v970zM621 1575l140 303h190l-193 -303h-137zM308 1577l132 301h184l-167 -303z" />
    <glyph glyph-name="uhungarumlaut" unicode="&#x171;" horiz-adv-x="932" 
d="M332 1026v-700q0 -33 3.5 -64.5t15.5 -56t33.5 -40t57.5 -15.5q69 0 111 73t42 219v584h233v-1026h-218v168q-13 -47 -38.5 -83.5t-60 -61.5t-77.5 -38t-91 -13q-57 0 -97 17.5t-67.5 45.5t-43.5 64t-24 73.5t-10.5 72.5t-2.5 62v719h234zM549 1162l140 303h190
l-193 -303h-137zM236 1164l132 301h184l-167 -303z" />
    <glyph glyph-name="Uogonek" unicode="&#x172;" horiz-adv-x="1063" 
d="M727 1432h239v-927q0 -126 -24 -226t-76.5 -169.5t-135 -107t-199.5 -37.5t-199.5 37t-135 107t-76.5 170t-24 226v927h253v-970q0 -146 44.5 -215t144.5 -69q98 0 143.5 69t45.5 215v970zM777 -304q-26 -27 -61 -44t-93 -17q-41 0 -75.5 10.5t-59.5 31.5t-39 52.5
t-14 72.5q0 60 35.5 117t107.5 105l177 -6q-32 -18 -59 -37t-46.5 -40.5t-30.5 -46t-11 -52.5q0 -29 14 -50.5t47 -21.5q16 0 31.5 5t32.5 20z" />
    <glyph glyph-name="uogonek" unicode="&#x173;" horiz-adv-x="932" 
d="M332 1026v-700q0 -33 3.5 -64.5t15.5 -56t33.5 -40t57.5 -15.5q69 0 111 73t42 219v584h233v-1026h-218v168q-13 -47 -38.5 -83.5t-60 -61.5t-77.5 -38t-91 -13q-57 0 -97 17.5t-67.5 45.5t-43.5 64t-24 73.5t-10.5 72.5t-2.5 62v719h234zM843 -319q-26 -27 -61 -44
t-93 -17q-41 0 -75.5 10.5t-59.5 31.5t-39 52.5t-14 72.5q0 60 35.5 117t107.5 105l177 -6q-32 -18 -59 -37t-46.5 -40.5t-30.5 -46t-11 -52.5q0 -29 14 -50.5t47 -21.5q16 0 31.5 5t32.5 20z" />
    <glyph glyph-name="Wcircumflex" unicode="&#x174;" horiz-adv-x="1383" 
d="M852 0l-142 906l-17 141l-20 -139l-143 -908h-283l-221 1432h246l121 -960l12 -159l173 1119h235l178 -1119l12 158l115 961h239l-222 -1432h-283zM805 1861l180 -282h-186l-105 173l-106 -173h-188l183 282h222z" />
    <glyph glyph-name="wcircumflex" unicode="&#x175;" horiz-adv-x="1163" 
d="M701 0l-105 615l-15 106l-13 -106l-105 -615h-272l-176 1026h229l86 -745l9 -63l11 63l114 745h236l114 -745l12 -63l7 64l86 744h229l-175 -1026h-272zM692 1444l180 -282h-186l-105 173l-106 -173h-188l183 282h222z" />
    <glyph glyph-name="Ycircumflex" unicode="&#x176;" horiz-adv-x="918" 
d="M337 0v519l-337 913h268l197 -684l198 684h256l-336 -913v-519h-246zM576 1858l180 -282h-186l-105 173l-106 -173h-188l183 282h222z" />
    <glyph glyph-name="ycircumflex" unicode="&#x177;" horiz-adv-x="788" 
d="M310 2l-309 1024h249l158 -803l146 803h235l-263 -1029q-29 -113 -60 -183.5t-69 -109.5t-85.5 -52.5t-110.5 -13.5q-53 0 -90.5 2.5t-60.5 4.5v167h110q27 0 47 7.5t36 23.5t28.5 41.5t24.5 60.5zM518 1442l180 -282h-186l-105 173l-106 -173h-188l183 282h222z" />
    <glyph glyph-name="Ydieresis" unicode="&#x178;" horiz-adv-x="918" 
d="M337 0v519l-337 913h268l197 -684l198 684h256l-336 -913v-519h-246zM202 1576v193h202v-193h-202zM531 1576v193h201v-193h-201z" />
    <glyph glyph-name="Zacute" unicode="&#x179;" horiz-adv-x="860" 
d="M40 0v185l507 1037h-489v210h755v-185l-506 -1037h514v-210h-781zM371 1576l129 310h252l-226 -310h-155z" />
    <glyph glyph-name="zacute" unicode="&#x17a;" horiz-adv-x="746" 
d="M41 0v152l396 693h-375v181h623v-149l-397 -694h398v-183h-645zM298 1162l129 310h252l-226 -310h-155z" />
    <glyph glyph-name="Zdotaccent" unicode="&#x17b;" horiz-adv-x="860" 
d="M40 0v185l507 1037h-489v210h755v-185l-506 -1037h514v-210h-781zM348 1576v209h208v-209h-208z" />
    <glyph glyph-name="zdotaccent" unicode="&#x17c;" horiz-adv-x="746" 
d="M41 0v152l396 693h-375v181h623v-149l-397 -694h398v-183h-645zM297 1162v209h208v-209h-208z" />
    <glyph glyph-name="Zcaron" unicode="&#x17d;" horiz-adv-x="860" 
d="M40 0v185l507 1037h-489v210h755v-185l-506 -1037h514v-210h-781zM339 1575l-183 282h188l106 -172l105 172h186l-180 -282h-222z" />
    <glyph glyph-name="zcaron" unicode="&#x17e;" horiz-adv-x="746" 
d="M41 0v152l396 693h-375v181h623v-149l-397 -694h398v-183h-645zM288 1160l-183 282h188l106 -172l105 172h186l-180 -282h-222z" />
    <glyph glyph-name="florin" unicode="&#x192;" horiz-adv-x="687" 
d="M-19 -202q36 12 65 26.5t51 37.5t35 57.5t16 86.5l45 763h-147v166h157q2 114 20 207t58 159t105 102t162 36q48 0 86 -7t58 -14l-15 -174q-13 4 -35 7t-46 3q-52 0 -80.5 -23.5t-42.5 -66t-18.5 -101t-8.5 -128.5h186v-166h-195l-42 -751q-4 -81 -27 -144.5t-68.5 -110
t-114.5 -75.5t-165 -41z" />
    <glyph glyph-name="AEacute" unicode="&#x1fc;" horiz-adv-x="1503" 
d="M760 0v344h-367l-148 -344h-261l653 1432h800v-210h-429v-389h365v-200h-365v-423h437v-210h-685zM760 532v667l-287 -667h287zM922 1575l129 310h252l-226 -310h-155z" />
    <glyph glyph-name="aeacute" unicode="&#x1fd;" horiz-adv-x="1325" 
d="M1264 272q-11 -62 -35 -117t-65 -95.5t-101 -64t-144 -23.5q-126 0 -203.5 53.5t-117.5 145.5q-28 -59 -62.5 -97.5t-72.5 -61t-78.5 -31t-79.5 -8.5q-59 0 -106 19.5t-81 57.5t-52 94t-18 129q0 88 30 151t91 104.5t153 64.5t215 31v91q0 90 -33 127t-94 37
q-24 0 -56.5 -6t-67.5 -16.5t-70.5 -25t-65.5 -32.5l-62 159q60 31 107 49.5t88.5 29t80.5 14t83 3.5q154 0 233 -79q44 38 102.5 58.5t136.5 20.5q187 0 272.5 -117t85.5 -357v-122h-503q0 -166 35 -241.5t112 -75.5q57 0 88 39t43 120zM538 471q-64 -7 -113 -17t-82.5 -29
t-50.5 -50t-17 -79q0 -32 7 -60t21 -49t36 -33.5t51 -12.5q38 0 66 19.5t46 54.5t27 82.5t9 104.5v69zM1050 618q0 73 -6.5 125t-22.5 85.5t-42.5 49t-66.5 15.5q-39 0 -64.5 -20.5t-41.5 -57t-23.5 -87t-8.5 -110.5h276zM626 1171l129 310h252l-226 -310h-155z" />
    <glyph glyph-name="Oslashacute" unicode="&#x1fe;" horiz-adv-x="1105" 
d="M418 1543l129 310h252l-226 -310h-155zM288 -112l31 136q-126 78 -186 250.5t-60 439.5q0 370 117 561t364 191q48 0 94 -8l30 130l137 -37l-33 -143q128 -76 189 -250t61 -446q0 -183 -28.5 -322.5t-87.5 -234t-149.5 -142.5t-214.5 -48q-53 0 -98 9l-28 -123zM553 178
q63 0 105.5 33.5t68.5 100t37 167t11 235.5q0 144 -13 249t-43 172l-217 -951q22 -6 51 -6zM331 713q0 -140 11.5 -242t40.5 -169l217 945q-23 6 -47 6q-62 0 -104.5 -33.5t-68.5 -101t-37.5 -168.5t-11.5 -237z" />
    <glyph glyph-name="oslashacute" unicode="&#x1ff;" horiz-adv-x="877" 
d="M317 1152l129 310h252l-226 -310h-155zM253 -101l23 103q-62 27 -103.5 76.5t-67 115.5t-36.5 147t-11 172q0 116 18 215t62 171.5t117.5 113.5t183.5 41q40 0 76 -6l26 113l84 -20l-27 -117q62 -27 104.5 -76t68.5 -115t37.5 -147t11.5 -172q0 -116 -18.5 -215.5
t-62.5 -172t-117 -113.5t-183 -41q-22 0 -41.5 2t-38.5 5l-22 -99zM439 141q39 0 65.5 20t43.5 64t24.5 115t7.5 173q0 104 -7.5 175t-24.5 116l-150 -657q18 -6 41 -6zM297 513q0 -101 7 -170.5t24 -114.5l149 652q-18 6 -38 6q-39 0 -66.5 -20t-44 -64.5t-24 -115.5
t-7.5 -173z" />
    <glyph glyph-name="Scommaaccent" unicode="&#x218;" horiz-adv-x="940" 
d="M653 378q0 49 -13.5 83t-39 60t-62.5 47.5t-85 46.5l-71 38q-77 40 -136 79t-99 85.5t-60.5 103.5t-20.5 132q0 93 30 169t83 130t125.5 84t157.5 30q51 0 101 -7t101.5 -24.5t104 -46.5t108.5 -73l-96 -168q-86 61 -157.5 83.5t-135.5 22.5q-46 0 -78.5 -17.5t-53.5 -44
t-30.5 -58t-9.5 -60.5q0 -43 15 -75t39 -56t54 -42.5t59 -34.5l86 -45q87 -44 150 -87t104 -94t61 -113.5t20 -145.5q0 -89 -30.5 -164.5t-87.5 -131.5t-137.5 -87.5t-179.5 -31.5q-75 0 -140 13t-119 34t-97 46t-75 49l95 187q47 -30 88.5 -51.5t81 -36t79.5 -21.5t84 -7
q51 0 86.5 18.5t58 47t32.5 64t10 70.5zM381 -437q28 10 43.5 19.5t23 21t9.5 26t2 32.5h-61v222h183v-209q0 -46 -9 -80.5t-29.5 -60.5t-54 -44.5t-82.5 -33.5z" />
    <glyph glyph-name="scommaaccent" unicode="&#x219;" horiz-adv-x="787" 
d="M278 468q-47 21 -85 47t-65 60.5t-42 79.5t-15 103q0 67 24 121.5t66.5 93.5t100 60t125.5 21q52 0 97.5 -8.5t85.5 -25.5t76 -42.5t70 -59.5l-104 -137q-51 49 -100.5 73.5t-104.5 24.5q-24 0 -44.5 -6.5t-36 -20.5t-24.5 -35.5t-9 -51.5q0 -50 25 -80.5t80 -54.5
l104 -47q66 -29 110.5 -60.5t72 -68t39.5 -78t12 -89.5q0 -72 -22.5 -130.5t-67 -99.5t-109.5 -63t-149 -22q-59 0 -111 13t-97.5 34.5t-83 49t-67.5 57.5l103 144q18 -20 45.5 -41.5t59.5 -39.5t67.5 -30t69.5 -12q62 0 100.5 31.5t38.5 93.5q0 25 -6 45t-21 37.5t-41.5 34
t-66.5 33.5zM285 -422q28 10 43.5 19.5t23 21t9.5 26t2 32.5h-61v222h183v-209q0 -46 -9 -80.5t-29.5 -60.5t-54 -44.5t-82.5 -33.5z" />
    <glyph glyph-name="uni021A" unicode="&#x21a;" horiz-adv-x="877" 
d="M315 0v1216h-304v216h855v-216h-304v-1216h-247zM305 -496q30 13 50.5 28.5t33 36t17.5 47t5 61.5h-89v266h244v-253q0 -47 -12 -92t-40 -84t-73.5 -69t-111.5 -47z" />
    <glyph glyph-name="uni021B" unicode="&#x21b;" horiz-adv-x="613" 
d="M586 -20q-13 -1 -36.5 -2.5t-49 -2.5t-50 -2t-40.5 -1q-77 0 -130.5 23t-88 67t-50 108.5t-15.5 147.5v541h-126v167h126v276l234 37v-313h207v-167h-207v-562q0 -134 108 -134h118v-183zM296 -536q30 13 50.5 28.5t33 36t17.5 47t5 61.5h-89v266h244v-253q0 -47 -12 -92
t-40 -84t-73.5 -69t-111.5 -47z" />
    <glyph glyph-name="dotlessj" unicode="&#x237;" horiz-adv-x="438" 
d="M102 1026h234v-991q0 -79 -5.5 -150.5t-30 -126t-74 -86.5t-137.5 -32q-29 0 -59.5 1t-58 2.5t-50.5 4t-37 4.5v174h132q86 -2 86 120v1080z" />
    <glyph glyph-name="circumflex" unicode="&#x2c6;" horiz-adv-x="1092" 
d="M549 1858l180 -282h-186l-105 173l-106 -173h-188l183 282h222z" />
    <glyph glyph-name="caron" unicode="&#x2c7;" horiz-adv-x="1092" 
d="M327 1576l-183 282h188l106 -172l105 172h186l-180 -282h-222z" />
    <glyph glyph-name="breve" unicode="&#x2d8;" horiz-adv-x="1092" 
d="M710 1833q-12 -125 -76 -190.5t-193 -65.5q-131 0 -198 65.5t-75 190.5l166 35q2 -148 107 -148q51 0 77 38t27 110z" />
    <glyph glyph-name="dotaccent" unicode="&#x2d9;" horiz-adv-x="1092" 
d="M249 1577v209h208v-209h-208z" />
    <glyph glyph-name="ring" unicode="&#x2da;" horiz-adv-x="1092" 
d="M400 1575q-45 0 -83 15.5t-65 44t-42.5 67.5t-15.5 87t15.5 87t42.5 67t65 43t83 15q46 0 84 -15t65.5 -43t42.5 -67t15 -87t-15 -87t-42.5 -67.5t-65.5 -44t-84 -15.5zM400 1696q35 0 55 25t20 68q0 41 -20 66t-55 25t-55 -25t-20 -66q0 -43 20 -68t55 -25z" />
    <glyph glyph-name="ogonek" unicode="&#x2db;" horiz-adv-x="1092" 
d="M556 -322q-26 -27 -61 -44t-93 -17q-41 0 -75.5 10.5t-59.5 31.5t-39 52.5t-14 72.5q0 60 35.5 117t107.5 105l177 -6q-32 -18 -59 -37t-46.5 -40.5t-30.5 -46t-11 -52.5q0 -29 14 -50.5t47 -21.5q16 0 31.5 5t32.5 20z" />
    <glyph glyph-name="tilde" unicode="&#x2dc;" horiz-adv-x="1092" 
d="M148 1599q2 121 49.5 182.5t128.5 61.5q25 0 45 -6t37 -15.5t32.5 -21.5t32.5 -23q27 -20 45 -30t36 -10q16 0 28 8.5t19.5 22.5t11.5 32t4 37l142 -18q-5 -117 -50 -180t-129 -63q-26 0 -46.5 6.5t-38.5 17t-34 23t-33 24.5q-14 9 -33.5 22t-42.5 13q-17 0 -28.5 -9
t-19 -23t-11.5 -32t-5 -36z" />
    <glyph glyph-name="hungarumlaut" unicode="&#x2dd;" horiz-adv-x="1092" 
d="M517 1576l140 303h190l-193 -303h-137zM204 1578l132 301h184l-167 -303z" />
    <glyph glyph-name="uni0394" unicode="&#x394;" horiz-adv-x="1028" 
d="M23 0l335 1432h312l336 -1432h-983zM300 188h415l-208 1032z" />
    <glyph glyph-name="uni03A9" unicode="&#x3a9;" horiz-adv-x="1075" 
d="M595 0v219q5 60 18 113.5t29.5 104t34 100t32 103t24 112.5t9.5 128q0 77 -9 145t-32 118.5t-63 80t-101 29.5q-59 0 -99 -29.5t-65 -80t-36 -118.5t-11 -145q0 -69 9.5 -128t24 -112t32 -102.5t33.5 -100t29 -103.5t19 -114v-220h-417v210h214q-1 45 -16 89.5t-37.5 92
t-48.5 100t-48 113.5t-37 132t-15 156q0 54 9 118t29.5 127.5t55.5 122.5t87 104.5t123 73t165 27.5q96 0 167.5 -28t123 -74t85 -106t53 -124t27 -127t7.5 -116q0 -84 -15 -154.5t-37 -131.5t-48 -113.5t-48.5 -100t-37.5 -92t-15 -89.5h214v-210h-418z" />
    <glyph glyph-name="uni03BC" unicode="&#x3bc;" horiz-adv-x="932" 
d="M98 -389v1415h234v-700q0 -33 3.5 -64.5t15.5 -56t33.5 -40t57.5 -15.5q69 0 111 73t42 219v584h233v-1026h-218v168q-12 -57 -31.5 -95t-44.5 -60.5t-54 -31.5t-58 -9q-48 0 -90 20v-381h-234z" />
    <glyph glyph-name="pi" unicode="&#x3c0;" horiz-adv-x="989" 
d="M962 0q-23 -7 -60.5 -13t-77.5 -6q-77 0 -123 24t-71 66.5t-32.5 100t-7.5 123.5v564h-200v-859h-234v859h-130v167h928v-167h-131v-587q0 -58 19 -84.5t58 -26.5q29 0 48 7z" />
    <glyph glyph-name="afii10023" unicode="&#x401;" horiz-adv-x="894" 
d="M118 0v1432h705v-210h-458v-376h393v-200h-393v-436h465v-210h-712zM213 1552v193h202v-193h-202zM542 1552v193h201v-193h-201z" />
    <glyph glyph-name="afii10051" unicode="&#x402;" horiz-adv-x="1156" 
d="M315 0v1216h-304v216h855v-216h-304v-371q23 88 88.5 135t163.5 47q57 0 98 -17.5t69.5 -45.5t46 -63t27 -71.5t13 -70.5t3.5 -59v-712q0 -79 -7 -150.5t-34 -125.5t-81 -86t-148 -32q-47 0 -90.5 8.5t-78.5 19.5l35 167q20 -4 39.5 -6.5t36.5 -2.5q42 0 62 28t20 91v781
q0 30 -4 60.5t-15.5 55t-33 39.5t-57.5 15q-70 0 -111.5 -73.5t-41.5 -218.5v-558h-247z" />
    <glyph glyph-name="afii10052" unicode="&#x403;" horiz-adv-x="831" 
d="M367 1556l129 310h252l-226 -310h-155zM807 1432v-210h-442v-1222h-247v1432h689z" />
    <glyph glyph-name="afii10053" unicode="&#x404;" horiz-adv-x="1037" 
d="M639 617h-314q3 -107 17 -189t42 -138t70.5 -84.5t102.5 -28.5q52 0 89 20t62 62.5t39 109.5t20 161l224 -51q-6 -122 -35.5 -217.5t-84.5 -161.5t-137.5 -100.5t-196.5 -34.5q-233 0 -348.5 191t-115.5 561q0 369 115.5 559t354.5 190q111 0 190.5 -34.5t132 -100.5
t80 -161.5t33.5 -217.5l-224 -51q-6 94 -18 160.5t-35 109.5t-58.5 63t-87.5 20q-57 0 -98.5 -26.5t-68.5 -80.5t-42 -136.5t-20 -193.5h312v-200z" />
    <glyph glyph-name="afii10054" unicode="&#x405;" horiz-adv-x="940" 
d="M653 378q0 49 -13 84.5t-39.5 63t-66.5 51.5t-94 50l-49 22q-74 37 -134 77.5t-102.5 89.5t-65.5 109t-23 135q0 97 30 173t83 127.5t127 78.5t162 27q102 0 177.5 -31.5t127 -87.5t78.5 -132.5t32 -166.5l-224 -49q0 81 -17.5 131t-44 77t-58.5 36.5t-63 9.5
q-46 0 -76.5 -17.5t-49 -44t-26.5 -58t-8 -60.5q0 -47 15.5 -79.5t41 -56.5t59 -43t70.5 -38l59 -28q90 -45 155 -88.5t107 -95.5t61.5 -115.5t19.5 -148.5q0 -89 -30 -164.5t-86 -131.5t-135.5 -87.5t-179.5 -31.5q-99 0 -180 30.5t-138.5 89.5t-88 146t-27.5 200l230 47
q-3 -80 9 -137t38 -93t66 -53t91 -17q52 0 86.5 18.5t55.5 47t29.5 64t8.5 70.5z" />
    <glyph glyph-name="afii10055" unicode="&#x406;" horiz-adv-x="483" 
d="M118 0v1432h247v-1432h-247z" />
    <glyph glyph-name="afii10056" unicode="&#x407;" horiz-adv-x="483" 
d="M118 0v1432h247v-1432h-247zM-22 1574v193h202v-193h-202zM307 1574v193h201v-193h-201z" />
    <glyph glyph-name="afii10057" unicode="&#x408;" horiz-adv-x="727" 
d="M195 188q101 0 142.5 60.5t41.5 183.5v1000h246v-977q0 -60 -5.5 -119.5t-20 -114t-40.5 -101.5t-66.5 -81.5t-98.5 -54t-136 -19.5q-34 0 -68.5 1.5t-65.5 3.5t-57 4.5t-44 5.5v208h172z" />
    <glyph glyph-name="afii10058" unicode="&#x409;" horiz-adv-x="1763" 
d="M18 200l31 -1q37 0 69 10t58.5 40.5t47 86t34.5 144.5t21.5 216.5t7.5 302.5v433h858v-537h143q104 0 184 -30t134 -86.5t82 -137.5t28 -183q0 -221 -106.5 -339.5t-326.5 -118.5h-384v1222h-367v-227q0 -199 -11 -351.5t-34 -265.5t-59 -190t-85 -124t-112.5 -67
t-142.5 -20h-69zM1145 692v-489h112q48 0 87 12.5t66 39.5t42 71t15 107q0 65 -10.5 113.5t-34.5 81t-63.5 48.5t-96.5 16h-117z" />
    <glyph glyph-name="afii10059" unicode="&#x40a;" horiz-adv-x="1594" 
d="M989 1432v-566h144q208 0 317.5 -104t109.5 -309q0 -221 -106.5 -337t-326.5 -116h-384v653h-378v-653h-247v1432h247v-569h378v569h246zM989 664v-461h112q48 0 86.5 11.5t65.5 38t42 69.5t15 106q0 66 -10.5 111t-34.5 72.5t-63 40t-96 12.5h-117z" />
    <glyph glyph-name="afii10060" unicode="&#x40b;" horiz-adv-x="1156" 
d="M315 0v1216h-304v216h855v-216h-304v-371q23 88 88.5 135t163.5 47q57 0 98 -17.5t69.5 -45.5t46 -63t27 -71.5t13 -70.5t3.5 -59v-700h-246v680q0 30 -4 60.5t-15.5 55t-33 39.5t-57.5 15q-70 0 -111.5 -73.5t-41.5 -218.5v-558h-247z" />
    <glyph glyph-name="afii10061" unicode="&#x40c;" horiz-adv-x="1031" 
d="M455 1558l129 310h252l-226 -310h-155zM117 1432h247v-610h130l215 610h265l-201 -561l-52 -155l53 -155l199 -561h-266l-213 613h-130v-613h-247v1432z" />
    <glyph glyph-name="afii10062" unicode="&#x40e;" horiz-adv-x="795" 
d="M677 1842q-12 -125 -76 -190.5t-193 -65.5q-131 0 -198 65.5t-75 190.5l166 35q2 -148 107 -148q51 0 77 38t27 110zM348 379l-349 1054h275l178 -762l151 762h262l-295 -1070q-30 -119 -63.5 -194.5t-74 -119.5t-89 -60.5t-108.5 -16.5q-29 0 -56.5 6t-51.5 15t-43 18.5
l-31 15.5l38 187q21 -11 46.5 -20.5t54.5 -9.5q48 0 80.5 26t49.5 83z" />
    <glyph glyph-name="afii10145" unicode="&#x40f;" horiz-adv-x="1097" 
d="M457 -247v247h-339v1432h247v-1222h366v1222h247v-1432h-295v-247h-226z" />
    <glyph glyph-name="afii10017" unicode="&#x410;" horiz-adv-x="1028" 
d="M679 364h-344l-73 -364h-239l335 1432h312l336 -1432h-253zM373 552h268l-134 668z" />
    <glyph glyph-name="afii10018" unicode="&#x411;" horiz-adv-x="991" 
d="M451 196q66 0 110.5 17.5t71.5 52t38.5 85.5t11.5 119q0 51 -11 98t-36.5 83t-68 57t-105.5 21h-108v-533h97zM840 1222h-486v-298h148q97 0 178 -29.5t139 -87.5t90 -144t32 -198q0 -225 -106.5 -345t-323.5 -120h-393v1432h722v-210z" />
    <glyph glyph-name="afii10019" unicode="&#x412;" horiz-adv-x="991" 
d="M665 753q62 -6 113 -34.5t87 -73.5t56 -103t20 -124q0 -200 -102 -309t-319 -109h-402v1432h407q95 0 167.5 -24.5t121.5 -70.5t74 -111.5t25 -146.5q0 -59 -17 -114t-49 -98.5t-78 -72t-104 -35.5v-6zM460 183q57 0 98.5 12t69.5 39.5t41.5 72.5t13.5 111
q0 57 -11 101.5t-36 75t-65.5 46.5t-99.5 16h-117v-474h106zM463 825q54 0 90.5 16t59.5 45t33 71t10 95q0 96 -45 146.5t-148 50.5h-109v-424h109z" />
    <glyph glyph-name="afii10020" unicode="&#x413;" horiz-adv-x="831" 
d="M807 1432v-210h-442v-1222h-247v1432h689z" />
    <glyph glyph-name="afii10021" unicode="&#x414;" horiz-adv-x="1392" 
d="M1136 -247v247h-887v-247h-227v457h81q35 0 66 12t57.5 43.5t47.5 87t35.5 143t22.5 211.5t8 292v433h848v-1222h174v-457h-226zM586 1222v-227q0 -163 -10.5 -289t-31 -221.5t-50 -162.5t-68.5 -112h516v1012h-356z" />
    <glyph glyph-name="afii10022" unicode="&#x415;" horiz-adv-x="894" 
d="M118 0v1432h705v-210h-458v-376h393v-200h-393v-436h465v-210h-712z" />
    <glyph glyph-name="afii10024" unicode="&#x416;" horiz-adv-x="1544" 
d="M107 0l154 544l52 172l-52 172l-155 544h265l171 -610h106v610h246v-610h105l172 610h265l-156 -544l-52 -172l53 -172l155 -544h-267l-170 613h-105v-613h-246v613h-106l-169 -613h-266z" />
    <glyph glyph-name="afii10025" unicode="&#x417;" horiz-adv-x="917" 
d="M362 630v184h79q77 0 118.5 54.5t41.5 155.5q0 107 -38 152.5t-107 45.5q-43 0 -72 -19.5t-47.5 -53t-28 -79t-13.5 -96.5l-225 49q4 97 31 172.5t76.5 127.5t121 79.5t165.5 27.5q88 0 157 -24t117 -71t73.5 -115.5t25.5 -157.5q0 -122 -48 -207.5t-150 -120.5
q108 -27 163 -111t55 -211q0 -100 -24 -181t-73 -138.5t-123.5 -89t-176.5 -31.5q-103 0 -176 27.5t-120.5 81.5t-71 133t-27.5 182l226 48q-2 -78 10.5 -129t36 -80.5t54 -41.5t64.5 -12q45 0 75.5 19.5t49.5 52.5t27 75.5t8 89.5q0 64 -16 105.5t-41.5 65t-56.5 32.5
t-61 9h-79z" />
    <glyph glyph-name="afii10026" unicode="&#x418;" horiz-adv-x="1112" 
d="M118 0v1432h215v-881l-23 -173l61 164l369 890h254v-1432h-215v879l23 173l-62 -162l-367 -890h-255z" />
    <glyph glyph-name="afii10027" unicode="&#x419;" horiz-adv-x="1112" 
d="M850 1844q-12 -125 -76 -190.5t-193 -65.5q-131 0 -198 65.5t-75 190.5l166 35q2 -148 107 -148q51 0 77 38t27 110zM118 0v1432h215v-881l-23 -173l61 164l369 890h254v-1432h-215v879l23 173l-62 -162l-367 -890h-255z" />
    <glyph glyph-name="afii10028" unicode="&#x41a;" horiz-adv-x="1031" 
d="M117 1432h247v-610h130l215 610h265l-201 -561l-52 -155l53 -155l199 -561h-266l-213 613h-130v-613h-247v1432z" />
    <glyph glyph-name="afii10029" unicode="&#x41b;" horiz-adv-x="1270" 
d="M18 200l31 -1q37 0 69 10t58.5 40.5t47 86t34.5 144.5t21.5 216.5t7.5 302.5v433h858v-1432h-246v1222h-367v-227q0 -199 -11 -351.5t-34 -265.5t-59 -190t-85 -124t-112.5 -67t-142.5 -20h-69z" />
    <glyph glyph-name="afii10030" unicode="&#x41c;" horiz-adv-x="1339" 
d="M1000 0v935l4 154l-37 -152l-220 -937h-168l-221 937l-37 152l5 -153v-936h-208v1432h312l207 -884l32 -171l33 171l205 884h313v-1432h-220z" />
    <glyph glyph-name="afii10031" unicode="&#x41d;" horiz-adv-x="1108" 
d="M743 0v631h-378v-631h-247v1432h247v-592h378v592h246v-1432h-246z" />
    <glyph glyph-name="afii10032" unicode="&#x41e;" horiz-adv-x="1105" 
d="M552 -35q-246 0 -362.5 191t-116.5 558q0 370 117 561t364 191q244 0 361 -191.5t117 -562.5q0 -183 -28.5 -322.5t-87.5 -234t-149.5 -142.5t-214.5 -48zM553 178q63 0 105.5 33.5t68.5 100t37 167t11 235.5t-11.5 236.5t-37.5 168.5t-68.5 100.5t-104.5 33.5
t-104.5 -33.5t-68.5 -101t-37.5 -168.5t-11.5 -237q0 -134 11 -234.5t37 -167.5t68.5 -100t105.5 -33z" />
    <glyph glyph-name="afii10033" unicode="&#x41f;" horiz-adv-x="1097" 
d="M731 0v1222h-366v-1222h-247v1432h860v-1432h-247z" />
    <glyph glyph-name="afii10034" unicode="&#x420;" horiz-adv-x="961" 
d="M118 0v1432h384q108 0 188 -31t133 -88t79 -138.5t26 -182.5q0 -111 -28 -199t-82 -149.5t-134 -94t-183 -32.5h-143v-517h-240zM475 719q57 0 96 20t63 56t34.5 86.5t10.5 110.5q0 64 -15 109t-42 73.5t-65.5 41.5t-85.5 13h-113v-510h117z" />
    <glyph glyph-name="afii10035" unicode="&#x421;" horiz-adv-x="1040" 
d="M983 493q-6 -125 -34 -223.5t-81.5 -166t-135 -103t-195.5 -35.5q-233 0 -348.5 191t-115.5 561q0 369 115.5 559t354.5 190q111 0 191 -35.5t133 -103t81.5 -166t34.5 -223.5l-232 -19q-7 74 -20 135.5t-36 106t-58.5 69t-87.5 24.5q-69 0 -111.5 -44t-66 -120.5
t-32 -180t-8.5 -222.5q0 -120 11 -214.5t37 -160.5t68 -100.5t104 -34.5q51 0 86 24.5t58.5 69t36.5 106t19 135.5z" />
    <glyph glyph-name="afii10036" unicode="&#x422;" horiz-adv-x="877" 
d="M315 0v1216h-304v216h855v-216h-304v-1216h-247z" />
    <glyph glyph-name="afii10037" unicode="&#x423;" horiz-adv-x="872" 
d="M348 379l-349 1054h275l178 -762l151 762h262l-295 -1070q-30 -119 -63.5 -194.5t-74 -119.5t-89 -60.5t-108.5 -16.5q-29 0 -56.5 6t-51.5 15t-43 18.5l-31 15.5l38 187q21 -11 46.5 -20.5t54.5 -9.5q48 0 80.5 26t49.5 83z" />
    <glyph glyph-name="afii10038" unicode="&#x424;" horiz-adv-x="1357" 
d="M559 -99v176h-7q-246 0 -362.5 157.5t-116.5 479.5q0 321 117 480.5t364 159.5h5v177h247v-177h11q239 0 352.5 -159.5t113.5 -482.5q0 -162 -28 -281t-85.5 -197t-146 -117t-209.5 -40h-8v-176h-247zM331 713q0 -114 11 -194.5t37 -131.5t68.5 -74.5t105.5 -23.5h6v853
h-6q-62 0 -104.5 -24t-68.5 -76t-37.5 -133.5t-11.5 -195.5zM806 1142v-853h4q61 2 102.5 25.5t67 73.5t36 130t10.5 196q0 115 -11 195.5t-35.5 131t-65 74.5t-100.5 27h-8z" />
    <glyph glyph-name="afii10039" unicode="&#x425;" horiz-adv-x="985" 
d="M700 0l-212 594l-224 -594h-252l324 752l-299 680h272l188 -523l200 523h251l-295 -687l320 -745h-273z" />
    <glyph glyph-name="afii10040" unicode="&#x426;" horiz-adv-x="1176" 
d="M926 -247v247h-808v1432h247v-1222h366v1222h247v-1222h174v-457h-226z" />
    <glyph glyph-name="afii10041" unicode="&#x427;" horiz-adv-x="1045" 
d="M341 1433v-561q0 -47 10 -86t29.5 -67.5t49 -44.5t68.5 -16q31 0 55.5 4.5t45.5 14.5t40.5 26.5t40.5 39.5v690h246v-1433h-246v527q-30 -19 -58.5 -34t-61 -25.5t-71 -16.5t-88.5 -6q-89 0 -148.5 38.5t-94.5 98t-49.5 132.5t-14.5 142v577h247z" />
    <glyph glyph-name="afii10042" unicode="&#x428;" horiz-adv-x="1607" 
d="M118 1432h247v-1222h315v1222h246v-1222h316v1222h247v-1432h-1371v1432z" />
    <glyph glyph-name="afii10043" unicode="&#x429;" horiz-adv-x="1692" 
d="M1436 -247v247h-1318v1432h247v-1222h315v1222h246v-1222h316v1222h247v-1222h173v-457h-226z" />
    <glyph glyph-name="afii10044" unicode="&#x42a;" horiz-adv-x="1112" 
d="M22 1432h487v-537h143q103 0 182.5 -30t134 -86.5t82.5 -137.5t28 -183q0 -221 -106.5 -339.5t-325.5 -118.5h-378v1222h-247v210zM509 692v-489h112q48 0 86.5 12.5t65.5 39.5t42 71t15 107q0 65 -10.5 113.5t-34.5 81t-63 48.5t-96 16h-117z" />
    <glyph glyph-name="afii10045" unicode="&#x42b;" horiz-adv-x="1457" 
d="M1095 0v1432h247v-1432h-247zM358 1432v-537h143q103 0 183 -30t134 -86.5t82 -137.5t28 -183q0 -221 -106 -339.5t-326 -118.5h-378v1432h240zM358 692v-489h113q47 0 85.5 12.5t65.5 39.5t42 71t15 107q0 65 -10.5 113.5t-34.5 81t-63 48.5t-96 16h-117z" />
    <glyph glyph-name="afii10046" unicode="&#x42c;" horiz-adv-x="961" 
d="M358 1432v-537h143q103 0 183 -30t134 -86.5t82 -137.5t28 -183q0 -221 -106 -339.5t-326 -118.5h-378v1432h240zM358 692v-489h113q47 0 85.5 12.5t65.5 39.5t42 71t15 107q0 65 -10.5 113.5t-34.5 81t-63 48.5t-96 16h-117z" />
    <glyph glyph-name="afii10047" unicode="&#x42d;" horiz-adv-x="1037" 
d="M401 817h312q-5 111 -20.5 193.5t-43 136.5t-68 80.5t-97.5 26.5q-52 0 -87.5 -20t-58 -63t-34.5 -109.5t-18 -160.5l-225 51q6 122 33.5 217.5t80.5 161.5t132.5 100.5t190.5 34.5q238 0 353.5 -190t115.5 -559q0 -370 -115.5 -561t-348.5 -191q-114 0 -196.5 34.5
t-138 100.5t-84.5 161.5t-35 217.5l225 51q6 -94 19.5 -161t38 -109.5t61.5 -62.5t90 -20q60 0 102 28.5t70 84.5t42.5 138t17.5 189h-314v200z" />
    <glyph glyph-name="afii10048" unicode="&#x42e;" horiz-adv-x="1550" 
d="M118 0v1432h247v-615h146q16 319 132.5 484t346.5 165q244 0 360.5 -191.5t116.5 -562.5q0 -183 -28.5 -322.5t-87.5 -234t-149.5 -142.5t-214.5 -48q-229 0 -345.5 166t-130.5 486h-146v-617h-247zM989 178q63 0 105 33.5t68 100t37 167t11 235.5t-11.5 236.5
t-37.5 168.5t-68 100.5t-104 33.5q-63 0 -105.5 -33.5t-68.5 -101t-37 -168.5t-11 -237q0 -134 11 -234.5t37 -167.5t68.5 -100t105.5 -33z" />
    <glyph glyph-name="afii10049" unicode="&#x42f;" horiz-adv-x="1018" 
d="M27 0v208h32q20 0 35 4.5t27 16t21.5 31.5t20.5 51l70 195q14 42 34 69.5t43 45.5q-49 23 -89 58.5t-68.5 82.5t-44 106.5t-15.5 130.5q0 104 26 185t80 136t137.5 83.5t199.5 28.5h367v-1432h-240v575h-72q-29 0 -48 -5.5t-32.5 -18.5t-23.5 -33.5t-20 -51.5l-91 -268
q-19 -59 -46 -97t-61.5 -60.5t-75.5 -31.5t-88 -9h-78zM663 770v459h-108q-61 0 -102 -11.5t-65.5 -38t-35 -70t-10.5 -106.5q0 -123 45.5 -178t151.5 -55h124z" />
    <glyph glyph-name="afii10065" unicode="&#x430;" horiz-adv-x="873" 
d="M586 0q-4 16 -8 37t-7 42.5t-4 42t0 37.5q-15 -54 -40.5 -89.5t-59 -56.5t-73.5 -30t-83 -9q-58 0 -105.5 19.5t-81 57.5t-52 93.5t-18.5 128.5q0 88 30 151t91 104.5t153 64.5t216 31v84q0 91 -32.5 127.5t-95.5 36.5q-23 0 -55 -4t-68 -13t-73 -24t-70 -36l-61 152
q40 25 85.5 45t92.5 34t94 21t92 7q163 0 243.5 -89t80.5 -273v-397q0 -87 3 -157.5t11 -137.5h-205zM545 471q-64 -7 -113 -17t-82.5 -29t-51 -50t-17.5 -79q0 -32 7 -60t21.5 -49t36 -33.5t51.5 -12.5q38 0 66 19.5t46 54.5t27 82.5t9 104.5v69z" />
    <glyph glyph-name="afii10066" unicode="&#x431;" horiz-adv-x="877" 
d="M742 1307h-144q-91 0 -151 -38t-96.5 -99t-53.5 -137.5t-22 -153.5q14 40 35 73.5t50 57.5t65 37t80 13q158 0 237 -135t79 -404q0 -132 -21 -234.5t-67 -172.5t-119 -106t-176 -36q-104 0 -176.5 35.5t-117.5 106t-65.5 175t-20.5 242.5q0 111 5.5 224.5t23.5 219
t52.5 197.5t92 160t142.5 107.5t204 39.5h164v-172zM436 141q40 0 67.5 19.5t44.5 64t24.5 116.5t7.5 177q0 107 -9.5 178t-28 113t-44.5 59.5t-59 17.5t-59 -17t-44.5 -59t-28 -113.5t-9.5 -180.5q0 -194 31 -284.5t107 -90.5z" />
    <glyph glyph-name="afii10067" unicode="&#x432;" horiz-adv-x="828" 
d="M102 0v1026h345q80 0 141 -18t102 -51.5t62 -81.5t21 -107q0 -44 -15 -83.5t-44 -70.5t-71.5 -49.5t-97.5 -20.5q58 -3 105 -24.5t79 -54.5t49.5 -74.5t17.5 -86.5q0 -143 -85.5 -223.5t-266.5 -80.5h-342zM402 177q82 0 120 28.5t38 100.5q0 69 -35.5 104t-115.5 35h-85
v-268h78zM403 612q74 0 104 33t30 93q0 54 -29.5 82.5t-104.5 28.5h-79v-237h79z" />
    <glyph glyph-name="afii10068" unicode="&#x433;" horiz-adv-x="699" 
d="M684 1026v-177h-348v-849h-234v1026h582z" />
    <glyph glyph-name="afii10069" unicode="&#x434;" horiz-adv-x="1146" 
d="M910 -174v174h-679v-174h-213v351h66q41 0 75 19t58 75t37 159t13 270v326h712v-849h144v-351h-213zM501 849v-153q0 -108 -8.5 -191t-25 -146t-40.5 -107.5t-55 -74.5h373v672h-244z" />
    <glyph glyph-name="afii10070" unicode="&#x435;" horiz-adv-x="843" 
d="M781 272q-11 -62 -34.5 -117t-64.5 -95.5t-101.5 -64t-144.5 -23.5q-111 0 -184 42.5t-116 116.5t-60.5 174.5t-17.5 217.5q0 121 19.5 219t64 167.5t117 107t178.5 37.5q186 0 271.5 -117t85.5 -357v-122h-504q0 -166 35 -241.5t113 -75.5q58 0 88 39t43 120zM567 618
q0 73 -6.5 125t-22.5 85.5t-42 49t-66 15.5q-39 0 -65 -20.5t-42 -57t-23.5 -87t-9.5 -110.5h277z" />
    <glyph glyph-name="afii10072" unicode="&#x436;" horiz-adv-x="1286" 
d="M32 0l161 406l37 106l-36 107l-161 407h240l124 -326l33 -87h96v413h233v-413h96l33 87l123 326h241l-162 -407l-35 -107l36 -106l162 -406h-242l-124 326l-32 89h-96v-415h-233v415h-96l-32 -89l-124 -326h-242z" />
    <glyph glyph-name="afii10073" unicode="&#x437;" horiz-adv-x="771" 
d="M294 429v171h49q70 0 99.5 37t29.5 108q0 69 -28 105.5t-75 36.5q-55 0 -85 -34.5t-42 -108.5l-206 46q9 59 34 107.5t67 83.5t101.5 54t137.5 19q72 0 133.5 -19t106.5 -55.5t70.5 -89.5t25.5 -120q0 -91 -50 -154.5t-132 -89.5q43 -9 78 -29.5t60.5 -50.5t39.5 -70
t14 -89q0 -146 -90 -226.5t-259 -80.5q-86 0 -146.5 21t-100.5 58t-61.5 85.5t-28.5 104.5l205 47q3 -42 14.5 -71t29 -46t40 -24.5t46.5 -7.5q30 0 51 11.5t34.5 31.5t20 48t6.5 60q0 40 -12.5 65.5t-31.5 40t-42 20t-44 5.5h-59z" />
    <glyph glyph-name="afii10074" unicode="&#x438;" horiz-adv-x="937" 
d="M102 0v1026h226v-546l-23 -146l54 141l250 551h225v-1026h-226v546l21 143l-53 -138l-250 -551h-224z" />
    <glyph glyph-name="afii10075" unicode="&#x439;" horiz-adv-x="937" 
d="M754 1438q-12 -125 -76 -190.5t-193 -65.5q-131 0 -198 65.5t-75 190.5l166 35q2 -148 107 -148q51 0 77 38t27 110zM102 0v1026h226v-546l-23 -146l54 141l250 551h225v-1026h-226v546l21 143l-53 -138l-250 -551h-224z" />
    <glyph glyph-name="afii10076" unicode="&#x43a;" horiz-adv-x="885" 
d="M102 1026h234v-413h95l33 87l124 326h240l-162 -407l-34 -107l36 -106l161 -406h-241l-124 326l-33 89h-95v-415h-234v1026z" />
    <glyph glyph-name="afii10077" unicode="&#x43b;" horiz-adv-x="980" 
d="M18 170h17q19 0 33.5 5.5t25.5 26t18.5 60.5t12.5 109t7 172t2 249v234h729v-1026h-234v828h-262v-35q0 -156 -2 -277t-10.5 -210.5t-26 -151t-48.5 -99.5t-77.5 -54.5t-113.5 -16.5h-71v186z" />
    <glyph glyph-name="afii10078" unicode="&#x43c;" horiz-adv-x="1123" 
d="M809 0v611l3 110l-27 -110l-148 -611h-166l-148 611l-26 110l3 -110v-611h-198v1026h291l141 -535l27 -144l27 144l140 535h292v-1026h-211z" />
    <glyph glyph-name="afii10079" unicode="&#x43d;" horiz-adv-x="935" 
d="M597 0v427h-261v-427h-234v1026h234v-402h261v402h234v-1026h-234z" />
    <glyph glyph-name="afii10080" unicode="&#x43e;" horiz-adv-x="877" 
d="M439 -28q-111 0 -184 41t-117 113.5t-62 171.5t-18 215t18 215t62 171.5t117.5 113.5t183.5 41q109 0 182.5 -41t117.5 -113t62.5 -171t18.5 -215t-18.5 -215.5t-62.5 -172t-117 -113.5t-183 -41zM439 141q39 0 65.5 20t43.5 64t24.5 115t7.5 173t-7.5 173t-24 115.5
t-43.5 64.5t-66 20t-66.5 -20t-44 -64.5t-24 -115.5t-7.5 -173t7.5 -173t24.5 -115t44 -64t66 -20z" />
    <glyph glyph-name="afii10081" unicode="&#x43f;" horiz-adv-x="935" 
d="M584 0v849h-261v-849h-234v1026h729v-1026h-234z" />
    <glyph glyph-name="afii10082" unicode="&#x440;" horiz-adv-x="911" 
d="M320 1026v-141q13 39 37.5 70.5t56 53t69 33.5t77.5 12q80 0 135.5 -37t90.5 -106.5t51 -170t16 -226.5q0 -273 -66 -407.5t-211 -134.5q-43 0 -81 11t-69.5 30.5t-54.5 46.5t-35 59v-466h-234v1373h218zM336 513q0 -113 12 -185.5t32 -114t46.5 -57t55.5 -15.5
q32 0 57 17t41.5 59.5t25 114t8.5 181.5q0 187 -28.5 280t-98.5 93q-39 0 -67.5 -21.5t-47 -67t-27.5 -116t-9 -168.5z" />
    <glyph glyph-name="afii10083" unicode="&#x441;" horiz-adv-x="825" 
d="M792 358q-6 -186 -94.5 -286t-263.5 -100q-101 0 -172.5 36t-116.5 105t-66 170t-21 231q0 271 91 405.5t288 134.5q93 0 158 -28t106.5 -77.5t62.5 -118t26 -149.5l-218 -16q-6 59 -15 101t-24 68.5t-38 39t-57 12.5q-43 0 -70.5 -24t-43 -70.5t-21.5 -116.5t-6 -161
q0 -114 9 -186.5t27 -114t44 -57t60 -15.5q32 0 55 11t39.5 38t26 71.5t14.5 111.5z" />
    <glyph glyph-name="afii10084" unicode="&#x442;" horiz-adv-x="742" 
d="M255 0v849h-237v177h706v-177h-235v-849h-234z" />
    <glyph glyph-name="afii10085" unicode="&#x443;" horiz-adv-x="788" 
d="M310 2l-309 1024h249l158 -803l146 803h235l-263 -1029q-29 -113 -60 -183.5t-69 -109.5t-85.5 -52.5t-110.5 -13.5q-53 0 -90.5 2.5t-60.5 4.5v167h110q27 0 47 7.5t36 23.5t28.5 41.5t24.5 60.5z" />
    <glyph glyph-name="afii10086" unicode="&#x444;" horiz-adv-x="1393" 
d="M576 -392v540q-13 -32 -36 -63.5t-54 -56.5t-69 -40.5t-81 -15.5q-146 0 -211.5 134.5t-65.5 407.5q0 126 16 226.5t50.5 170t90 106.5t135.5 37q35 0 68 -13t62.5 -34.5t53.5 -50.5t41 -62v552h234v-553q16 33 40 62t53 51t62.5 35t69.5 13q79 0 135 -37t90.5 -106.5
t50.5 -170t16 -226.5q0 -273 -66 -407.5t-211 -134.5q-42 0 -80 15.5t-69.5 40.5t-54.5 56.5t-36 63.5v-540h-234zM961 886q-77 0 -113.5 -84t-37.5 -270v-41q1 -106 13.5 -174t32.5 -107t46 -54t55 -15q32 0 56.5 17t41 59.5t25 114t8.5 181.5q0 187 -28.5 280t-98.5 93z
M576 532q-2 186 -38 270t-113 84q-70 0 -98 -93t-28 -280q0 -110 8.5 -181.5t25 -114t40.5 -59.5t56 -17q30 0 56.5 15.5t46.5 57t32 114t12 185.5v19z" />
    <glyph glyph-name="afii10087" unicode="&#x445;" horiz-adv-x="810" 
d="M553 0l-154 375l-154 -375h-238l259 528l-241 498h248l137 -343l136 343h237l-240 -486l261 -540h-251z" />
    <glyph glyph-name="afii10088" unicode="&#x446;" horiz-adv-x="992" 
d="M748 -174v174h-659v1026h234v-849h261v849h234v-849h142v-351h-212z" />
    <glyph glyph-name="afii10089" unicode="&#x447;" horiz-adv-x="912" 
d="M309 1026v-399q0 -30 4 -60t15.5 -54.5t33.5 -39.5t58 -15q56 0 93 24.5t60 52.5v491h234v-1026h-234v380q-33 -44 -95.5 -72.5t-156.5 -28.5q-57 0 -97.5 17.5t-67.5 45.5t-43 63.5t-24 72t-10.5 70.5t-2.5 59v419h233z" />
    <glyph glyph-name="afii10090" unicode="&#x448;" horiz-adv-x="1357" 
d="M1264 1026v-1026h-1175v1026h234v-849h237v849h233v-849h238v849h233z" />
    <glyph glyph-name="afii10091" unicode="&#x449;" horiz-adv-x="1449" 
d="M1264 1026v-849h145v-351h-213v174h-1107v1026h234v-849h237v849h233v-849h238v849h233z" />
    <glyph glyph-name="afii10092" unicode="&#x44a;" horiz-adv-x="913" 
d="M14 1026h400v-358h102q86 0 152.5 -22.5t112.5 -64.5t69.5 -101.5t23.5 -133.5q0 -166 -90 -256t-274 -90h-323v841h-173v185zM414 491v-314h73q30 0 56.5 5.5t47 22t32 46t11.5 77.5q0 45 -8 76.5t-25.5 50.5t-45 27.5t-66.5 8.5h-75z" />
    <glyph glyph-name="afii10093" unicode="&#x44b;" horiz-adv-x="1299" 
d="M944 0v1026h234v-1026h-234zM329 1026v-358h101q86 0 152.5 -22.5t112.5 -64.5t69.5 -101.5t23.5 -133.5q0 -166 -89.5 -256t-273.5 -90h-323v1026h227zM329 491v-314h72q30 0 57 5.5t47 22t32 46t12 77.5q0 45 -8 76.5t-26 50.5t-45.5 27.5t-66.5 8.5h-74z" />
    <glyph glyph-name="afii10094" unicode="&#x44c;" horiz-adv-x="824" 
d="M329 1026v-358h101q86 0 152.5 -22.5t112.5 -64.5t69.5 -101.5t23.5 -133.5q0 -166 -89.5 -256t-273.5 -90h-323v1026h227zM329 491v-314h72q30 0 57 5.5t47 22t32 46t12 77.5q0 45 -8 76.5t-26 50.5t-45.5 27.5t-66.5 8.5h-74z" />
    <glyph glyph-name="afii10095" unicode="&#x44d;" horiz-adv-x="854" 
d="M274 424q4 -140 37 -211.5t109 -71.5q33 0 58.5 12.5t43.5 45.5t28.5 89.5t13.5 144.5l-210 -6v197l210 -5q-7 131 -39 199t-106 68q-70 0 -102 -62t-32 -198l-224 23q0 91 20 165.5t63.5 127.5t111.5 82.5t164 29.5q197 0 288 -134.5t91 -405.5q0 -130 -21 -231
t-66 -170t-116.5 -105t-172.5 -36q-179 0 -276 104t-99 325z" />
    <glyph glyph-name="afii10096" unicode="&#x44e;" horiz-adv-x="1314" 
d="M102 0v1026h234v-402h162q8 94 32 173t68.5 136t112.5 89t164 32q110 0 183.5 -41t117.5 -113t62.5 -171t18.5 -215t-18 -215.5t-62 -172t-117.5 -113.5t-184.5 -41q-99 0 -168.5 34t-114.5 94.5t-67.5 144t-28.5 182.5h-160v-427h-234zM875 141q39 0 66 20t44 64
t24.5 115t7.5 173t-7.5 173t-24 115.5t-43.5 64.5t-67 20q-39 0 -66 -20t-43.5 -64.5t-23.5 -115.5t-7 -173t7.5 -173t24 -115t43 -64t65.5 -20z" />
    <glyph glyph-name="afii10097" unicode="&#x44f;" horiz-adv-x="848" 
d="M21 0v197h27q31 0 53.5 13t39.5 49l46 106q10 20 21 35t22 26q-71 35 -116 101.5t-45 170.5q0 78 21.5 139t66.5 103t115 64t168 22h313v-1026h-226v383h-36q-22 0 -37.5 -4t-27.5 -14.5t-22 -29t-21 -47.5l-51 -127q-18 -49 -43 -80.5t-55.5 -49.5t-66 -24.5t-74.5 -6.5
h-72zM527 568v267h-67q-45 0 -74.5 -6.5t-47 -21.5t-25 -41t-7.5 -65q0 -71 32 -102t108 -31h81z" />
    <glyph glyph-name="afii10071" unicode="&#x451;" horiz-adv-x="843" 
d="M781 272q-11 -62 -34.5 -117t-64.5 -95.5t-101.5 -64t-144.5 -23.5q-111 0 -184 42.5t-116 116.5t-60.5 174.5t-17.5 217.5q0 121 19.5 219t64 167.5t117 107t178.5 37.5q186 0 271.5 -117t85.5 -357v-122h-504q0 -166 35 -241.5t113 -75.5q58 0 88 39t43 120zM567 618
q0 73 -6.5 125t-22.5 85.5t-42 49t-66 15.5q-39 0 -65 -20.5t-42 -57t-23.5 -87t-9.5 -110.5h277zM174 1174v193h202v-193h-202zM503 1174v193h201v-193h-201z" />
    <glyph glyph-name="afii10099" unicode="&#x452;" horiz-adv-x="929" 
d="M838 -7q0 -79 -5.5 -150.5t-29.5 -126t-74 -86.5t-138 -32q-35 0 -67 6.5t-59.5 16t-49.5 20t-37 19.5l43 157q19 -11 44.5 -22t52.5 -11q42 0 64 28.5t22 91.5v803q0 30 -3.5 60t-15.5 54.5t-33.5 39.5t-57.5 15q-70 0 -111.5 -73t-41.5 -218v-585h-234v1164h-82v173h82
v109h234v-109h192v-173h-192v-292q23 88 88.5 135t163.5 47q57 0 97.5 -17.5t67.5 -45.5t43 -63t24 -71.5t10.5 -70.5t2.5 -59v-734v0z" />
    <glyph glyph-name="afii10100" unicode="&#x453;" horiz-adv-x="699" 
d="M289 1122l129 310h252l-226 -310h-155zM684 1026v-177h-348v-849h-234v1026h582z" />
    <glyph glyph-name="afii10101" unicode="&#x454;" horiz-adv-x="854" 
d="M803 401q-3 -221 -100 -325t-275 -104q-102 0 -173.5 36t-116.5 105t-66 170t-21 231q0 271 91 405.5t289 134.5q96 0 163.5 -29.5t111 -82.5t63.5 -127.5t20 -165.5l-224 -23q0 136 -32 198t-102 62q-74 0 -106 -67.5t-39 -199.5l211 5v-197l-212 6q3 -88 14 -144.5
t29 -89.5t44 -45.5t59 -12.5q75 0 108.5 71.5t36.5 211.5z" />
    <glyph glyph-name="afii10102" unicode="&#x455;" horiz-adv-x="793" 
d="M291 468q-47 21 -85 47t-65 60.5t-42 79.5t-15 103q0 67 24 121.5t66.5 93.5t100 60t125.5 21q52 0 97.5 -8.5t85.5 -25.5t76 -42.5t70 -59.5l-104 -137q-51 49 -100.5 73.5t-104.5 24.5q-24 0 -44.5 -6.5t-36 -20.5t-24.5 -35.5t-9 -51.5q0 -50 25 -80.5t80 -54.5
l104 -47q66 -29 110.5 -60.5t72 -68t39.5 -78t12 -89.5q0 -72 -22.5 -130.5t-67 -99.5t-109.5 -63t-149 -22q-59 0 -111 13t-97.5 34.5t-83 49t-67.5 57.5l103 144q18 -20 45.5 -41.5t59.5 -39.5t67.5 -30t69.5 -12q62 0 100.5 31.5t38.5 93.5q0 25 -6 45t-21 37.5t-41.5 34
t-66.5 33.5z" />
    <glyph glyph-name="afii10103" unicode="&#x456;" horiz-adv-x="438" 
d="M102 0v1026h234v-1026h-234zM100 1217v215h239v-215h-239z" />
    <glyph glyph-name="afii10104" unicode="&#x457;" horiz-adv-x="438" 
d="M-46 1143v193h202v-193h-202zM283 1143v193h201v-193h-201zM102 0v1026h234v-1026h-234z" />
    <glyph glyph-name="afii10105" unicode="&#x458;" horiz-adv-x="438" 
d="M102 1026h234v-991q0 -79 -5.5 -150.5t-30 -126t-74 -86.5t-137.5 -32q-29 0 -59.5 1t-58 2.5t-50.5 4t-37 4.5v174h132q86 -2 86 120v1080zM100 1217v215h239v-215h-239z" />
    <glyph glyph-name="afii10106" unicode="&#x459;" horiz-adv-x="1348" 
d="M18 170h17q19 0 33.5 5.5t25.5 26t18.5 60.5t12.5 109t7 172t2 249v234h729v-358h93q86 0 152.5 -22.5t112.5 -64.5t69.5 -101.5t23.5 -133.5q0 -166 -89.5 -256t-273.5 -90h-322v828h-262v-35q0 -156 -2 -277t-10.5 -210.5t-26 -151t-48.5 -99.5t-77.5 -54.5
t-113.5 -16.5h-71v186zM863 491v-314h64q30 0 56.5 5.5t47 22t32 46t11.5 77.5q0 45 -8 76.5t-25.5 50.5t-45 27.5t-65.5 8.5h-67z" />
    <glyph glyph-name="afii10107" unicode="&#x45a;" horiz-adv-x="1320" 
d="M831 1026v-398h92q173 0 265.5 -75.5t92.5 -224.5q0 -166 -89.5 -247t-273.5 -81h-321v435h-261v-435h-234v1026h234v-393h261v393h234zM831 451v-274h63q30 0 57 4.5t47 19t32 40.5t12 69q0 42 -8 69t-25.5 43t-45 22.5t-66.5 6.5h-66z" />
    <glyph glyph-name="afii10108" unicode="&#x45b;" horiz-adv-x="929" 
d="M341 1164v-292q23 88 88.5 135t163.5 47q57 0 97.5 -17.5t67.5 -45.5t43 -63t24 -71.5t10.5 -70.5t2.5 -59v-727h-234v707q0 30 -3.5 60t-15.5 54.5t-33.5 39.5t-57.5 15q-70 0 -111.5 -73t-41.5 -218v-585h-234v1164h-82v173h82v109h234v-109h192v-173h-192z" />
    <glyph glyph-name="afii10109" unicode="&#x45c;" horiz-adv-x="885" 
d="M357 1127l129 310h252l-226 -310h-155zM102 1026h234v-413h95l33 87l124 326h240l-162 -407l-34 -107l36 -106l161 -406h-241l-124 326l-33 89h-95v-415h-234v1026z" />
    <glyph glyph-name="afii10110" unicode="&#x45e;" horiz-adv-x="788" 
d="M310 2l-309 1024h249l158 -803l146 803h235l-263 -1029q-29 -113 -60 -183.5t-69 -109.5t-85.5 -52.5t-110.5 -13.5q-53 0 -90.5 2.5t-60.5 4.5v167h110q27 0 47 7.5t36 23.5t28.5 41.5t24.5 60.5zM684 1389q-12 -125 -76 -190.5t-193 -65.5q-131 0 -198 65.5t-75 190.5
l166 35q2 -148 107 -148q51 0 77 38t27 110z" />
    <glyph glyph-name="afii10193" unicode="&#x45f;" horiz-adv-x="935" 
d="M364 -174v174h-275v1026h234v-849h261v849h234v-1026h-242v-174h-212z" />
    <glyph glyph-name="afii10146" unicode="&#x462;" horiz-adv-x="1164" 
d="M560 895h143q103 0 183 -30t134.5 -86.5t82.5 -137.5t28 -183q0 -221 -106.5 -339.5t-326.5 -118.5h-378v1216h-303v216h854v-216h-311v-321zM560 692v-489h112q48 0 86.5 12.5t66 39.5t42 71t14.5 107q0 65 -10.5 113.5t-34.5 81t-63 48.5t-96 16h-117z" />
    <glyph glyph-name="afii10194" unicode="&#x463;" horiz-adv-x="824" 
d="M329 1118v-450h101q86 0 152.5 -22.5t112.5 -64.5t69.5 -101.5t23.5 -133.5q0 -166 -89.5 -256t-273.5 -90h-323v1118h-85v172h85v156h227v-156h197v-172h-197zM329 491v-314h72q30 0 57 5.5t47 22t32 46t12 77.5q0 45 -8 76.5t-26 50.5t-45.5 27.5t-66.5 8.5h-74z" />
    <glyph glyph-name="afii10147" unicode="&#x472;" horiz-adv-x="1105" 
d="M552 -35q-246 0 -362.5 191t-116.5 558q0 370 117 561t364 191q244 0 361 -191.5t117 -562.5q0 -183 -28.5 -322.5t-87.5 -234t-149.5 -142.5t-214.5 -48zM553 178q55 0 94 25t65 75t40.5 126t19.5 177l-441 141v-9q0 -134 11 -234.5t37 -167.5t68.5 -100t105.5 -33z
M553 1253q-108 0 -158.5 -101t-60.5 -303l441 -141v6q0 135 -11.5 236.5t-37.5 168.5t-68.5 100.5t-104.5 33.5z" />
    <glyph glyph-name="afii10195" unicode="&#x473;" horiz-adv-x="877" 
d="M439 -28q-111 0 -184 41t-117 113.5t-62 171.5t-18 215t18 215t62 171.5t117.5 113.5t183.5 41q109 0 182.5 -41t117.5 -113t62.5 -171t18.5 -215t-18.5 -215.5t-62.5 -172t-117 -113.5t-183 -41zM439 141q33 0 58 15t41.5 47.5t26.5 84t13 125.5l-281 90q0 -99 8 -168
t25 -112t43.5 -62.5t65.5 -19.5zM439 886q-33 0 -57.5 -14t-41.5 -45t-26.5 -80t-13.5 -118l280 -90q-1 94 -9 160.5t-24.5 107.5t-43 60t-64.5 19z" />
    <glyph glyph-name="afii10148" unicode="&#x474;" horiz-adv-x="977" 
d="M332 0l-321 1432h268l218 -1198l215 1198h253l-320 -1432h-313z" />
    <glyph glyph-name="afii10196" unicode="&#x475;" horiz-adv-x="780" 
d="M241 0l-244 1026h236l135 -677l28 -170l29 170l135 677h222l-244 -1026h-297z" />
    <glyph glyph-name="afii10050" unicode="&#x490;" horiz-adv-x="831" 
d="M597 1432v247h210v-457h-442v-1222h-247v1432h479z" />
    <glyph glyph-name="afii10098" unicode="&#x491;" horiz-adv-x="699" 
d="M499 1026v174h185v-351h-348v-849h-234v1026h397z" />
    <glyph glyph-name="afii10846" unicode="&#x4d9;" horiz-adv-x="861" 
d="M64 690q16 187 102.5 275.5t254.5 88.5q111 0 184 -42.5t116 -117t60.5 -175t17.5 -216.5q0 -121 -19.5 -219t-64 -167.5t-117 -107t-178.5 -37.5q-187 0 -272.5 117t-85.5 358v108h504q0 166 -32.5 250t-113.5 84q-30 0 -55.5 -12t-44 -38t-29.5 -69t-12 -104zM290 407
q0 -75 6.5 -129t22.5 -88.5t42.5 -50.5t66.5 -16q39 0 64.5 21.5t41 59.5t23 90t9.5 113h-276z" />
    <glyph glyph-name="Wgrave" unicode="&#x1e80;" horiz-adv-x="1383" 
d="M852 0l-142 906l-17 141l-20 -139l-143 -908h-283l-221 1432h246l121 -960l12 -159l173 1119h235l178 -1119l12 158l115 961h239l-222 -1432h-283zM616 1577l-225 310h251l129 -310h-155z" />
    <glyph glyph-name="wgrave" unicode="&#x1e81;" horiz-adv-x="1163" 
d="M701 0l-105 615l-15 106l-13 -106l-105 -615h-272l-176 1026h229l86 -745l9 -63l11 63l114 745h236l114 -745l12 -63l7 64l86 744h229l-175 -1026h-272zM504 1160l-225 310h251l129 -310h-155z" />
    <glyph glyph-name="Wacute" unicode="&#x1e82;" horiz-adv-x="1383" 
d="M852 0l-142 906l-17 141l-20 -139l-143 -908h-283l-221 1432h246l121 -960l12 -159l173 1119h235l178 -1119l12 158l115 961h239l-222 -1432h-283zM614 1578l129 310h252l-226 -310h-155z" />
    <glyph glyph-name="wacute" unicode="&#x1e83;" horiz-adv-x="1163" 
d="M701 0l-105 615l-15 106l-13 -106l-105 -615h-272l-176 1026h229l86 -745l9 -63l11 63l114 745h236l114 -745l12 -63l7 64l86 744h229l-175 -1026h-272zM502 1161l129 310h252l-226 -310h-155z" />
    <glyph glyph-name="Wdieresis" unicode="&#x1e84;" horiz-adv-x="1383" 
d="M852 0l-142 906l-17 141l-20 -139l-143 -908h-283l-221 1432h246l121 -960l12 -159l173 1119h235l178 -1119l12 158l115 961h239l-222 -1432h-283zM431 1579v193h202v-193h-202zM760 1579v193h201v-193h-201z" />
    <glyph glyph-name="wdieresis" unicode="&#x1e85;" horiz-adv-x="1163" 
d="M701 0l-105 615l-15 106l-13 -106l-105 -615h-272l-176 1026h229l86 -745l9 -63l11 63l114 745h236l114 -745l12 -63l7 64l86 744h229l-175 -1026h-272zM318 1162v193h202v-193h-202zM647 1162v193h201v-193h-201z" />
    <glyph glyph-name="uni1E9E" unicode="&#x1e9e;" horiz-adv-x="1174" 
d="M709 -28q-93 0 -163 26.5t-128 70.5l75 171q42 -28 78.5 -41t85.5 -13q55 0 91 20.5t57 54t29.5 77t8.5 90.5q0 66 -15.5 111t-51 74.5t-93 47t-142.5 28.5v171l233 262q-29 60 -82.5 95.5t-136.5 35.5q-93 0 -141 -57t-48 -161v-1035h-247v1040q0 89 22.5 167
t72.5 135.5t130.5 90.5t197.5 33q108 0 191.5 -29t144.5 -77.5t101.5 -111.5t62.5 -131l-268 -303q64 -15 123.5 -43t104.5 -75t72 -116t27 -165q0 -98 -26.5 -179.5t-76.5 -140t-123 -91t-166 -32.5z" />
    <glyph glyph-name="Ygrave" unicode="&#x1ef2;" horiz-adv-x="918" 
d="M337 0v519l-337 913h268l197 -684l198 684h256l-336 -913v-519h-246zM388 1574l-225 310h251l129 -310h-155z" />
    <glyph glyph-name="ygrave" unicode="&#x1ef3;" horiz-adv-x="788" 
d="M310 2l-309 1024h249l158 -803l146 803h235l-263 -1029q-29 -113 -60 -183.5t-69 -109.5t-85.5 -52.5t-110.5 -13.5q-53 0 -90.5 2.5t-60.5 4.5v167h110q27 0 47 7.5t36 23.5t28.5 41.5t24.5 60.5zM348 1158l-225 310h251l129 -310h-155z" />
    <glyph glyph-name="endash" unicode="&#x2013;" horiz-adv-x="871" 
d="M0 403v224h871v-224h-871z" />
    <glyph glyph-name="emdash" unicode="&#x2014;" horiz-adv-x="1102" 
d="M0 403v224h1102v-224h-1102z" />
    <glyph glyph-name="quoteleft" unicode="&#x2018;" horiz-adv-x="406" 
d="M333 1343q-30 -13 -50.5 -28.5t-33 -36t-17.5 -47t-5 -60.5h88v-265h-243v251q0 48 12 93t40 83.5t73 68.5t111 48z" />
    <glyph glyph-name="quoteright" unicode="&#x2019;" horiz-adv-x="406" 
d="M72 994q30 13 50.5 28.5t33 36t17.5 47t5 61.5h-89v265h244v-252q0 -47 -12 -92t-40 -83.5t-73.5 -68.5t-111.5 -48z" />
    <glyph glyph-name="quotesinglbase" unicode="&#x201a;" horiz-adv-x="426" 
d="M72 -173q30 13 50.5 28.5t33 36t17.5 47t5 61.5h-89v266h244v-253q0 -47 -12 -92t-40 -84t-73.5 -69t-111.5 -47z" />
    <glyph glyph-name="quotedblleft" unicode="&#x201c;" horiz-adv-x="738" 
d="M668 1345q-30 -14 -50.5 -29.5t-33 -35.5t-17.5 -46.5t-5 -61.5h88v-265h-243v252q0 47 12 92t40 84t73 69t111 47zM333 1345q-30 -14 -50.5 -29.5t-33 -35.5t-17.5 -46.5t-5 -61.5h88v-265h-243v252q0 47 12 92t40 84t73 69t111 47z" />
    <glyph glyph-name="quotedblright" unicode="&#x201d;" horiz-adv-x="738" 
d="M72 994q30 13 50.5 28.5t33 36t17.5 47t5 61.5h-89v265h244v-252q0 -47 -12 -92t-40 -83.5t-73.5 -68.5t-111.5 -48zM407 994q30 13 50.5 28.5t33 36t17.5 47t5 61.5h-89v265h244v-252q0 -47 -12 -92t-40 -83.5t-73.5 -68.5t-111.5 -48z" />
    <glyph glyph-name="quotedblbase" unicode="&#x201e;" horiz-adv-x="762" 
d="M72 -173q30 13 50.5 28.5t33 36t17.5 47t5 61.5h-89v266h244v-253q0 -47 -12 -92t-40 -84t-73.5 -69t-111.5 -47zM407 -173q30 13 50.5 28.5t33 36t17.5 47t5 61.5h-89v266h244v-253q0 -47 -12 -92t-40 -84t-73.5 -69t-111.5 -47z" />
    <glyph glyph-name="dagger" unicode="&#x2020;" horiz-adv-x="809" 
d="M294 -176l24 1018l-268 -14v204l268 -14l-24 419h219l-23 -419l268 14v-204l-268 14l23 -1018h-219z" />
    <glyph glyph-name="daggerdbl" unicode="&#x2021;" horiz-adv-x="809" 
d="M294 -176l17 410l-261 -14v204l268 -14v432l-268 -14v204l268 -14l-24 419h219l-23 -419l268 14v-204l-268 14l1 -432l267 14v-204l-261 14l16 -410h-219z" />
    <glyph glyph-name="bullet" unicode="&#x2022;" horiz-adv-x="588" 
d="M292 408q-47 0 -87.5 17t-70.5 48t-47 74t-17 95t17 95t47 73.5t70.5 47t87.5 16.5q48 0 89.5 -16.5t71.5 -47t47.5 -73.5t17.5 -95q0 -51 -16.5 -94t-46.5 -74t-71.5 -48.5t-91.5 -17.5z" />
    <glyph glyph-name="ellipsis" unicode="&#x2026;" horiz-adv-x="1321" 
d="M87 0v311h229v-311h-229zM534 0v311h229v-311h-229zM981 0v311h229v-311h-229z" />
    <glyph glyph-name="perthousand" unicode="&#x2030;" horiz-adv-x="1750" 
d="M1445 -19q-109 0 -169 66q-60 -66 -170 -66q-67 0 -114 24t-77 72.5t-44 120.5t-14 168q0 195 58.5 291.5t192.5 96.5q108 0 168 -66q60 66 171 66q133 0 191.5 -96.5t58.5 -292.5q0 -191 -59 -287.5t-193 -96.5zM300 675q-133 0 -191 96t-58 289q0 194 58.5 290.5
t192.5 96.5q133 0 191.5 -96.5t58.5 -291.5q0 -192 -59 -288t-193 -96zM300 26l650 1442l149 -56l-649 -1441zM301 813q24 0 40.5 13.5t27.5 42.5t16 76t5 115t-5 115t-16 76.5t-28 43t-40 13.5t-40 -13.5t-27.5 -43t-15.5 -77t-5 -115.5q0 -67 5 -114t15.5 -76t27 -42.5
t40.5 -13.5zM1446 119q24 0 40.5 13.5t27 43t15.5 76.5t5 114q0 68 -5 115t-15.5 76.5t-27.5 43t-40 13.5t-40 -13.5t-27.5 -43t-15.5 -77t-5 -115.5v-19q1 -123 21.5 -175t66.5 -52zM1107 119q22 0 38.5 12.5t27 39.5t16 70.5t6.5 105.5v38q-1 63 -6.5 106.5t-16 70.5
t-27 39.5t-38.5 12.5q-23 0 -39.5 -13.5t-27.5 -43t-16 -77t-5 -115.5q0 -67 5 -113.5t15.5 -76t27 -43t40.5 -13.5z" />
    <glyph glyph-name="guilsinglleft" unicode="&#x2039;" horiz-adv-x="533" 
d="M250 97l-214 437l216 436h224l-218 -437l216 -436h-224z" />
    <glyph glyph-name="guilsinglright" unicode="&#x203a;" horiz-adv-x="533" 
d="M56 97l216 436l-218 437h224l217 -436l-215 -437h-224z" />
    <glyph glyph-name="fraction" unicode="&#x2044;" horiz-adv-x="238" 
d="M-287 26l649 1442l149 -56l-649 -1441z" />
    <glyph glyph-name="zerosuperior" unicode="&#x2070;" 
d="M477 261l936 945q186 -239 186 -476q0 -135 -42.5 -256t-124.5 -213h-955zM337 238q-88 111 -133 233t-45 259q0 58 10 119.5t31 120.5t52.5 112t73.5 95h948zM400 180h960q-117 -93 -236.5 -137t-246.5 -44q-139 0 -258 48t-219 133zM1360 1263h-969q116 87 236.5 134.5
t249.5 47.5q74 0 137 -15t121 -40.5t113 -58.5t112 -68z" />
    <glyph glyph-name="foursuperior" unicode="&#x2074;" 
d="M477 261l936 945q186 -239 186 -476q0 -135 -42.5 -256t-124.5 -213h-955zM337 238q-88 111 -133 233t-45 259q0 58 10 119.5t31 120.5t52.5 112t73.5 95h948zM400 180h960q-117 -93 -236.5 -137t-246.5 -44q-139 0 -258 48t-219 133zM1360 1263h-969q116 87 236.5 134.5
t249.5 47.5q74 0 137 -15t121 -40.5t113 -58.5t112 -68z" />
    <glyph glyph-name="fivesuperior" unicode="&#x2075;" 
d="M477 261l936 945q186 -239 186 -476q0 -135 -42.5 -256t-124.5 -213h-955zM337 238q-88 111 -133 233t-45 259q0 58 10 119.5t31 120.5t52.5 112t73.5 95h948zM400 180h960q-117 -93 -236.5 -137t-246.5 -44q-139 0 -258 48t-219 133zM1360 1263h-969q116 87 236.5 134.5
t249.5 47.5q74 0 137 -15t121 -40.5t113 -58.5t112 -68z" />
    <glyph glyph-name="sixsuperior" unicode="&#x2076;" 
d="M477 261l936 945q186 -239 186 -476q0 -135 -42.5 -256t-124.5 -213h-955zM337 238q-88 111 -133 233t-45 259q0 58 10 119.5t31 120.5t52.5 112t73.5 95h948zM400 180h960q-117 -93 -236.5 -137t-246.5 -44q-139 0 -258 48t-219 133zM1360 1263h-969q116 87 236.5 134.5
t249.5 47.5q74 0 137 -15t121 -40.5t113 -58.5t112 -68z" />
    <glyph glyph-name="sevensuperior" unicode="&#x2077;" 
d="M477 261l936 945q186 -239 186 -476q0 -135 -42.5 -256t-124.5 -213h-955zM337 238q-88 111 -133 233t-45 259q0 58 10 119.5t31 120.5t52.5 112t73.5 95h948zM400 180h960q-117 -93 -236.5 -137t-246.5 -44q-139 0 -258 48t-219 133zM1360 1263h-969q116 87 236.5 134.5
t249.5 47.5q74 0 137 -15t121 -40.5t113 -58.5t112 -68z" />
    <glyph glyph-name="eightsuperior" unicode="&#x2078;" 
d="M477 261l936 945q186 -239 186 -476q0 -135 -42.5 -256t-124.5 -213h-955zM337 238q-88 111 -133 233t-45 259q0 58 10 119.5t31 120.5t52.5 112t73.5 95h948zM400 180h960q-117 -93 -236.5 -137t-246.5 -44q-139 0 -258 48t-219 133zM1360 1263h-969q116 87 236.5 134.5
t249.5 47.5q74 0 137 -15t121 -40.5t113 -58.5t112 -68z" />
    <glyph glyph-name="ninesuperior" unicode="&#x2079;" 
d="M477 261l936 945q186 -239 186 -476q0 -135 -42.5 -256t-124.5 -213h-955zM337 238q-88 111 -133 233t-45 259q0 58 10 119.5t31 120.5t52.5 112t73.5 95h948zM400 180h960q-117 -93 -236.5 -137t-246.5 -44q-139 0 -258 48t-219 133zM1360 1263h-969q116 87 236.5 134.5
t249.5 47.5q74 0 137 -15t121 -40.5t113 -58.5t112 -68z" />
    <glyph glyph-name="parenleftsuperior" unicode="&#x207d;" horiz-adv-x="315" 
d="M183 665q-67 108 -100.5 231t-33.5 247q0 123 33 244t101 224l128 -19q-113 -210 -113 -450q0 -121 27.5 -232.5t87.5 -220.5z" />
    <glyph glyph-name="parenrightsuperior" unicode="&#x207e;" horiz-adv-x="315" 
d="M2 688q60 110 87.5 221.5t27.5 232.5q0 240 -113 450l129 19q66 -103 100 -224t34 -244q0 -124 -34 -247t-100 -231z" />
    <glyph glyph-name="nsuperior" unicode="&#x207f;" horiz-adv-x="596" 
d="M371 786v443q0 19 -2 35.5t-8 29.5t-17.5 20.5t-30.5 7.5q-36 0 -58.5 -41t-22.5 -126v-369h-172v648h160v-104q17 58 61 90t106 32q54 0 85 -24t46.5 -57t19 -68.5t3.5 -58.5v-458h-170z" />
    <glyph glyph-name="zeroinferior" unicode="&#x2080;" 
d="M477 261l936 945q186 -239 186 -476q0 -135 -42.5 -256t-124.5 -213h-955zM337 238q-88 111 -133 233t-45 259q0 58 10 119.5t31 120.5t52.5 112t73.5 95h948zM400 180h960q-117 -93 -236.5 -137t-246.5 -44q-139 0 -258 48t-219 133zM1360 1263h-969q116 87 236.5 134.5
t249.5 47.5q74 0 137 -15t121 -40.5t113 -58.5t112 -68z" />
    <glyph glyph-name="oneinferior" unicode="&#x2081;" 
d="M477 261l936 945q186 -239 186 -476q0 -135 -42.5 -256t-124.5 -213h-955zM337 238q-88 111 -133 233t-45 259q0 58 10 119.5t31 120.5t52.5 112t73.5 95h948zM400 180h960q-117 -93 -236.5 -137t-246.5 -44q-139 0 -258 48t-219 133zM1360 1263h-969q116 87 236.5 134.5
t249.5 47.5q74 0 137 -15t121 -40.5t113 -58.5t112 -68z" />
    <glyph glyph-name="twoinferior" unicode="&#x2082;" 
d="M477 261l936 945q186 -239 186 -476q0 -135 -42.5 -256t-124.5 -213h-955zM337 238q-88 111 -133 233t-45 259q0 58 10 119.5t31 120.5t52.5 112t73.5 95h948zM400 180h960q-117 -93 -236.5 -137t-246.5 -44q-139 0 -258 48t-219 133zM1360 1263h-969q116 87 236.5 134.5
t249.5 47.5q74 0 137 -15t121 -40.5t113 -58.5t112 -68z" />
    <glyph glyph-name="threeinferior" unicode="&#x2083;" 
d="M477 261l936 945q186 -239 186 -476q0 -135 -42.5 -256t-124.5 -213h-955zM337 238q-88 111 -133 233t-45 259q0 58 10 119.5t31 120.5t52.5 112t73.5 95h948zM400 180h960q-117 -93 -236.5 -137t-246.5 -44q-139 0 -258 48t-219 133zM1360 1263h-969q116 87 236.5 134.5
t249.5 47.5q74 0 137 -15t121 -40.5t113 -58.5t112 -68z" />
    <glyph glyph-name="fourinferior" unicode="&#x2084;" 
d="M477 261l936 945q186 -239 186 -476q0 -135 -42.5 -256t-124.5 -213h-955zM337 238q-88 111 -133 233t-45 259q0 58 10 119.5t31 120.5t52.5 112t73.5 95h948zM400 180h960q-117 -93 -236.5 -137t-246.5 -44q-139 0 -258 48t-219 133zM1360 1263h-969q116 87 236.5 134.5
t249.5 47.5q74 0 137 -15t121 -40.5t113 -58.5t112 -68z" />
    <glyph glyph-name="fiveinferior" unicode="&#x2085;" 
d="M477 261l936 945q186 -239 186 -476q0 -135 -42.5 -256t-124.5 -213h-955zM337 238q-88 111 -133 233t-45 259q0 58 10 119.5t31 120.5t52.5 112t73.5 95h948zM400 180h960q-117 -93 -236.5 -137t-246.5 -44q-139 0 -258 48t-219 133zM1360 1263h-969q116 87 236.5 134.5
t249.5 47.5q74 0 137 -15t121 -40.5t113 -58.5t112 -68z" />
    <glyph glyph-name="sixinferior" unicode="&#x2086;" 
d="M477 261l936 945q186 -239 186 -476q0 -135 -42.5 -256t-124.5 -213h-955zM337 238q-88 111 -133 233t-45 259q0 58 10 119.5t31 120.5t52.5 112t73.5 95h948zM400 180h960q-117 -93 -236.5 -137t-246.5 -44q-139 0 -258 48t-219 133zM1360 1263h-969q116 87 236.5 134.5
t249.5 47.5q74 0 137 -15t121 -40.5t113 -58.5t112 -68z" />
    <glyph glyph-name="seveninferior" unicode="&#x2087;" 
d="M477 261l936 945q186 -239 186 -476q0 -135 -42.5 -256t-124.5 -213h-955zM337 238q-88 111 -133 233t-45 259q0 58 10 119.5t31 120.5t52.5 112t73.5 95h948zM400 180h960q-117 -93 -236.5 -137t-246.5 -44q-139 0 -258 48t-219 133zM1360 1263h-969q116 87 236.5 134.5
t249.5 47.5q74 0 137 -15t121 -40.5t113 -58.5t112 -68z" />
    <glyph glyph-name="eightinferior" unicode="&#x2088;" 
d="M477 261l936 945q186 -239 186 -476q0 -135 -42.5 -256t-124.5 -213h-955zM337 238q-88 111 -133 233t-45 259q0 58 10 119.5t31 120.5t52.5 112t73.5 95h948zM400 180h960q-117 -93 -236.5 -137t-246.5 -44q-139 0 -258 48t-219 133zM1360 1263h-969q116 87 236.5 134.5
t249.5 47.5q74 0 137 -15t121 -40.5t113 -58.5t112 -68z" />
    <glyph glyph-name="nineinferior" unicode="&#x2089;" 
d="M477 261l936 945q186 -239 186 -476q0 -135 -42.5 -256t-124.5 -213h-955zM337 238q-88 111 -133 233t-45 259q0 58 10 119.5t31 120.5t52.5 112t73.5 95h948zM400 180h960q-117 -93 -236.5 -137t-246.5 -44q-139 0 -258 48t-219 133zM1360 1263h-969q116 87 236.5 134.5
t249.5 47.5q74 0 137 -15t121 -40.5t113 -58.5t112 -68z" />
    <glyph glyph-name="parenleftinferior" unicode="&#x208d;" horiz-adv-x="315" 
d="M183 -252q-67 108 -100.5 231t-33.5 247q0 123 33 244t101 224l128 -19q-113 -210 -113 -450q0 -121 27.5 -232.5t87.5 -220.5z" />
    <glyph glyph-name="parenrightinferior" unicode="&#x208e;" horiz-adv-x="315" 
d="M2 -229q60 110 87.5 221.5t27.5 232.5q0 240 -113 450l129 19q66 -103 100 -224t34 -244q0 -124 -34 -247t-100 -231z" />
    <glyph glyph-name="lira" unicode="&#x20a4;" horiz-adv-x="1184" 
d="M632 489q3 -127 -24 -232q30 -21 56.5 -39.5t53 -32t53 -21.5t56.5 -8q38 0 64.5 9t44.5 26t30 40.5t23 52.5l160 -40q-7 -72 -37.5 -123.5t-74 -84.5t-95 -48.5t-102.5 -15.5q-78 0 -153 33t-153 91q-43 -58 -106 -91t-148 -33q-54 0 -98 15.5t-75 43t-48 66t-17 85.5
q0 45 14.5 85.5t42.5 70.5t69.5 47.5t96.5 17.5q79 0 164 -37q2 29 1.5 60t-2.5 63h-202v140h182q-4 21 -9 42t-11 43h-162v140h103q-7 36 -15.5 73.5t-8.5 92.5q0 77 21 150.5t66.5 130.5t118 92t176.5 35q83 0 153.5 -19.5t122 -65t80.5 -121.5t29 -189l-187 -36
q-3 63 -18 107.5t-39 72.5t-54 41t-63 13q-48 0 -81.5 -15t-54.5 -42.5t-30 -67t-9 -87.5q0 -36 6.5 -77.5t17.5 -87.5h308v-140h-264q9 -45 15 -85h249v-140h-236zM287 123q36 0 63 22.5t45 60.5q-35 25 -60.5 35t-49.5 10q-35 0 -50.5 -19t-15.5 -45q0 -31 19 -47.5
t49 -16.5z" />
    <glyph glyph-name="Euro" unicode="&#x20ac;" horiz-adv-x="1033" 
d="M983 493q-6 -125 -33.5 -223.5t-81.5 -166t-135.5 -103t-195.5 -35.5q-201 0 -313 140t-140 416h-139l15 124h116q-1 17 -1 35v37v36t1 36h-131l15 124h124q28 273 141.5 413t318.5 140q111 0 191 -35.5t133 -103t81 -166t34 -223.5l-232 -19q-6 74 -19 135.5t-36.5 106
t-59 69t-87.5 24.5q-51 0 -87.5 -25t-61.5 -70t-39 -107.5t-21 -138.5h293l-16 -124h-285q-1 -25 -1 -50.5v-51.5v-42h302l-16 -124h-280q7 -82 22.5 -146t41.5 -108t63 -67t88 -23t86 24.5t58 69t36 106t19 135.5z" />
    <glyph glyph-name="uni20B9" unicode="&#x20b9;" horiz-adv-x="1067" 
d="M978 932h-77q-17 -63 -56 -121.5t-100.5 -104t-145.5 -74t-192 -31.5l-84 -1l510 -600h-284l-444 548v224h263q131 1 199 42t88 118h-550v129h557q-12 92 -71 130t-165 38h-321v203h904l-31 -162h-141q35 -46 54 -99t23 -110h95z" />
    <glyph glyph-name="uni20BA" unicode="&#x20ba;" horiz-adv-x="964" 
d="M171 0v535l-104 -39l-23 118l127 50v172l-104 -41l-23 119l127 50v452h246v-366l273 108l24 -119l-297 -117v-171l273 107l24 -119l-297 -117v-412h44q48 0 91 18.5t76.5 53.5t55 85.5t27.5 115.5h222q-11 -108 -45.5 -197t-95.5 -152.5t-150 -98.5t-209 -35h-262z" />
    <glyph glyph-name="Ruble" unicode="&#x20bd;" horiz-adv-x="1007" 
d="M34 395h130v142h-130v203h130v692h377q220 0 326.5 -118.5t106.5 -339.5q0 -102 -28 -183t-82 -137.5t-133.5 -86.5t-182.5 -30h-144v-142h330v-141h-330v-254h-240v254h-130v141zM404 740h117q57 0 96 16t62.5 48t34 81t10.5 114q0 63 -14.5 107t-41.5 71t-65.5 39.5
t-86.5 12.5h-112v-489z" />
    <glyph glyph-name="Bitcoin" unicode="&#x20bf;" horiz-adv-x="991" 
d="M443 -202v202h-325v1432h325v179h87v-179q94 -1 165.5 -26t120 -70.5t73 -110.5t24.5 -146q0 -61 -18 -118t-53 -101.5t-85.5 -72.5t-114.5 -31q68 -3 123.5 -31.5t94.5 -74t60 -105.5t21 -127q0 -99 -24.5 -176t-75 -130.5t-128 -82t-183.5 -29.5v-203zM683 418
q0 99 -34.5 159t-118.5 75v-464q39 6 67.5 21.5t47.5 43t28.5 68t9.5 97.5zM443 183v474h-89v-474h89zM656 1052q0 78 -30 126t-96 64v-409q69 18 97.5 74.5t28.5 144.5zM443 825v424h-89v-424h89z" />
    <glyph glyph-name="afii61352" unicode="&#x2116;" horiz-adv-x="1686" 
d="M1170 560v139h449v-139h-449zM1405 814q-68 0 -114 24t-73.5 67.5t-39 103t-11.5 130.5q0 72 11.5 131.5t39.5 103t73.5 67.5t113.5 24t113.5 -24t72.5 -67t38.5 -102.5t11.5 -131.5q0 -71 -11.5 -131t-38.5 -103.5t-72.5 -67.5t-113.5 -24zM1405 927q21 0 35.5 10.5
t23 35t12 65t3.5 101.5t-3.5 102t-12 66t-23 35t-35.5 10q-22 0 -36.5 -10t-23 -35t-12 -66t-3.5 -102q0 -60 3.5 -101t12 -65.5t23 -35t36.5 -10.5zM740 0l-368 890l-61 162l22 -173v-879h-215v1432h255l367 -890l62 -164l-23 173v881h215v-1432h-254z" />
    <glyph glyph-name="trademark" unicode="&#x2122;" horiz-adv-x="1354" 
d="M1140 621v435l3 168l-32 -132l-110 -471h-113l-116 492l-27 111l4 -127v-476h-137v811h200l111 -462l21 -118l23 119l108 461h203v-811h-138zM198 621v666h-177v145h514v-145h-176v-666h-161z" />
    <glyph glyph-name="uni2126" unicode="&#x2126;" horiz-adv-x="1075" 
d="M595 0v219q5 60 18 113.5t29.5 104t34 100t32 103t24 112.5t9.5 128q0 77 -9 145t-32 118.5t-63 80t-101 29.5q-59 0 -99 -29.5t-65 -80t-36 -118.5t-11 -145q0 -69 9.5 -128t24 -112t32 -102.5t33.5 -100t29 -103.5t19 -114v-220h-417v210h214q-1 45 -16 89.5t-37.5 92
t-48.5 100t-48 113.5t-37 132t-15 156q0 54 9 118t29.5 127.5t55.5 122.5t87 104.5t123 73t165 27.5q96 0 167.5 -28t123 -74t85 -106t53 -124t27 -127t7.5 -116q0 -84 -15 -154.5t-37 -131.5t-48 -113.5t-48.5 -100t-37.5 -92t-15 -89.5h214v-210h-418z" />
    <glyph glyph-name="estimated" unicode="&#x212e;" horiz-adv-x="1150" 
d="M1013 268q-57 -137 -169.5 -212t-266.5 -75q-116 0 -210.5 37.5t-161.5 110t-103 178.5t-36 244q0 141 33.5 253t98.5 190t160.5 119.5t218.5 41.5q108 0 200.5 -36.5t161 -104t107.5 -162t39 -211.5v-83h-782l2 -404q56 -56 125 -83t150 -27q117 0 200.5 59t140.5 181z
M827 617q20 0 25 19t5 45v215q0 54 -25 91.5t-65 61.5t-90 35t-100 11q-48 0 -97.5 -11.5t-90 -36t-66 -62.5t-25.5 -91v-230q0 -32 16.5 -39.5t39.5 -7.5h473z" />
    <glyph glyph-name="arrowleft" unicode="&#x2190;" horiz-adv-x="1565" 
d="M1543 847v-200h-845q-63 0 -122 3.5t-106 8.5q-55 5 -103 12l135 -172l-91 -83l-361 331l362 331l90 -84l-135 -171q49 7 104 12q47 5 106 8.5t122 3.5h844z" />
    <glyph glyph-name="arrowup" unicode="&#x2191;" horiz-adv-x="830" 
d="M304 846q0 62 3.5 121.5t8.5 106.5q5 55 13 104l-171 -135l-86 90l333 362l331 -361l-84 -91l-173 135q7 -48 12 -103q5 -47 9 -106.5t4 -122.5v-845h-200v845z" />
    <glyph glyph-name="arrowright" unicode="&#x2192;" horiz-adv-x="1565" 
d="M895 847q62 0 121 -3.5t106 -8.5q55 -5 104 -12l-135 171l90 84l362 -331l-361 -331l-91 83l135 172q-48 -7 -103 -12q-47 -5 -106 -8.5t-122 -3.5h-845v200h845z" />
    <glyph glyph-name="arrowdown" unicode="&#x2193;" horiz-adv-x="830" 
d="M304 1430h200v-845q0 -63 -4 -122.5t-9 -106.5q-5 -55 -12 -102l173 134l84 -91l-331 -360l-333 361l86 90l171 -134q-8 49 -13 104q-5 47 -8.5 106t-3.5 122v844z" />
    <glyph glyph-name="arrowboth" unicode="&#x2194;" horiz-adv-x="2156" 
d="M1484 847q63 0 122 -3.5t107 -8.5q55 -5 104 -12l-135 171l90 84l362 -331l-361 -331l-91 83l135 172q-48 -7 -103 -12q-47 -5 -106.5 -8.5t-122.5 -3.5h-799q-64 0 -123 3.5t-106 8.5q-55 5 -103 12l134 -172l-91 -83l-360 331l362 331l89 -84l-134 -171q49 7 104 12
q47 5 106 8.5t122 3.5h798z" />
    <glyph glyph-name="arrowupdn" unicode="&#x2195;" horiz-adv-x="1035" 
d="M609 893q0 -105 -3 -207t-7 -193t-8 -167t-7 -128l171 135l85 -90l-332 -362l-331 361l84 91l172 -135q-8 48 -13 103q-5 47 -8.5 106.5t-3.5 122.5v367q0 63 3.5 122t8.5 105q5 54 13 101l-172 -135l-84 93l331 359l332 -361l-85 -91l-171 135q7 -49 12 -104
q5 -47 9 -106t4 -122z" />
    <glyph glyph-name="uni2196" unicode="&#x2196;" horiz-adv-x="1529" 
d="M1468 136l-142 -142l-899 907q-45 45 -84.5 90t-68.5 81q-34 42 -64 81l-28 -217l-123 6l-21 489l491 -22l3 -123l-216 -26q3 -2 26.5 -20t59.5 -47.5t79.5 -68t86.5 -81.5z" />
    <glyph glyph-name="uni2197" unicode="&#x2197;" horiz-adv-x="1529" 
d="M939 1043q44 44 88 83t80 69q42 35 82 65l-215 26l3 123l491 22l-21 -489l-123 -6l-28 217q-30 -39 -64 -81q-29 -36 -68 -81t-84 -90l-901 -907l-141 142z" />
    <glyph glyph-name="uni2198" unicode="&#x2198;" horiz-adv-x="1529" 
d="M38 1289l141 142l901 -908q45 -45 84 -89.5t68 -80.5q34 -42 64 -81l28 217l123 -6l21 -489l-491 22l-3 122l215 26q-40 30 -82 65q-36 30 -80 69t-88 84z" />
    <glyph glyph-name="uni2199" unicode="&#x2199;" horiz-adv-x="1529" 
d="M568 382q-43 -43 -86.5 -81.5t-79.5 -68.5t-59.5 -48t-26.5 -20l216 -26l-3 -122l-491 -22l21 489l123 6l28 -217q30 39 64 81q29 36 68.5 80.5t84.5 89.5l899 908l142 -142z" />
    <glyph glyph-name="uni21C4" unicode="&#x21c4;" horiz-adv-x="1733" 
d="M1062 1120q62 0 121 -4t106 -9q55 -5 104 -12l-135 171l90 85l362 -332l-360 -330l-92 83l135 172q-48 -7 -103 -12q-47 -5 -106 -8.5t-122 -3.5h-846v200h846zM1531 495v-201h-844q-64 0 -123 3.5t-106 8.5q-55 5 -103 12l135 -171l-91 -84l-361 331l362 331l90 -84
l-135 -171q49 7 104 12q47 5 106.5 9t122.5 4h843z" />
    <glyph glyph-name="uni21C5" unicode="&#x21c5;" horiz-adv-x="1607" 
d="M1213 519q0 -63 -4 -121.5t-9 -105.5q-5 -55 -12 -104l171 135l85 -90l-332 -362l-330 360l82 92l173 -135q-7 47 -12 102q-5 47 -8.5 106.5t-3.5 122.5v845h200v-845zM587 49h-200v845q0 63 3.5 122t8.5 106q5 55 13 103l-173 -135l-83 93l330 359l333 -361l-86 -91
l-170 135q7 -49 12 -104q5 -47 8.5 -106t3.5 -122v-844z" />
    <glyph glyph-name="partialdiff" unicode="&#x2202;" horiz-adv-x="912" 
d="M138 1248q43 90 118 137t182 47q82 0 145 -28.5t109 -79t77 -119t49 -149t24.5 -169.5t4.5 -179q-3 -179 -24.5 -317t-70.5 -231.5t-129 -142t-200 -48.5q-180 0 -271 112t-91 321q0 112 21 204t63 158t105.5 102t147.5 36q79 0 140 -40t93 -134q0 52 -3 110t-11.5 115
t-23 108.5t-38 90.5t-57 62.5t-78.5 23.5q-51 0 -82 -25t-50 -61zM433 153q49 0 82.5 29.5t53 77t28 107.5t8.5 120q0 124 -39 181.5t-109 57.5q-44 0 -76 -20.5t-52 -59t-29.5 -94.5t-9.5 -126q0 -140 31.5 -206.5t111.5 -66.5z" />
    <glyph glyph-name="uni2206" unicode="&#x2206;" horiz-adv-x="991" 
d="M21 0l318 1432h321l310 -1432h-949zM495 1222l-209 -1037h410z" />
    <glyph glyph-name="product" unicode="&#x220f;" horiz-adv-x="1074" 
d="M711 -195v1420h-350v-1420h-243v1626h838v-1626h-245z" />
    <glyph glyph-name="summation" unicode="&#x2211;" horiz-adv-x="892" 
d="M34 -185v162l366 668l-329 611v175h754v-208h-481l306 -573l-328 -627h511v-208h-799z" />
    <glyph glyph-name="minus" unicode="&#x2212;" horiz-adv-x="928" 
d="M88 574v196h751v-196h-751z" />
    <glyph glyph-name="radical" unicode="&#x221a;" horiz-adv-x="1004" 
d="M352 -95l-182 631h-141v202h303l137 -552l283 1286h226l-380 -1567h-246z" />
    <glyph glyph-name="infinity" unicode="&#x221e;" horiz-adv-x="1001" 
d="M503 530q-42 -82 -93.5 -123.5t-124.5 -41.5q-54 0 -98 20t-75 58.5t-48 94.5t-17 127q0 148 61 231.5t173 83.5q74 0 126 -41t92 -122q42 81 93 122t126 41q53 0 96.5 -20t74.5 -58.5t48 -94t17 -125.5q0 -150 -60.5 -233.5t-172.5 -83.5q-75 0 -126 42t-92 123z
M434 672q-23 69 -53 107.5t-75 38.5q-42 0 -66 -35t-24 -104q0 -149 90 -149q44 0 73.5 36.5t54.5 105.5zM568 673q23 -67 53 -105t76 -38q42 0 66 34t24 103q0 151 -90 151q-45 0 -75 -37.5t-54 -107.5z" />
    <glyph glyph-name="integral" unicode="&#x222b;" horiz-adv-x="688" 
d="M77 -33q14 -2 28.5 -5t30.5 -3q29 0 52 7t39 23t24 41t6 60l-50 996q-5 84 9.5 152.5t51.5 118t99 76.5t154 27q26 -1 51 -5.5t53 -12.5l-15 -186q-27 6 -54 6q-30 0 -53 -7.5t-38.5 -26.5t-22.5 -51.5t-5 -81.5l47 -908q4 -78 -7 -154t-44 -135.5t-92 -96.5t-150 -37
q-31 0 -64.5 4t-65.5 13z" />
    <glyph glyph-name="approxequal" unicode="&#x2248;" horiz-adv-x="1020" 
d="M134 629q3 125 62 188.5t160 63.5q33 0 58 -6.5t47 -17t41.5 -22.5t40.5 -24q36 -21 59 -32t46 -11q21 0 36.5 9t25 24t14 33.5t4.5 38.5l172 -18q-5 -119 -61.5 -184.5t-161.5 -65.5q-32 0 -58 7t-49 18t-44 24.5t-42 25.5q-18 11 -43 24.5t-54 13.5q-22 0 -37.5 -9.5
t-25 -24.5t-14.5 -34t-5 -38zM134 227q3 125 62 188.5t160 63.5q33 0 58 -6.5t47 -17t41.5 -22.5t40.5 -24q36 -21 59 -32.5t46 -11.5q21 0 36.5 9t25 24t14 34t4.5 39l172 -18q-5 -119 -61.5 -185t-161.5 -66q-32 0 -58 7t-49 18.5t-44 25t-42 25.5q-18 10 -43 24t-54 14
q-22 0 -37.5 -9.5t-25 -25t-14.5 -34.5t-5 -37z" />
    <glyph glyph-name="notequal" unicode="&#x2260;" horiz-adv-x="928" 
d="M409 233l-88 -181l-141 64l57 117h-139v193h233l98 202h-331v193h425l87 178l140 -63l-56 -115h136v-193h-230l-98 -202h328v-193h-421z" />
    <glyph glyph-name="lessequal" unicode="&#x2264;" horiz-adv-x="969" 
d="M130 0v196h707v-196h-707zM130 658v204l707 368v-221l-504 -246l504 -244v-228z" />
    <glyph glyph-name="greaterequal" unicode="&#x2265;" horiz-adv-x="969" 
d="M130 0v196h707v-196h-707zM130 291v228l504 244l-504 246v221l707 -368v-204z" />
    <glyph glyph-name="uni2460" unicode="&#x2460;" horiz-adv-x="1340" 
d="M665 -16q-143 0 -253 49t-185 144t-113.5 233t-38.5 317q0 148 31 279t100.5 229.5t182 155.5t275.5 57t275.5 -54.5t182 -150.5t100.5 -228t31 -288q0 -161 -30.5 -297t-100 -235t-182 -155t-275.5 -56zM666 95q117 0 204.5 42t145.5 122.5t86.5 198t28.5 269.5
q0 125 -26.5 236t-83 194t-144 131t-210.5 48t-211.5 -46.5t-145.5 -128.5t-84 -193.5t-27 -240.5q0 -136 22 -251.5t76 -200t144 -132.5t225 -48zM608 366v533l-117 -2v97q56 8 94 31.5t49 78.5h127v-738h-153z" />
    <glyph glyph-name="uni2461" unicode="&#x2461;" horiz-adv-x="1340" 
d="M665 -16q-143 0 -253 49t-185 144t-113.5 233t-38.5 317q0 148 31 279t100.5 229.5t182 155.5t275.5 57t275.5 -54.5t182 -150.5t100.5 -228t31 -288q0 -161 -30.5 -297t-100 -235t-182 -155t-275.5 -56zM666 95q117 0 204.5 42t145.5 122.5t86.5 198t28.5 269.5
q0 125 -26.5 236t-83 194t-144 131t-210.5 48t-211.5 -46.5t-145.5 -128.5t-84 -193.5t-27 -240.5q0 -136 22 -251.5t76 -200t144 -132.5t225 -48zM436 367v58q0 39 19.5 77t47.5 73t59.5 67t56.5 58q28 30 47 56t30.5 51t16 50t4.5 53q0 49 -21.5 67.5t-51.5 18.5
q-21 0 -37 -9.5t-25 -26t-11 -39t5 -47.5l-129 -27q-15 61 -7 112t36 88t73.5 57t107.5 20q103 0 159.5 -52t56.5 -155q0 -69 -28 -133t-88 -126q-41 -43 -77 -78.5t-53 -75.5h238v-137h-429z" />
    <glyph glyph-name="uni2462" unicode="&#x2462;" horiz-adv-x="1340" 
d="M665 -16q-143 0 -253 49t-185 144t-113.5 233t-38.5 317q0 148 31 279t100.5 229.5t182 155.5t275.5 57t275.5 -54.5t182 -150.5t100.5 -228t31 -288q0 -161 -30.5 -297t-100 -235t-182 -155t-275.5 -56zM666 95q117 0 204.5 42t145.5 122.5t86.5 198t28.5 269.5
q0 125 -26.5 236t-83 194t-144 131t-210.5 48t-211.5 -46.5t-145.5 -128.5t-84 -193.5t-27 -240.5q0 -136 22 -251.5t76 -200t144 -132.5t225 -48zM603 692v118h38q72 0 72 96q0 49 -15.5 68.5t-45.5 19.5q-20 0 -32.5 -10.5t-20 -27t-11.5 -37.5t-5 -42l-145 32
q3 103 58.5 161t161.5 58q97 0 152 -50.5t55 -145.5q0 -63 -24 -108.5t-80 -64.5q57 -14 86 -58t29 -110q0 -54 -13.5 -97.5t-41 -74t-69 -47.5t-97.5 -17q-114 0 -165 57t-55 171l147 31q-2 -36 2.5 -60t14.5 -38t23.5 -19.5t28.5 -5.5q20 0 33 9t21 23t11.5 32.5t3.5 38.5
q0 31 -7 50.5t-18.5 30t-25.5 14t-28 3.5h-38z" />
    <glyph glyph-name="uni2463" unicode="&#x2463;" horiz-adv-x="1340" 
d="M665 -16q-143 0 -253 49t-185 144t-113.5 233t-38.5 317q0 148 31 279t100.5 229.5t182 155.5t275.5 57t275.5 -54.5t182 -150.5t100.5 -228t31 -288q0 -161 -30.5 -297t-100 -235t-182 -155t-275.5 -56zM666 95q117 0 204.5 42t145.5 122.5t86.5 198t28.5 269.5
q0 125 -26.5 236t-83 194t-144 131t-210.5 48t-211.5 -46.5t-145.5 -128.5t-84 -193.5t-27 -240.5q0 -136 22 -251.5t76 -200t144 -132.5t225 -48zM685 1107q-4 -43 -12.5 -102.5t-24 -122.5t-38 -123t-53.5 -104h128v176h128v-176h65v-119h-65v-157h-129v157h-266v120
q36 64 59.5 127t37.5 121.5t21 112t11 100.5z" />
    <glyph glyph-name="uni2464" unicode="&#x2464;" horiz-adv-x="1340" 
d="M665 -16q-143 0 -253 49t-185 144t-113.5 233t-38.5 317q0 148 31 279t100.5 229.5t182 155.5t275.5 57t275.5 -54.5t182 -150.5t100.5 -228t31 -288q0 -161 -30.5 -297t-100 -235t-182 -155t-275.5 -56zM666 95q117 0 204.5 42t145.5 122.5t86.5 198t28.5 269.5
q0 125 -26.5 236t-83 194t-144 131t-210.5 48t-211.5 -46.5t-145.5 -128.5t-84 -193.5t-27 -240.5q0 -136 22 -251.5t76 -200t144 -132.5t225 -48zM585 582q2 -48 18.5 -79t51.5 -31q43 0 55.5 34.5t12.5 111.5q0 58 -16 85.5t-51 27.5q-49 0 -68 -59l-137 6l23 422h370
v-131h-248l-10 -169q19 26 49 40t68 14q91 0 131 -64t40 -184q0 -127 -51.5 -193t-165.5 -66q-56 0 -95 13t-64 38.5t-38 64t-17 88.5z" />
    <glyph glyph-name="uni2465" unicode="&#x2465;" horiz-adv-x="1340" 
d="M665 -16q-143 0 -253 49t-185 144t-113.5 233t-38.5 317q0 148 31 279t100.5 229.5t182 155.5t275.5 57t275.5 -54.5t182 -150.5t100.5 -228t31 -288q0 -161 -30.5 -297t-100 -235t-182 -155t-275.5 -56zM666 95q117 0 204.5 42t145.5 122.5t86.5 198t28.5 269.5
q0 125 -26.5 236t-83 194t-144 131t-210.5 48t-211.5 -46.5t-145.5 -128.5t-84 -193.5t-27 -240.5q0 -136 22 -251.5t76 -200t144 -132.5t225 -48zM720 894q-2 47 -16 69.5t-46 22.5q-44 0 -62 -54.5t-16 -177.5q19 41 48.5 63t71.5 22q86 0 130 -60.5t44 -177.5
q0 -61 -12 -109.5t-38 -83t-67.5 -53t-100.5 -18.5q-65 0 -108 21t-68.5 65.5t-36 112.5t-10.5 162q0 81 7.5 155.5t32 131.5t70 90.5t120.5 33.5q51 0 86.5 -12.5t58.5 -36t36 -58t19 -78.5zM655 459q39 0 54.5 33t15.5 108q0 60 -16 91t-53 31q-24 0 -38.5 -11.5
t-22 -29.5t-9.5 -40.5t-2 -43.5q0 -76 17 -107t54 -31z" />
    <glyph glyph-name="uni2466" unicode="&#x2466;" horiz-adv-x="1340" 
d="M665 -16q-143 0 -253 49t-185 144t-113.5 233t-38.5 317q0 148 31 279t100.5 229.5t182 155.5t275.5 57t275.5 -54.5t182 -150.5t100.5 -228t31 -288q0 -161 -30.5 -297t-100 -235t-182 -155t-275.5 -56zM666 95q117 0 204.5 42t145.5 122.5t86.5 198t28.5 269.5
q0 125 -26.5 236t-83 194t-144 131t-210.5 48t-211.5 -46.5t-145.5 -128.5t-84 -193.5t-27 -240.5q0 -136 22 -251.5t76 -200t144 -132.5t225 -48zM555 351q1 99 12 182t31 155.5t50 138t69 130.5h-262v132h416v-117q-45 -72 -75.5 -143.5t-49 -147t-26.5 -157t-7 -173.5
h-158z" />
    <glyph glyph-name="uni2467" unicode="&#x2467;" horiz-adv-x="1340" 
d="M665 -16q-143 0 -253 49t-185 144t-113.5 233t-38.5 317q0 148 31 279t100.5 229.5t182 155.5t275.5 57t275.5 -54.5t182 -150.5t100.5 -228t31 -288q0 -161 -30.5 -297t-100 -235t-182 -155t-275.5 -56zM666 95q117 0 204.5 42t145.5 122.5t86.5 198t28.5 269.5
q0 125 -26.5 236t-83 194t-144 131t-210.5 48t-211.5 -46.5t-145.5 -128.5t-84 -193.5t-27 -240.5q0 -136 22 -251.5t76 -200t144 -132.5t225 -48zM764 758q27 -6 50 -23t39.5 -42.5t26 -58.5t9.5 -71q0 -102 -55.5 -159t-169.5 -57q-109 0 -167.5 54t-58.5 154q0 35 6.5 68
t21.5 60t38.5 47t57.5 29q-55 11 -83 53t-28 104q0 96 54.5 150.5t158.5 54.5q98 0 155 -50t57 -150q0 -27 -5 -53t-17.5 -47.5t-34.5 -37.5t-55 -25zM664 465q40 0 57.5 30t17.5 89q0 52 -15.5 84.5t-56.5 32.5q-26 0 -41 -11t-23.5 -28.5t-11 -40t-2.5 -46.5
q0 -56 17.5 -83t57.5 -27zM667 821q35 0 50.5 28.5t15.5 66.5q0 52 -16.5 74t-50.5 22q-37 0 -53 -24t-16 -72t16 -71.5t54 -23.5z" />
    <glyph glyph-name="uni2468" unicode="&#x2468;" horiz-adv-x="1340" 
d="M665 -16q-143 0 -253 49t-185 144t-113.5 233t-38.5 317q0 148 31 279t100.5 229.5t182 155.5t275.5 57t275.5 -54.5t182 -150.5t100.5 -228t31 -288q0 -161 -30.5 -297t-100 -235t-182 -155t-275.5 -56zM666 95q117 0 204.5 42t145.5 122.5t86.5 198t28.5 269.5
q0 125 -26.5 236t-83 194t-144 131t-210.5 48t-211.5 -46.5t-145.5 -128.5t-84 -193.5t-27 -240.5q0 -136 22 -251.5t76 -200t144 -132.5t225 -48zM595 562q2 -48 15.5 -71t45.5 -23q44 0 62.5 55t15.5 179q-14 -45 -45 -64.5t-73 -19.5q-87 0 -131 59.5t-44 177.5
q0 60 11.5 109t37.5 83t67 52.5t100 18.5q66 0 109.5 -21.5t69.5 -65.5t36.5 -112t10.5 -162q0 -81 -8 -155.5t-33 -131.5t-70.5 -90.5t-120.5 -33.5q-51 0 -86.5 12.5t-58.5 36t-36 58t-18 78.5zM659 997q-38 0 -53.5 -33t-15.5 -108q0 -62 15.5 -91.5t52.5 -29.5
q25 0 39 11t21.5 29t9.5 40t2 43q0 76 -17 107.5t-54 31.5z" />
    <glyph glyph-name="uni24EA" unicode="&#x24ea;" horiz-adv-x="1340" 
d="M665 -16q-143 0 -253 49t-185 144t-113.5 233t-38.5 317q0 148 31 279t100.5 229.5t182 155.5t275.5 57t275.5 -54.5t182 -150.5t100.5 -228t31 -288q0 -161 -30.5 -297t-100 -235t-182 -155t-275.5 -56zM666 95q117 0 204.5 42t145.5 122.5t86.5 198t28.5 269.5
q0 125 -26.5 236t-83 194t-144 131t-210.5 48t-211.5 -46.5t-145.5 -128.5t-84 -193.5t-27 -240.5q0 -136 22 -251.5t76 -200t144 -132.5t225 -48zM661 330q-67 0 -114 24t-77 72.5t-44 120.5t-14 168q0 97 14 169.5t44 121t77.5 72.5t114.5 24q133 0 191.5 -96.5
t58.5 -291.5q0 -191 -58.5 -287.5t-192.5 -96.5zM661 469q24 0 40.5 13.5t27.5 42.5t16 76t5 114q0 68 -5 115.5t-16 77t-27.5 43t-39.5 13.5t-40 -13.5t-27.5 -43t-15.5 -77t-5 -116.5q0 -67 4.5 -113.5t15 -76t27 -42.5t40.5 -13z" />
    <glyph glyph-name="uni24FF" unicode="&#x24ff;" horiz-adv-x="1340" 
d="M665 -16q-143 0 -253 49t-185 144t-113.5 233t-38.5 317q0 148 31 279t100.5 229.5t182 155.5t275.5 57t275.5 -54.5t182 -150.5t100.5 -228t31 -288q0 -161 -30.5 -297t-100 -235t-182 -155t-275.5 -56zM661 330q134 0 192.5 96.5t58.5 287.5q0 195 -58.5 291.5
t-191.5 96.5q-67 0 -114.5 -24t-77.5 -72.5t-44 -121t-14 -169.5q0 -96 14 -168t44 -120.5t77 -72.5t114 -24zM661 469q-24 0 -40.5 13t-27 42.5t-15 76t-4.5 113.5q0 69 5 116.5t15.5 77t27.5 43t40 13.5t39.5 -13.5t27.5 -43t16 -77t5 -115.5q0 -67 -5 -114t-16 -76
t-27.5 -42.5t-40.5 -13.5z" />
    <glyph glyph-name="filledbox" unicode="&#x25a0;" horiz-adv-x="1291" 
d="M1051 977v-816h-814v816h814z" />
    <glyph glyph-name="uni25A1" unicode="&#x25a1;" horiz-adv-x="1291" 
d="M1090 1158v-893h-894v893h894zM423 493h439v438h-439v-438z" />
    <glyph glyph-name="uni25B3" unicode="&#x25b3;" horiz-adv-x="1302" 
d="M657 1527l601 -1527h-1211zM922 214l-265 799l-271 -799h536z" />
    <glyph glyph-name="uni25B4" unicode="&#x25b4;" horiz-adv-x="1291" 
d="M1051 384h-814l407 816z" />
    <glyph glyph-name="uni25B8" unicode="&#x25b8;" horiz-adv-x="1223" 
d="M237 384v816l814 -410z" />
    <glyph glyph-name="uni25BD" unicode="&#x25bd;" horiz-adv-x="1302" 
d="M47 1431h1211l-601 -1526zM386 1217l271 -799l265 799h-536z" />
    <glyph glyph-name="uni25BE" unicode="&#x25be;" horiz-adv-x="1291" 
d="M237 977h814l-407 -816z" />
    <glyph glyph-name="uni25C2" unicode="&#x25c2;" horiz-adv-x="1171" 
d="M931 1200v-816l-813 406z" />
    <glyph glyph-name="uni25C6" unicode="&#x25c6;" horiz-adv-x="1291" 
d="M1204 691l-559 -598l-559 598l559 587z" />
    <glyph glyph-name="uni25C7" unicode="&#x25c7;" horiz-adv-x="1291" 
d="M1275 726l-631 -631l-633 632l632 632zM333 727l311 -310l308 309l-309 310z" />
    <glyph glyph-name="circle" unicode="&#x25cb;" horiz-adv-x="1291" 
d="M647 153q-108 0 -202 40.5t-164 111t-110 165.5t-40 203q0 107 40 201.5t110 165t164 111t202 40.5q107 0 201 -40.5t164 -111t110.5 -165t40.5 -201.5q0 -108 -40.5 -203t-110.5 -165.5t-164 -111t-201 -40.5zM646 369q61 0 114 23t92 63.5t61.5 96t22.5 120.5
q0 64 -22.5 119t-61.5 95.5t-92 63.5t-114 23t-114 -23t-92.5 -63.5t-62 -95.5t-22.5 -119q0 -65 22.5 -120.5t62 -96t92.5 -63.5t114 -23z" />
    <glyph glyph-name="uni25CF" unicode="&#x25cf;" horiz-adv-x="1291" 
d="M647 153q-108 0 -202 40.5t-164 111t-110 165.5t-40 203q0 107 40 201.5t110 165t164 111t202 40.5q107 0 201 -40.5t164 -111t110.5 -165t40.5 -201.5q0 -108 -40.5 -203t-110.5 -165.5t-164 -111t-201 -40.5z" />
    <glyph glyph-name="uni2611" unicode="&#x2611;" horiz-adv-x="1935" 
d="M215 1504h1505v-1504h-1505v1504zM1482 238v1030h-1030v-1030h1030zM1317 1117l-301 -719h-212l-178 364h179l92 -168l203 523h217z" />
    <glyph glyph-name="uni2612" unicode="&#x2612;" horiz-adv-x="1946" 
d="M1075 407l-101 232l-102 -232h-182l182 344l-170 328h190l91 -213l90 213h181l-169 -319l183 -353h-193zM215 1504h1505v-1504h-1505v1504zM1482 238v1030h-1030v-1030h1030z" />
    <glyph glyph-name="uni2776" unicode="&#x2776;" horiz-adv-x="1340" 
d="M665 -16q-143 0 -253 49t-185 144t-113.5 233t-38.5 317q0 148 31 279t100.5 229.5t182 155.5t275.5 57t275.5 -54.5t182 -150.5t100.5 -228t31 -288q0 -161 -30.5 -297t-100 -235t-182 -155t-275.5 -56zM750 366v738h-127q-11 -55 -48.5 -78.5t-94.5 -31.5v-97l117 2
v-533h153z" />
    <glyph glyph-name="uni2777" unicode="&#x2777;" horiz-adv-x="1340" 
d="M665 -16q-143 0 -253 49t-185 144t-113.5 233t-38.5 317q0 148 31 279t100.5 229.5t182 155.5t275.5 57t275.5 -54.5t182 -150.5t100.5 -228t31 -288q0 -161 -30.5 -297t-100 -235t-182 -155t-275.5 -56zM865 367v137h-238q17 40 53 75.5t77 78.5q60 62 88 126t28 133
q0 103 -56.5 155t-159.5 52q-62 0 -107.5 -20t-73.5 -57t-36 -88t7 -112l129 27q-7 25 -5 47.5t11 39t25 26t37 9.5q30 0 51.5 -18.5t21.5 -67.5q0 -28 -4.5 -53t-16 -50t-30.5 -51t-47 -56q-25 -26 -56.5 -58t-59.5 -67t-47.5 -73t-19.5 -77v-58h429z" />
    <glyph glyph-name="uni2778" unicode="&#x2778;" horiz-adv-x="1340" 
d="M665 -16q-143 0 -253 49t-185 144t-113.5 233t-38.5 317q0 148 31 279t100.5 229.5t182 155.5t275.5 57t275.5 -54.5t182 -150.5t100.5 -228t31 -288q0 -161 -30.5 -297t-100 -235t-182 -155t-275.5 -56zM641 692q14 0 28 -3.5t25.5 -14t18.5 -30t7 -50.5
q0 -20 -3.5 -38.5t-11.5 -32.5t-21 -23t-33 -9q-15 0 -28.5 5.5t-23.5 19.5t-14.5 38t-2.5 60l-147 -31q4 -114 55 -171t165 -57q56 0 97.5 17t69 47.5t41 74t13.5 97.5q0 66 -29 110t-86 58q56 19 80 64.5t24 108.5q0 95 -55 145.5t-152 50.5q-106 0 -161.5 -58t-58.5 -161
l145 -32q1 21 5 42t11.5 37.5t20 27t32.5 10.5q30 0 45.5 -19.5t15.5 -68.5q0 -96 -72 -96h-38v-118h38z" />
    <glyph glyph-name="uni2779" unicode="&#x2779;" horiz-adv-x="1340" 
d="M665 -16q-143 0 -253 49t-185 144t-113.5 233t-38.5 317q0 148 31 279t100.5 229.5t182 155.5t275.5 57t275.5 -54.5t182 -150.5t100.5 -228t31 -288q0 -161 -30.5 -297t-100 -235t-182 -155t-275.5 -56zM547 1117q-4 -47 -11 -100.5t-21 -112t-37.5 -121.5t-59.5 -127
v-120h266v-157h129v157h65v119h-65v176h-128v-176h-128q31 44 53.5 104t38 123t24 122.5t12.5 102.5z" />
    <glyph glyph-name="uni277A" unicode="&#x277a;" horiz-adv-x="1340" 
d="M665 -16q-143 0 -253 49t-185 144t-113.5 233t-38.5 317q0 148 31 279t100.5 229.5t182 155.5t275.5 57t275.5 -54.5t182 -150.5t100.5 -228t31 -288q0 -161 -30.5 -297t-100 -235t-182 -155t-275.5 -56zM443 551q4 -50 17 -88.5t38 -64t64 -38.5t95 -13q114 0 165.5 66
t51.5 193q0 120 -40 184t-131 64q-38 0 -68 -14t-49 -40l10 169h248v131h-370l-23 -422l137 -6q19 59 68 59q35 0 51 -27.5t16 -85.5q0 -77 -12.5 -111.5t-55.5 -34.5q-35 0 -51.5 31t-18.5 79z" />
    <glyph glyph-name="uni277B" unicode="&#x277b;" horiz-adv-x="1340" 
d="M665 -16q-143 0 -253 49t-185 144t-113.5 233t-38.5 317q0 148 31 279t100.5 229.5t182 155.5t275.5 57t275.5 -54.5t182 -150.5t100.5 -228t31 -288q0 -161 -30.5 -297t-100 -235t-182 -155t-275.5 -56zM863 924q-6 44 -19 78.5t-36 58t-58.5 36t-86.5 12.5
q-75 0 -120.5 -33.5t-70 -90.5t-32 -131.5t-7.5 -155.5q0 -94 10.5 -162t36 -112.5t68.5 -65.5t108 -21q59 0 100.5 18.5t67.5 53t38 83t12 109.5q0 117 -44 177.5t-130 60.5q-42 0 -71.5 -22t-48.5 -63q-2 123 16 177.5t62 54.5q32 0 46 -22.5t16 -69.5zM655 459
q-37 0 -54 31t-17 107q0 21 2 43.5t9.5 40.5t22 29.5t38.5 11.5q37 0 53 -31t16 -91q0 -75 -15.5 -108t-54.5 -33z" />
    <glyph glyph-name="uni277C" unicode="&#x277c;" horiz-adv-x="1340" 
d="M665 -16q-143 0 -253 49t-185 144t-113.5 233t-38.5 317q0 148 31 279t100.5 229.5t182 155.5t275.5 57t275.5 -54.5t182 -150.5t100.5 -228t31 -288q0 -161 -30.5 -297t-100 -235t-182 -155t-275.5 -56zM713 351q-1 92 7 173.5t26.5 157t49 147t75.5 143.5v117h-416
v-132h262q-39 -65 -69 -130.5t-50 -138t-31 -155.5t-12 -182h158z" />
    <glyph glyph-name="uni277D" unicode="&#x277d;" horiz-adv-x="1340" 
d="M665 -16q-143 0 -253 49t-185 144t-113.5 233t-38.5 317q0 148 31 279t100.5 229.5t182 155.5t275.5 57t275.5 -54.5t182 -150.5t100.5 -228t31 -288q0 -161 -30.5 -297t-100 -235t-182 -155t-275.5 -56zM764 758q33 9 55 25t34.5 37.5t17.5 47.5t5 53q0 100 -57 150
t-155 50q-104 0 -158.5 -54.5t-54.5 -150.5q0 -62 28 -104t83 -53q-34 -9 -57.5 -29t-38.5 -47t-21.5 -60t-6.5 -68q0 -100 58.5 -154t167.5 -54q114 0 169.5 57t55.5 159q0 38 -9.5 71t-26 58.5t-39.5 42.5t-50 23zM664 465q-40 0 -57.5 27t-17.5 83q0 24 2.5 46.5t11 40
t23.5 28.5t41 11q41 0 56.5 -32.5t15.5 -84.5q0 -59 -17.5 -89t-57.5 -30zM667 821q-38 0 -54 23.5t-16 71.5t16 72t53 24q34 0 50.5 -22t16.5 -74q0 -38 -15.5 -66.5t-50.5 -28.5z" />
    <glyph glyph-name="uni277E" unicode="&#x277e;" horiz-adv-x="1340" 
d="M665 -16q-143 0 -253 49t-185 144t-113.5 233t-38.5 317q0 148 31 279t100.5 229.5t182 155.5t275.5 57t275.5 -54.5t182 -150.5t100.5 -228t31 -288q0 -161 -30.5 -297t-100 -235t-182 -155t-275.5 -56zM452 531q5 -44 18 -78.5t36 -58t58.5 -36t86.5 -12.5
q75 0 120.5 33.5t70.5 90.5t33 131.5t8 155.5q0 94 -10.5 162t-36.5 112t-69.5 65.5t-109.5 21.5q-59 0 -100 -18.5t-67 -52.5t-37.5 -83t-11.5 -109q0 -118 44 -177.5t131 -59.5q42 0 73 19.5t45 64.5q3 -124 -15.5 -179t-62.5 -55q-32 0 -45.5 23t-15.5 71zM659 997
q37 0 54 -31.5t17 -107.5q0 -21 -2 -43t-9.5 -40t-21.5 -29t-39 -11q-37 0 -52.5 29.5t-15.5 91.5q0 75 15.5 108t53.5 33z" />
    <glyph glyph-name="commaaccent" unicode="&#xf6c3;" horiz-adv-x="340" 
d="M67 -410q28 10 43.5 19.5t23 21t9.5 26t2 32.5h-61v222h183v-209q0 -46 -9 -80.5t-29.5 -60.5t-54 -44.5t-82.5 -33.5z" />
    <glyph glyph-name="centinferior" unicode="&#xf6df;" horiz-adv-x="476" 
d="M208 -233v108q-93 13 -133 86t-40 200q0 130 40.5 201.5t132.5 83.5v92h96v-94q79 -16 112 -74t32 -146l-147 -15q0 70 -9.5 101t-43.5 31q-18 0 -29 -10t-17.5 -31.5t-8.5 -55.5t-2 -82q0 -59 3.5 -94.5t11 -54.5t18 -25.5t24.5 -6.5q35 0 46.5 37t13.5 107l147 -14
q0 -107 -38 -163t-113 -70v-111h-96z" />
    <glyph glyph-name="centsuperior" unicode="&#xf6e0;" horiz-adv-x="476" 
d="M208 684v108q-93 13 -133 86t-40 200q0 130 40.5 201.5t132.5 83.5v92h96v-94q79 -16 112 -74t32 -146l-147 -15q0 70 -9.5 101t-43.5 31q-18 0 -29 -10t-17.5 -31.5t-8.5 -55.5t-2 -82q0 -59 3.5 -94.5t11 -54.5t18 -25.5t24.5 -6.5q35 0 46.5 37t13.5 107l147 -14
q0 -107 -38 -163t-113 -70v-111h-96z" />
    <glyph glyph-name="commainferior" unicode="&#xf6e1;" horiz-adv-x="247" 
d="M42 -210q35 14 49 36.5t14 62.5h-56v154h156v-147q0 -27 -8 -53.5t-25.5 -49.5t-45.5 -41.5t-69 -28.5z" />
    <glyph glyph-name="commasuperior" unicode="&#xf6e2;" horiz-adv-x="247" 
d="M42 707q35 14 49 36.5t14 62.5h-56v154h156v-147q0 -27 -8 -53.5t-25.5 -49.5t-45.5 -41.5t-69 -28.5z" />
    <glyph glyph-name="dollarinferior" unicode="&#xf6e3;" horiz-adv-x="528" 
d="M253 -215v85q-50 3 -92.5 20.5t-73 49.5t-47 77.5t-14.5 103.5l150 31q-5 -70 15.5 -104t61.5 -39v196q-2 0 -4 2l-30 14q-40 19 -73 40t-57 47t-37 58.5t-13 74.5q0 52 16.5 93t45 69.5t67.5 44t85 17.5v84h48v-86q48 -5 84 -24.5t60 -49.5t37 -67.5t16 -79.5l-143 -30
q-2 53 -17 77.5t-37 32.5v-173l22 -10q50 -23 86 -46.5t59.5 -51.5t34.5 -63.5t11 -82.5q0 -44 -14.5 -82.5t-42.5 -68.5t-67.5 -49t-88.5 -24v-85zM358 94q0 30 -14 49t-43 36v-168q29 8 43 30.5t14 52.5zM196 449q0 -29 16.5 -46.5t40.5 -30.5v153q-29 -5 -43 -26t-14 -50
z" />
    <glyph glyph-name="dollarsuperior" unicode="&#xf6e4;" horiz-adv-x="528" 
d="M253 702v85q-50 3 -92.5 20.5t-73 49.5t-47 77.5t-14.5 103.5l150 31q-5 -70 15.5 -104t61.5 -39v196q-2 0 -4 2l-30 14q-40 19 -73 40t-57 47t-37 58.5t-13 74.5q0 52 16.5 93t45 69.5t67.5 44t85 17.5v84h48v-86q48 -5 84 -24.5t60 -49.5t37 -67.5t16 -79.5l-143 -30
q-2 53 -17 77.5t-37 32.5v-173l22 -10q50 -23 86 -46.5t59.5 -51.5t34.5 -63.5t11 -82.5q0 -44 -14.5 -82.5t-42.5 -68.5t-67.5 -49t-88.5 -24v-85zM358 1011q0 30 -14 49t-43 36v-168q29 8 43 30.5t14 52.5zM196 1366q0 -29 16.5 -46.5t40.5 -30.5v153q-29 -5 -43 -26
t-14 -50z" />
    <glyph glyph-name="hypheninferior" unicode="&#xf6e5;" horiz-adv-x="348" 
d="M36 89v145h276v-145h-276z" />
    <glyph glyph-name="hyphensuperior" unicode="&#xf6e6;" horiz-adv-x="348" 
d="M36 1006v145h276v-145h-276z" />
    <glyph glyph-name="periodinferior" unicode="&#xf6e7;" horiz-adv-x="238" 
d="M47 -111v184h146v-184h-146z" />
    <glyph glyph-name="periodsuperior" unicode="&#xf6e8;" horiz-adv-x="238" 
d="M47 806v184h146v-184h-146z" />
    <glyph glyph-name="asuperior" unicode="&#xf6e9;" horiz-adv-x="571" 
d="M363 777q-1 22 -3 50t-1 48q-10 -33 -26 -55t-37 -35t-46.5 -18.5t-52.5 -5.5q-75 0 -119 48.5t-44 141.5q0 110 75 164.5t233 65.5v33q0 61 -19.5 84t-48.5 23q-35 0 -50 -25t-17 -71h-154q3 62 24 104t54 67.5t74.5 36.5t83.5 11q108 0 166 -66.5t58 -185.5v-239
q0 -55 2.5 -96.5t7.5 -79.5h-160zM343 1071q-34 -5 -60.5 -11.5t-45 -18t-28 -29t-9.5 -43.5q0 -35 14.5 -61.5t47.5 -26.5q22 0 37 10.5t25 29.5t14.5 44.5t4.5 54.5v51z" />
    <glyph glyph-name="bsuperior" unicode="&#xf6ea;" horiz-adv-x="592" 
d="M63 786v910h172v-330q17 38 57.5 62t93.5 24q94 0 134 -85.5t40 -257.5q0 -80 -10 -143.5t-32.5 -107.5t-58 -67t-87.5 -23q-47 0 -88 21.5t-60 66.5l-17 -70h-144zM235 1110q0 -59 4.5 -101t14 -68.5t23.5 -38.5t33 -12q44 0 58.5 54t14.5 166q0 67 -4.5 110t-13 67.5
t-21.5 33.5t-30 9q-16 0 -30 -8.5t-25 -32.5t-17.5 -67t-6.5 -112z" />
    <glyph glyph-name="dsuperior" unicode="&#xf6eb;" horiz-adv-x="592" 
d="M386 786l-17 70q-20 -45 -60.5 -66.5t-87.5 -21.5q-53 0 -88.5 23t-57.5 67t-31.5 107.5t-9.5 143.5q0 172 39 257.5t133 85.5q53 0 93.5 -24t57.5 -62v330h172v-910h-143zM357 1110q0 69 -6.5 112t-17 67t-25 32.5t-29.5 8.5q-17 0 -30 -9t-21.5 -33.5t-13 -67.5
t-4.5 -110q0 -112 14 -166t58 -54q19 0 33.5 12t23.5 38.5t13.5 68.5t4.5 101z" />
    <glyph glyph-name="esuperior" unicode="&#xf6ec;" horiz-adv-x="549" 
d="M511 958q-7 -39 -22.5 -74t-42.5 -61t-67 -41.5t-96 -15.5q-73 0 -121 26t-76.5 71.5t-40 109t-11.5 138.5q0 79 12.5 141.5t42 106t77 67t117.5 23.5q125 0 181 -75.5t56 -232.5v-77h-315q0 -98 18.5 -137.5t60.5 -39.5q32 0 48.5 23t23.5 70zM354 1181q0 82 -16 117
t-59 35q-22 0 -35.5 -11t-22 -31t-12 -48t-4.5 -62h149z" />
    <glyph glyph-name="isuperior" unicode="&#xf6ed;" horiz-adv-x="292" 
d="M59 786v648h172v-648h-172zM58 1527v161h176v-161h-176z" />
    <glyph glyph-name="lsuperior" unicode="&#xf6ee;" horiz-adv-x="299" 
d="M63 786v910h172v-910h-172z" />
    <glyph glyph-name="msuperior" unicode="&#xf6ef;" horiz-adv-x="869" 
d="M643 786v458q0 45 -13.5 61.5t-30.5 16.5q-32 0 -54 -34.5t-22 -93.5v-408h-172v451q0 48 -12.5 66.5t-30.5 18.5q-32 0 -54 -37t-22 -111v-388h-172v648h160v-101q5 16 16 36.5t30.5 39t48 31t68.5 12.5q48 0 81.5 -29t45.5 -85q25 55 63.5 84.5t92.5 29.5
q72 0 110.5 -52.5t38.5 -148.5v-465h-172z" />
    <glyph glyph-name="osuperior" unicode="&#xf6f0;" horiz-adv-x="569" 
d="M285 768q-72 0 -120.5 25.5t-77.5 70.5t-41 108t-12 138t12 138t41.5 108.5t77.5 70.5t120 25t120 -25t77 -70.5t41.5 -108.5t12.5 -138t-12.5 -138t-41.5 -108t-77 -70.5t-120 -25.5zM285 890q21 0 35.5 10.5t23 35.5t12.5 67.5t4 106.5t-3.5 106.5t-12.5 67.5
t-23.5 35.5t-35.5 10.5t-35.5 -10.5t-23 -35.5t-12.5 -67.5t-4 -106.5t4 -106t12.5 -67.5t23 -36t35.5 -10.5z" />
    <glyph glyph-name="rsuperior" unicode="&#xf6f1;" horiz-adv-x="419" 
d="M60 784v648h163v-113q17 53 54.5 84.5t92.5 31.5h52v-123h-32q-53 0 -84.5 -24t-48 -58.5t-21 -71.5t-4.5 -64l-1 -310h-171z" />
    <glyph glyph-name="ssuperior" unicode="&#xf6f2;" horiz-adv-x="510" 
d="M223 1056q-41 12 -75.5 29t-59 42t-38.5 59t-14 78q0 42 15.5 76t44 58t69.5 37t92 13q55 0 96.5 -15t70 -42t45 -63.5t22.5 -78.5l-157 -19q-5 57 -25.5 76t-51.5 19q-59 0 -59 -63q0 -18 5.5 -31t19 -24t35.5 -21t55 -21q94 -28 133.5 -76.5t39.5 -118.5
q0 -44 -15.5 -82t-44.5 -65.5t-71 -43t-96 -15.5q-55 0 -96.5 15t-70.5 42.5t-45.5 66t-22.5 84.5l163 17q0 -56 18.5 -79.5t53.5 -23.5q28 0 45.5 19t17.5 50q0 16 -3.5 30t-14 26.5t-30 23.5t-51.5 21z" />
    <glyph glyph-name="tsuperior" unicode="&#xf6f3;" horiz-adv-x="396" 
d="M388 779q-9 -1 -24 -2t-31.5 -2t-32.5 -1.5t-26 -0.5q-100 0 -147 56t-47 172v310h-78v121h78v168l172 27v-195h127v-121h-127v-321q0 -77 64 -77h72v-134z" />
    <glyph glyph-name="Lslashsmall" unicode="&#xf6f9;" horiz-adv-x="699" 
d="M102 0v363l-66 -26l-60 154l126 51v484h234v-389l183 74l61 -154l-244 -99v-259h341v-199h-575z" />
    <glyph glyph-name="OEsmall" unicode="&#xf6fa;" horiz-adv-x="1240" 
d="M594 0q-33 -14 -71.5 -21t-83.5 -7q-111 0 -184 41t-117 113.5t-62 171.5t-18 215t18 215t62 171.5t117.5 113.5t183.5 41q45 0 83.5 -7t71.5 -21h587v-199h-354v-207h303v-176h-303v-245h361v-199h-594zM439 141q39 0 65.5 20t43.5 64t24.5 115t7.5 173t-7.5 173
t-24 115.5t-43.5 64.5t-66 20t-66.5 -20t-44 -64.5t-24 -115.5t-7.5 -173t7.5 -173t24.5 -115t44 -64t66 -20z" />
    <glyph glyph-name="Scaronsmall" unicode="&#xf6fd;" horiz-adv-x="767" 
d="M285 1158l-183 282h188l106 -172l105 172h186l-180 -282h-222zM262 468q-47 20 -85 46t-65 61t-41.5 80t-14.5 103q0 67 25 121.5t68 93.5t101 60t125 21q105 0 183.5 -34.5t145.5 -101.5l-103 -137q-51 49 -100.5 73.5t-105.5 24.5q-24 0 -45 -6.5t-37.5 -20.5
t-26 -35.5t-9.5 -51.5q0 -50 24.5 -80.5t80.5 -54.5l111 -47q66 -28 112 -59.5t74 -68t40.5 -78.5t12.5 -90q0 -72 -23 -130.5t-67 -99.5t-109 -63t-149 -22q-59 0 -112 13t-99 34.5t-84.5 49t-68.5 57.5l103 144q18 -20 46 -41.5t61 -39.5t69 -30t70 -12q62 0 100.5 31.5
t38.5 93.5q0 25 -6.5 44.5t-22.5 37t-43 34t-67 34.5z" />
    <glyph glyph-name="Zcaronsmall" unicode="&#xf6ff;" horiz-adv-x="746" 
d="M282 1162l-183 282h188l106 -172l105 172h186l-180 -282h-222zM41 0v152l396 693h-375v181h623v-149l-397 -694h398v-183h-645z" />
    <glyph glyph-name="dollaroldstyle" unicode="&#xf724;" horiz-adv-x="767" 
d="M262 468q-47 20 -85 46t-65 61t-41.5 80t-14.5 103q0 61 20.5 112t57 88.5t86.5 61.5t108 31v166h151v-173q66 -14 120.5 -45t104.5 -81l-103 -137q-51 49 -100.5 73.5t-105.5 24.5q-24 0 -45 -6.5t-37.5 -20.5t-26 -35.5t-9.5 -51.5q0 -50 24.5 -80.5t80.5 -54.5
l111 -47q66 -28 112 -59.5t74 -68t40.5 -78.5t12.5 -90q0 -124 -64.5 -204t-188.5 -103v-180h-151v176q-49 6 -93.5 20t-83.5 34.5t-72 45t-59 50.5l103 144q18 -20 46 -41.5t61 -39.5t69 -30t70 -12q62 0 100.5 31.5t38.5 93.5q0 25 -6.5 44.5t-22.5 37t-43 34t-67 34.5z
" />
    <glyph glyph-name="zerooldstyle" unicode="&#xf730;" 
d="M477 261l936 945q186 -239 186 -476q0 -135 -42.5 -256t-124.5 -213h-955zM337 238q-88 111 -133 233t-45 259q0 58 10 119.5t31 120.5t52.5 112t73.5 95h948zM400 180h960q-117 -93 -236.5 -137t-246.5 -44q-139 0 -258 48t-219 133zM1360 1263h-969q116 87 236.5 134.5
t249.5 47.5q74 0 137 -15t121 -40.5t113 -58.5t112 -68z" />
    <glyph glyph-name="oneoldstyle" unicode="&#xf731;" 
d="M477 261l936 945q186 -239 186 -476q0 -135 -42.5 -256t-124.5 -213h-955zM337 238q-88 111 -133 233t-45 259q0 58 10 119.5t31 120.5t52.5 112t73.5 95h948zM400 180h960q-117 -93 -236.5 -137t-246.5 -44q-139 0 -258 48t-219 133zM1360 1263h-969q116 87 236.5 134.5
t249.5 47.5q74 0 137 -15t121 -40.5t113 -58.5t112 -68z" />
    </font>
</defs>
</svg>
